<svg version="1.1" xmlns="http://www.w3.org/2000/svg" xmlns:xlink="http://www.w3.org/1999/xlink" width="78.1" height="11"><g transform="translate(-224.8,-174.7)"><g data-paper-data="{&quot;isPaintingLayer&quot;:true}" fill="#ffffff" fill-rule="nonzero" stroke="none" stroke-width="1" stroke-linecap="butt" stroke-linejoin="miter" stroke-miterlimit="10" stroke-dasharray="" stroke-dashoffset="0" font-family="none" font-weight="none" font-size="none" text-anchor="none" style="mix-blend-mode: normal"><g><path d="M224.8,183.3v-6.3l2.3,-2.3h6.3l2.3,2.3v6.3l-2.3,2.3h-6.3zM227.9,178.6v3.1l0.8,0.8h3.1l0.8,-0.8v-3.1l-0.8,-0.8h-3.1z" id="XMLID_3_"/><path d="M248.2,177v3.1l-2.3,2.3h-5.5v3.1h-3.1v-10.8h8.6zM245.1,178.6l-0.8,-0.8h-3.9v1.6h3.9z" id="XMLID_6_"/><path d="M256.8,177.8v7.8h-3.1v-7.8h-3.9v-3.1h10.9v3.1z" id="XMLID_9_"/><path d="M265.4,185.6h-3.1v-10.9h3.1z" id="XMLID_11_"/><path d="M267,183.3v-6.3l2.3,-2.3h6.3l2.3,2.3v6.3l-2.3,2.3h-6.3zM270.1,178.6v3.1l0.8,0.8h3.1l0.8,-0.8v-3.1l-0.8,-0.8h-3.1z" id="XMLID_13_"/><path d="M282.6,180.2v5.5h-3.1v-11h2.3l5.5,5.5v-5.5h3.1v10.9h-2.3z" id="XMLID_16_"/><path d="M292,177l2.3,-2.3h8.6v3.1h-7l-0.4,0.4l0.4,0.4h4.7l2.3,2.3v2.3l-2.3,2.3h-8.6v-3.1h7l0.4,-0.4l-0.4,-0.3h-4.7l-2.3,-2.3z" id="XMLID_18_"/></g></g></g></svg>