<?xml version="1.0" encoding="iso-8859-1"?>
<!-- Generator: Adobe Illustrator 19.0.0, SVG Export Plug-In . SVG Version: 6.00 Build 0)  -->
<svg version="1.1" xmlns="http://www.w3.org/2000/svg" xmlns:xlink="http://www.w3.org/1999/xlink" x="0px" y="0px"
	 viewBox="0 0 64 8" style="enable-background:new 0 0 64 8;" xml:space="preserve">
<g id="Layer_3_copy_5">
	<g id="XMLID_191_">
		<path id="XMLID_192_" d="M8.522,2.633H7.64L6.985,0.023h1.167L8.522,2.633z M9.984,2.633H9.111L8.579,0.023h1.177L9.984,2.633z"/>
		<path id="XMLID_195_" d="M10.668,0.583h5.101l1.391,1.342v3.578L15.77,6.845h-5.101V0.583z M12.523,2.372v2.684h2.319l0.463-0.448
			V2.819l-0.463-0.447H12.523z"/>
		<path id="XMLID_198_" d="M19.479,0.583h3.71l1.391,1.342v4.92h-1.855V5.503h-2.782v1.342h-1.855v-4.92L19.479,0.583z
			 M22.262,2.372h-1.855l-0.464,0.447v0.895h2.782V2.819L22.262,2.372z"/>
		<path id="XMLID_201_" d="M27.363,3.713v3.131h-1.855V0.583h1.391l3.246,3.13v-3.13H32v6.262h-1.391L27.363,3.713z"/>
		<path id="XMLID_203_" d="M38.029,0.583l1.391,1.342l-1.391,1.341l-0.928-0.894h-1.855l-0.464,0.447v1.789l0.464,0.448h1.855
			l0.928-0.895l1.391,1.342l-1.391,1.342h-3.71l-1.391-1.342V1.925l1.391-1.342H38.029z"/>
		<path id="XMLID_205_" d="M42.202,5.056h3.71v1.789h-5.564V0.583h5.564v1.789h-3.71v0.447h3.71v1.789h-3.71V5.056z"/>
		<path id="XMLID_207_" d="M53.332,1.925v1.789l-1.391,1.342l1.854,1.789h-2.782l-1.855-1.789h-0.464v1.789H46.84V0.583h5.102
			L53.332,1.925z M51.478,2.819l-0.464-0.447h-2.319v0.894h2.319L51.478,2.819z"/>
		<path id="XMLID_210_" d="M54.242,0.023h1.177l-0.531,2.609h-0.873L54.242,0.023z M55.846,0.023h1.168l-0.655,2.609h-0.883
			L55.846,0.023z"/>
	</g>
</g>
<g id="Layer_1">
</g>
</svg>
