<svg version="1.1" xmlns="http://www.w3.org/2000/svg" xmlns:xlink="http://www.w3.org/1999/xlink" width="24" height="32" viewBox="0,0,24,32"><defs><linearGradient x1="231.648" y1="172.832" x2="231.648" y2="187.168" gradientUnits="userSpaceOnUse" id="color-1"><stop offset="0" stop-color="#ffffff"/><stop offset="1" stop-color="#fefefe"/></linearGradient><linearGradient x1="229.146" y1="170.136" x2="229.146" y2="175.137" gradientUnits="userSpaceOnUse" id="color-2"><stop offset="0" stop-color="#ffffff"/><stop offset="1" stop-color="#fefefe"/></linearGradient><linearGradient x1="245.133" y1="183.08" x2="245.133" y2="188.1" gradientUnits="userSpaceOnUse" id="color-3"><stop offset="0" stop-color="#ffffff"/><stop offset="1" stop-color="#fefefe"/></linearGradient></defs><g transform="translate(-228,-164)"><g data-paper-data="{&quot;isPaintingLayer&quot;:true}" fill-rule="nonzero" stroke="none" stroke-width="1" stroke-linecap="butt" stroke-linejoin="miter" stroke-miterlimit="10" stroke-dasharray="" stroke-dashoffset="0" style="mix-blend-mode: normal"><path d="M228,164h24v32h-24z" fill="none"/><g><path d="M244.633,184.467v2.701h-9.265v-2.701c-2.242,-0.498 -3.72,-1.717 -3.72,-4.672c0,-4.706 3.74,-6.963 8.353,-6.963c4.613,0 8.351,2.257 8.351,6.963c0,2.956 -1.479,4.174 -3.719,4.672zM238.913,180.642c0,-1.168 -0.975,-2.114 -2.176,-2.114c-1.203,0 -2.177,0.946 -2.177,2.114c0,1.166 0.974,2.114 2.177,2.114c1.201,0 2.176,-0.948 2.176,-2.114zM240.913,183.012c0,-1.617 -0.912,-2.93 -0.912,-2.93c0,0 -0.912,1.313 -0.912,2.93zM243.264,182.756c1.201,0 2.176,-0.948 2.176,-2.114c0,-1.168 -0.975,-2.114 -2.176,-2.114c-1.203,0 -2.176,0.946 -2.176,2.114c0,1.166 0.973,2.114 2.176,2.114z" fill="url(#color-1)"/><path d="M229.146,173.923l3.156,-0.229l-1.252,-2.494l2.946,1.432l1.233,-2.496l-0.151,3.212c-0.936,0.456 -1.72,1.057 -2.337,1.789z" fill="url(#color-2)"/><path d="M250.35,188.1l-4.576,-2.534l-0.641,1.719v-2.427c1.278,-0.346 2.211,-0.931 2.824,-1.778l1.457,0.465l-1.555,0.87z" fill="url(#color-3)"/></g></g></g></svg>