<?xml version="1.0" encoding="iso-8859-1"?>
<!-- Generator: Adobe Illustrator 19.0.0, SVG Export Plug-In . SVG Version: 6.00 Build 0)  -->
<svg version="1.1" xmlns="http://www.w3.org/2000/svg" xmlns:xlink="http://www.w3.org/1999/xlink" x="0px" y="0px"
	 viewBox="0 0 64 8" style="enable-background:new 0 0 64 8;" xml:space="preserve">
<g id="Layer_3_copy_11">
	<g id="XMLID_307_">
		<path id="XMLID_308_" d="M12.232,2.633H11.35l-0.655-2.609h1.167L12.232,2.633z M13.694,2.633h-0.873l-0.532-2.609h1.177
			L13.694,2.633z"/>
		<path id="XMLID_311_" d="M15.77,0.583h3.71l1.391,1.342v4.92h-1.855V5.503h-2.782v1.342h-1.855v-4.92L15.77,0.583z M18.552,2.372
			h-1.855l-0.464,0.447v0.895h2.782V2.819L18.552,2.372z"/>
		<path id="XMLID_314_" d="M21.798,5.503V1.925l1.391-1.342h3.71l1.391,1.342l-0.927,0.894h0.927v4.026h-5.101L21.798,5.503z
			 M23.653,2.819v1.789l0.464,0.448h2.318V4.608h-1.855V2.819h1.855l-0.463-0.447h-1.855L23.653,2.819z"/>
		<path id="XMLID_317_" d="M31.073,5.056h3.709v1.789h-5.564V0.583h5.564v1.789h-3.709v0.447h3.709v1.789h-3.709V5.056z"/>
		<path id="XMLID_319_" d="M37.564,3.713v3.131H35.71V0.583h1.392l3.246,3.13v-3.13h1.854v6.262h-1.391L37.564,3.713z"/>
		<path id="XMLID_321_" d="M47.304,2.372v4.473h-1.855V2.372H43.13V0.583h6.492v1.789H47.304z"/>
		<path id="XMLID_323_" d="M50.532,0.023h1.177l-0.531,2.609h-0.873L50.532,0.023z M52.136,0.023h1.168l-0.655,2.609h-0.883
			L52.136,0.023z"/>
	</g>
</g>
<g id="Layer_1">
</g>
</svg>
