<?xml version="1.0" encoding="iso-8859-1"?>
<!-- Generator: Adobe Illustrator 19.0.0, SVG Export Plug-In . SVG Version: 6.00 Build 0)  -->
<svg version="1.1" xmlns="http://www.w3.org/2000/svg" xmlns:xlink="http://www.w3.org/1999/xlink" x="0px" y="0px"
	 viewBox="0 0 64 8" style="enable-background:new 0 0 64 8;" xml:space="preserve">
<g id="Layer_3_copy_8">
	<g id="XMLID_252_">
		<path id="XMLID_253_" d="M11.769,2.633h-0.883l-0.655-2.609h1.167L11.769,2.633z M13.23,2.633h-0.873l-0.532-2.609h1.177
			L13.23,2.633z"/>
		<path id="XMLID_256_" d="M19.016,0.583l1.391,1.342l-1.391,1.341l-0.927-0.894h-1.855L15.77,2.819v1.789l0.464,0.448h1.855
			l0.927-0.895l1.391,1.342l-1.391,1.342h-3.71l-1.391-1.342V1.925l1.391-1.342H19.016z"/>
		<path id="XMLID_258_" d="M27.827,1.925v1.789l-1.391,1.342l1.855,1.789h-2.782l-1.855-1.789h-0.464v1.789h-1.855V0.583h5.101
			L27.827,1.925z M25.972,2.819l-0.463-0.447h-2.319v0.894h2.319L25.972,2.819z"/>
		<path id="XMLID_261_" d="M28.754,5.503V1.925l1.391-1.342h3.71l1.391,1.342v3.578l-1.391,1.342h-3.71L28.754,5.503z M30.609,2.819
			v1.789l0.464,0.448h1.855l0.463-0.448V2.819l-0.463-0.447h-1.855L30.609,2.819z"/>
		<path id="XMLID_264_" d="M41.275,6.845h-1.392L39.42,6.397l-0.464,0.447h-1.391l-1.392-1.342v-4.92h1.854v4.025l0.232,0.224
			l0.231-0.224V0.583h1.855v4.025l0.231,0.224l0.232-0.224V0.583h1.854v4.92L41.275,6.845z"/>
		<path id="XMLID_266_" d="M45.448,3.713v3.131h-1.854V0.583h1.392l3.246,3.13v-3.13h1.854v6.262h-1.391L45.448,3.713z"/>
		<path id="XMLID_268_" d="M50.996,0.023h1.177l-0.531,2.609h-0.873L50.996,0.023z M52.6,0.023h1.168l-0.655,2.609h-0.883
			L52.6,0.023z"/>
	</g>
</g>
<g id="Layer_1">
</g>
</svg>
