<?xml version="1.0" encoding="iso-8859-1"?>
<!-- Generator: Adobe Illustrator 19.0.0, SVG Export Plug-In . SVG Version: 6.00 Build 0)  -->
<svg version="1.1" xmlns="http://www.w3.org/2000/svg" xmlns:xlink="http://www.w3.org/1999/xlink" x="0px" y="0px"
	 viewBox="0 0 64 8" style="enable-background:new 0 0 64 8;" xml:space="preserve">
<g id="Layer_3_copy_22">
	<g id="XMLID_533_">
		<path id="XMLID_534_" d="M14.087,2.633h-0.883L12.55,0.023h1.167L14.087,2.633z M15.549,2.633h-0.873l-0.532-2.609h1.177
			L15.549,2.633z"/>
		<path id="XMLID_537_" d="M18.088,4.608v2.237h-1.855V0.583h1.855v2.236l2.319-2.236h2.782l-3.246,3.13l3.246,3.131h-2.782
			L18.088,4.608z"/>
		<path id="XMLID_539_" d="M25.508,6.845h-1.855V0.583h1.855V6.845z"/>
		<path id="XMLID_541_" d="M30.609,2.372v4.473h-1.855V2.372h-2.319V0.583h6.492v1.789H30.609z"/>
		<path id="XMLID_543_" d="M38.029,2.372v4.473h-1.855V2.372h-2.318V0.583h6.492v1.789H38.029z"/>
		<path id="XMLID_545_" d="M41.275,3.713v-3.13h1.854v2.236l0.464,0.447h1.855l0.464-0.447V0.583h1.854v3.13l-1.391,1.342h-0.928
			v1.789h-1.855V5.056h-0.927L41.275,3.713z"/>
		<path id="XMLID_547_" d="M48.678,0.023h1.177l-0.531,2.609H48.45L48.678,0.023z M50.281,0.023h1.168l-0.655,2.609h-0.883
			L50.281,0.023z"/>
	</g>
</g>
<g id="Layer_1">
</g>
</svg>
