<?xml version="1.0" encoding="iso-8859-1"?>
<!-- Generator: Adobe Illustrator 19.0.0, SVG Export Plug-In . SVG Version: 6.00 Build 0)  -->
<svg version="1.1" xmlns="http://www.w3.org/2000/svg" xmlns:xlink="http://www.w3.org/1999/xlink" x="0px" y="0px"
	 viewBox="0 0 64 8" style="enable-background:new 0 0 64 8;" xml:space="preserve">
<g id="Layer_3_copy_20">
	<g id="XMLID_491_">
		<path id="XMLID_492_" d="M8.059,2.633H7.176L6.521,0.023h1.167L8.059,2.633z M9.52,2.633H8.647L8.115,0.023h1.177L9.52,2.633z"/>
		<path id="XMLID_495_" d="M15.306,0.583l1.391,1.342l-1.391,1.341l-0.927-0.894h-1.855L12.06,2.819v1.789l0.464,0.448h1.855
			l0.927-0.895l1.391,1.342l-1.391,1.342h-3.71l-1.391-1.342V1.925l1.391-1.342H15.306z"/>
		<path id="XMLID_497_" d="M17.625,3.713v-3.13h1.855v2.236l0.464,0.447h1.855l0.463-0.447V0.583h1.855v3.13l-1.391,1.342h-0.927
			v1.789h-1.855V5.056h-0.928L17.625,3.713z"/>
		<path id="XMLID_499_" d="M31.537,1.925v1.341l-0.463,0.447l0.463,0.447v1.342l-1.391,1.342h-5.101V0.583h5.101L31.537,1.925z
			 M29.218,2.372h-2.319v0.447h2.319l0.231-0.223L29.218,2.372z M26.899,4.608v0.448h2.319l0.231-0.224l-0.231-0.224H26.899z"/>
		<path id="XMLID_503_" d="M32.464,5.503V1.925l1.391-1.342h3.71l1.391,1.342v3.578l-1.391,1.342h-3.71L32.464,5.503z M34.318,2.819
			v1.789l0.464,0.448h1.855l0.464-0.448V2.819l-0.464-0.447h-1.855L34.318,2.819z"/>
		<path id="XMLID_506_" d="M46.376,1.925v1.789l-1.391,1.342l1.854,1.789h-2.782l-1.855-1.789h-0.464v1.789h-1.854V0.583h5.102
			L46.376,1.925z M44.521,2.819l-0.464-0.447h-2.319v0.894h2.319L44.521,2.819z"/>
		<path id="XMLID_509_" d="M47.304,5.503V1.925l1.392-1.342h3.71l1.391,1.342l-0.928,0.894h0.928v4.026h-5.101L47.304,5.503z
			 M49.158,2.819v1.789l0.464,0.448h2.319V4.608h-1.855V2.819h1.855l-0.464-0.447h-1.855L49.158,2.819z"/>
		<path id="XMLID_512_" d="M54.706,0.023h1.177l-0.531,2.609h-0.873L54.706,0.023z M56.31,0.023h1.168l-0.655,2.609h-0.883
			L56.31,0.023z"/>
	</g>
</g>
<g id="Layer_1">
</g>
</svg>
