<svg version="1.1" xmlns="http://www.w3.org/2000/svg" xmlns:xlink="http://www.w3.org/1999/xlink" width="16.75" height="16.75" viewBox="0,0,16.75,16.75"><g transform="translate(-231.625,-171.625)"><g data-paper-data="{&quot;isPaintingLayer&quot;:true}" fill="#ffffff" fill-rule="nonzero" stroke="none" stroke-width="1" stroke-linecap="butt" stroke-linejoin="miter" stroke-miterlimit="10" stroke-dasharray="" stroke-dashoffset="0" style="mix-blend-mode: normal"><path d="M243.421,183.071v1.444h-7v-1.444c-1,-0.342 -2.331,-1.18 -2.331,-3.212c0,-3.236 2.799,-4.788 5.97,-4.788c3.171,0 5.8,1.552 5.8,4.788c0,2.032 -1.44,2.87 -2.439,3.212zM239.252,180.441c0,-0.803 -0.67,-1.453 -1.496,-1.453c-0.827,0 -1.497,0.65 -1.497,1.453c0,0.802 0.67,1.454 1.497,1.454c0.826,0 1.497,-0.652 1.496,-1.454zM240.628,182.515c0,-2 -0.627,-2.015 -0.627,-2.015c0,0 -0.627,0.015 -0.627,2.015zM243.74,180.441c0,-0.803 -0.67,-1.453 -1.496,-1.453c-0.827,0 -1.496,0.65 -1.496,1.453c0,0.802 0.669,1.454 1.496,1.454c0.826,0 1.496,-0.652 1.496,-1.454z"/><path d="M233.956,173.938l-0.705,-0.709c0.51,-0.507 1.103,-0.904 1.762,-1.18l0.386,0.923c-0.539,0.225 -1.024,0.55 -1.443,0.966z"/><path d="M232.626,182.889c0.002,0.587 0.116,1.159 0.341,1.7l-0.924,0.383c-0.275,-0.662 -0.416,-1.362 -0.417,-2.081z"/><path d="M231.625,180.949v-1.941h1v1.941z"/><path d="M232.062,174.983l0.92,0.392c-0.23,0.539 -0.349,1.11 -0.356,1.697l-1,-0.012c0.008,-0.718 0.155,-1.417 0.436,-2.077z"/><path d="M237.125,172.625l-0.029,-1h1.941v1z"/><path d="M246.052,173.947c-0.418,-0.417 -0.902,-0.743 -1.44,-0.971l0.389,-0.921c0.657,0.277 1.249,0.676 1.759,1.185z"/><path d="M242.919,172.625h-1.941v-1h1.897z"/><path d="M247.375,177.086c-0.005,-0.587 -0.123,-1.158 -0.352,-1.698l0.922,-0.389c0.279,0.661 0.424,1.36 0.43,2.078z"/><path d="M247.375,182.902l1,0.006c-0.004,0.719 -0.147,1.419 -0.424,2.08l-0.922,-0.387c0.226,-0.54 0.342,-1.111 0.346,-1.699z"/><path d="M246.062,186.045l0.709,0.705c-0.507,0.509 -1.097,0.91 -1.754,1.19l-0.393,-0.92c0.538,-0.23 1.023,-0.558 1.438,-0.975z"/><path d="M247.375,180.963v-1.941h1v1.941z"/><path d="M242.875,187.375l0.059,1h-2v-1z"/><path d="M237.072,187.374l1.921,0.001v1h-1.868l-0.073,-0.501z"/><path d="M233.929,186.034c0.415,0.418 0.898,0.749 1.435,0.98l-0.395,0.918c-0.656,-0.281 -1.245,-0.683 -1.751,-1.195z"/></g></g></svg>