<?xml version="1.0" encoding="iso-8859-1"?>
<!-- Generator: Adobe Illustrator 19.0.0, SVG Export Plug-In . SVG Version: 6.00 Build 0)  -->
<svg version="1.1" xmlns="http://www.w3.org/2000/svg" xmlns:xlink="http://www.w3.org/1999/xlink" x="0px" y="0px"
	 viewBox="0 0 64 8" style="enable-background:new 0 0 64 8;" xml:space="preserve">
<g id="Layer_3_copy_40">
	<g id="XMLID_889_">
		<path id="XMLID_890_" d="M15.942,2.633H15.06l-0.655-2.609h1.167L15.942,2.633z M17.404,2.633h-0.873l-0.532-2.609h1.177
			L17.404,2.633z"/>
		<path id="XMLID_893_" d="M18.088,5.503V1.925l1.391-1.342h3.71l1.391,1.342l-0.927,0.894h0.927v4.026h-5.101L18.088,5.503z
			 M19.943,2.819v1.789l0.464,0.448h2.318V4.608h-1.855V2.819h1.855l-0.463-0.447h-1.855L19.943,2.819z"/>
		<path id="XMLID_896_" d="M25.508,5.503V1.925l1.391-1.342h3.71L32,1.925v3.578l-1.391,1.342h-3.71L25.508,5.503z M27.363,2.819
			v1.789l0.464,0.448h1.855l0.463-0.448V2.819l-0.463-0.447h-1.855L27.363,2.819z"/>
		<path id="XMLID_899_" d="M32.928,0.583h1.854v4.473h3.71v1.789h-5.564V0.583z"/>
		<path id="XMLID_901_" d="M39.42,0.583h5.102l1.391,1.342v3.578l-1.391,1.342H39.42V0.583z M41.274,2.372v2.684h2.319l0.464-0.448
			V2.819l-0.464-0.447H41.274z"/>
		<path id="XMLID_904_" d="M46.822,0.023h1.177l-0.531,2.609h-0.873L46.822,0.023z M48.426,0.023h1.168l-0.655,2.609h-0.883
			L48.426,0.023z"/>
	</g>
</g>
<g id="Layer_1">
</g>
</svg>
