<svg version="1.1" xmlns="http://www.w3.org/2000/svg" xmlns:xlink="http://www.w3.org/1999/xlink" width="38.8" height="6.4" viewBox="0,0,38.8,6.4"><g transform="translate(-220.6,-176.8)"><g data-paper-data="{&quot;isPaintingLayer&quot;:true}" fill="#ffffff" fill-rule="nonzero" stroke="none" stroke-width="1" stroke-linecap="butt" stroke-linejoin="miter" stroke-miterlimit="10" stroke-dasharray="" stroke-dashoffset="0" style="mix-blend-mode: normal"><g><path d="M225,180.5h-1.6v1.5h-1.2v-1.5h-1.6v-1h1.6v-1.5h1.2v1.5h1.6z"/><path d="M232.9,181.8h-2.9l-0.6,1.3h-1.5l2.8,-6.3h1.4l2.8,6.3h-1.5zM232.5,180.7l-1,-2.4l-1,2.4z"/><path d="M243.2,178.8c0.4,0.4 0.5,0.9 0.5,1.6v2.8h-1.4v-2.5c0,-0.4 -0.1,-0.7 -0.2,-0.9c-0.2,-0.3 -0.4,-0.3 -0.7,-0.3c-0.3,0 -0.6,0.1 -0.8,0.3c-0.2,0.2 -0.3,0.5 -0.3,0.9v2.4h-1.4v-2.5c0,-0.8 -0.3,-1.1 -0.9,-1.1c-0.3,0 -0.6,0.1 -0.8,0.3c-0.2,0.2 -0.3,0.5 -0.3,0.9v2.4h-1.4v-4.8h1.4v0.6c0.2,-0.2 0.4,-0.4 0.7,-0.5c0.3,-0.1 0.5,-0.2 0.9,-0.2c0.3,0 0.6,0.1 0.9,0.2c0.3,0.1 0.5,0.3 0.7,0.6c0.2,-0.3 0.4,-0.4 0.7,-0.6c0.3,-0.2 0.6,-0.2 1,-0.2c0.5,0 1,0.2 1.4,0.6z"/><path d="M252.6,178.8c0.4,0.4 0.5,0.9 0.5,1.6v2.8h-1.4v-2.5c0,-0.4 -0.1,-0.7 -0.2,-0.9c-0.2,-0.3 -0.4,-0.3 -0.7,-0.3c-0.3,0 -0.6,0.1 -0.8,0.3c-0.2,0.2 -0.3,0.5 -0.3,0.9v2.4h-1.4v-2.5c0,-0.8 -0.3,-1.1 -0.9,-1.1c-0.3,0 -0.6,0.1 -0.8,0.3c-0.2,0.2 -0.3,0.5 -0.3,0.9v2.4h-1.4v-4.8h1.3v0.6c0.2,-0.2 0.4,-0.4 0.7,-0.5c0.3,-0.1 0.5,-0.2 0.9,-0.2c0.3,0 0.6,0.1 0.9,0.2c0.3,0.1 0.5,0.3 0.7,0.6c0.2,-0.3 0.4,-0.4 0.7,-0.6c0.3,-0.2 0.6,-0.2 1,-0.2c0.7,0 1.1,0.2 1.5,0.6z"/><path d="M255.4,182.9c-0.4,-0.2 -0.7,-0.5 -0.9,-0.9c-0.2,-0.4 -0.3,-0.8 -0.3,-1.3c0,-0.5 0.1,-0.9 0.3,-1.3c0.2,-0.4 0.5,-0.7 0.9,-0.9c0.4,-0.2 0.9,-0.3 1.4,-0.3c0.5,0 1,0.1 1.4,0.3c0.4,0.2 0.7,0.5 0.9,0.9c0.2,0.4 0.3,0.8 0.3,1.3c0,0.5 -0.1,0.9 -0.3,1.3c-0.2,0.4 -0.5,0.7 -0.9,0.9c-0.4,0.2 -0.9,0.3 -1.4,0.3c-0.5,0 -1,-0.1 -1.4,-0.3zM257.6,181.7c0.2,-0.2 0.3,-0.6 0.3,-1c0,-0.4 -0.1,-0.7 -0.3,-1c-0.2,-0.2 -0.5,-0.4 -0.9,-0.4c-0.4,0 -0.7,0.1 -0.9,0.4c-0.2,0.2 -0.3,0.6 -0.3,1c0,0.4 0.1,0.7 0.3,1c0.2,0.2 0.5,0.4 0.9,0.4c0.4,0 0.7,-0.2 0.9,-0.4z"/></g></g></g></svg>