<?xml version="1.0" encoding="iso-8859-1"?>
<!-- Generator: Adobe Illustrator 19.0.0, SVG Export Plug-In . SVG Version: 6.00 Build 0)  -->
<svg version="1.1" xmlns="http://www.w3.org/2000/svg" xmlns:xlink="http://www.w3.org/1999/xlink" x="0px" y="0px"
	 viewBox="0 0 64 8" style="enable-background:new 0 0 64 8;" xml:space="preserve">
<g id="Layer_3_copy_19">
	<g id="XMLID_474_">
		<path id="XMLID_475_" d="M15.015,2.633h-0.883l-0.655-2.609h1.167L15.015,2.633z M16.476,2.633h-0.873l-0.532-2.609h1.177
			L16.476,2.633z"/>
		<path id="XMLID_478_" d="M22.262,0.583l1.391,1.342l-1.391,1.341l-0.927-0.894h-1.855l-0.464,0.447v1.789l0.464,0.448h1.855
			l0.927-0.895l1.391,1.342l-1.391,1.342h-3.71l-1.391-1.342V1.925l1.391-1.342H22.262z"/>
		<path id="XMLID_480_" d="M26.436,4.608v2.237h-1.855V0.583h1.855v2.236h2.782V0.583h1.855v6.262h-1.855V4.608H26.436z"/>
		<path id="XMLID_482_" d="M33.854,6.845H32V0.583h1.854V6.845z"/>
		<path id="XMLID_484_" d="M36.637,5.056h3.71v1.789h-5.564V0.583h5.564v1.789h-3.71v0.447h3.71v1.789h-3.71V5.056z"/>
		<path id="XMLID_486_" d="M46.84,0.583v1.789h-3.71v0.447h3.71v1.789h-3.71v2.237h-1.854V0.583H46.84z"/>
		<path id="XMLID_488_" d="M47.75,0.023h1.177l-0.531,2.609h-0.873L47.75,0.023z M49.354,0.023h1.168l-0.655,2.609h-0.883
			L49.354,0.023z"/>
	</g>
</g>
<g id="Layer_1">
</g>
</svg>
