<?xml version="1.0" encoding="iso-8859-1"?>
<!-- Generator: Adobe Illustrator 19.0.0, SVG Export Plug-In . SVG Version: 6.00 Build 0)  -->
<svg version="1.1" xmlns="http://www.w3.org/2000/svg" xmlns:xlink="http://www.w3.org/1999/xlink" x="0px" y="0px"
	 viewBox="0 0 64 8" style="enable-background:new 0 0 64 8;" xml:space="preserve">
<g id="Layer_3_copy_18">
	<g id="XMLID_452_">
		<path id="XMLID_453_" d="M10.377,2.633H9.495L8.84,0.023h1.167L10.377,2.633z M11.839,2.633h-0.873l-0.532-2.609h1.177
			L11.839,2.633z"/>
		<path id="XMLID_456_" d="M17.625,6.845h-1.391L15.77,6.397l-0.464,0.447h-1.391l-1.391-1.342v-4.92h1.855v4.025l0.232,0.224
			l0.232-0.224V0.583h1.855v4.025l0.231,0.224l0.232-0.224V0.583h1.855v4.92L17.625,6.845z"/>
		<path id="XMLID_458_" d="M21.798,6.845h-1.855V0.583h1.855V6.845z"/>
		<path id="XMLID_460_" d="M25.972,2.372h-3.246V0.583h6.492v1.342l-3.246,3.131h3.246v1.789h-6.492V5.503L25.972,2.372z"/>
		<path id="XMLID_462_" d="M31.537,0.583h3.71l1.391,1.342v4.92h-1.854V5.503H32v1.342h-1.854v-4.92L31.537,0.583z M34.319,2.372
			h-1.855L32,2.819v0.895h2.783V2.819L34.319,2.372z"/>
		<path id="XMLID_465_" d="M44.058,1.925v1.789l-1.391,1.342l1.854,1.789h-2.782l-1.855-1.789H39.42v1.789h-1.854V0.583h5.102
			L44.058,1.925z M42.203,2.819l-0.464-0.447H39.42v0.894h2.319L42.203,2.819z"/>
		<path id="XMLID_468_" d="M44.985,0.583h5.102l1.391,1.342v3.578l-1.391,1.342h-5.102V0.583z M46.84,2.372v2.684h2.319l0.464-0.448
			V2.819l-0.464-0.447H46.84z"/>
		<path id="XMLID_471_" d="M52.388,0.023h1.177l-0.531,2.609H52.16L52.388,0.023z M53.991,0.023h1.168l-0.655,2.609h-0.883
			L53.991,0.023z"/>
	</g>
</g>
<g id="Layer_1">
</g>
</svg>
