<?xml version="1.0" encoding="utf-8"?><!-- Generator: Adobe Illustrator 16.0.0, SVG Export Plug-In . SVG Version: 6.00 Build 0)  --><!DOCTYPE svg PUBLIC "-//W3C//DTD SVG 1.1//EN" "http://www.w3.org/Graphics/SVG/1.1/DTD/svg11.dtd"><svg xmlns="http://www.w3.org/2000/svg" xmlns:xlink="http://www.w3.org/1999/xlink" version="1.1" id="Layer_1" x="0px" y="0px" width="68.96700286865234" height="9.538000106811523" viewBox="-22.483999252319336 6.663000106811523 68.96700286865234 9.538000106811523" enable-background="new 0 0 24 24" xml:space="preserve">
<g>
	<path fill="#FFFFFF" d="M-14.308,11.468v3.094c-0.852,0.647-2.11,1.092-3.262,1.092c-2.482,0-4.414-1.859-4.414-4.258   c0-2.398,1.955-4.233,4.498-4.233c1.199,0,2.398,0.456,3.226,1.175l-0.803,1.043c-0.648-0.6-1.548-0.959-2.423-0.959   c-1.715,0-3.059,1.307-3.059,2.974c0,1.679,1.355,2.987,3.07,2.987c0.624,0,1.331-0.217,1.931-0.576v-2.338H-14.308z" stroke-width="1"/>
	<path fill="#FFFFFF" d="M-8.558,14.814c-0.456,0.563-1.188,0.84-2.11,0.84c-1.38,0-2.243-0.852-2.243-1.979   c0-1.164,0.876-1.907,2.411-1.919h1.931v-0.192c0-0.804-0.516-1.283-1.523-1.283c-0.611,0-1.247,0.216-1.883,0.647l-0.563-0.959   c0.888-0.528,1.535-0.803,2.746-0.803c1.644,0,2.566,0.839,2.579,2.243l0.012,4.186h-1.355V14.814z M-8.569,13.352v-0.588h-1.728   c-0.899,0-1.319,0.241-1.319,0.852c0,0.575,0.468,0.947,1.235,0.947C-9.397,14.563-8.642,14.047-8.569,13.352z" stroke-width="1"/>
	<path fill="#FFFFFF" d="M5.311,11.624v3.97H3.932v-3.586c0-0.972-0.576-1.559-1.512-1.559c-1.091,0.036-1.751,0.875-1.751,1.991   v3.154H-0.71v-3.586c0-0.972-0.563-1.559-1.499-1.559c-1.104,0.036-1.775,0.875-1.775,1.991v3.154h-1.367v-6.38h1.367v1.235   c0.443-0.899,1.26-1.283,2.314-1.283c1.14,0,1.919,0.563,2.219,1.535c0.408-1.068,1.26-1.535,2.423-1.535   C4.435,9.166,5.311,10.101,5.311,11.624z" stroke-width="1"/>
	<path fill="#FFFFFF" d="M12.778,12.931H7.956c0.217,0.983,0.972,1.595,1.979,1.595c0.695,0,1.331-0.264,1.799-0.743l0.731,0.779   c-0.623,0.684-1.535,1.079-2.639,1.079c-1.967,0-3.262-1.308-3.262-3.226c0-1.931,1.331-3.238,3.226-3.25   C12.034,9.166,12.945,10.628,12.778,12.931z M11.578,11.924c-0.048-1.032-0.731-1.655-1.774-1.655   c-1.008,0-1.715,0.636-1.871,1.655H11.578z" stroke-width="1"/>
	<path fill="#FFFFFF" d="M25.604,11.396c0,2.399-1.942,4.258-4.449,4.258s-4.449-1.859-4.449-4.258c0-2.411,1.942-4.233,4.449-4.233   S25.604,8.998,25.604,11.396z M18.144,11.396c0,1.667,1.38,2.987,3.022,2.987c1.644,0,2.986-1.32,2.986-2.987   c0-1.667-1.343-2.962-2.986-2.962C19.511,8.434,18.144,9.729,18.144,11.396z" stroke-width="1"/>
	<path fill="#FFFFFF" d="M28.428,15.594l-2.471-6.38h1.439l1.775,5.025l1.751-5.025h1.379l-2.446,6.38H28.428z" stroke-width="1"/>
	<path fill="#FFFFFF" d="M38.638,12.931h-4.822c0.217,0.983,0.972,1.595,1.979,1.595c0.695,0,1.331-0.264,1.799-0.743l0.731,0.779   c-0.623,0.684-1.535,1.079-2.639,1.079c-1.967,0-3.262-1.308-3.262-3.226c0-1.931,1.331-3.238,3.226-3.25   C37.894,9.166,38.805,10.628,38.638,12.931z M37.438,11.924c-0.048-1.032-0.731-1.655-1.774-1.655   c-1.008,0-1.715,0.636-1.871,1.655H37.438z" stroke-width="1"/>
	<path fill="#FFFFFF" d="M41.46,10.484c0.432-0.863,1.199-1.319,2.207-1.319v1.319c-1.283-0.072-2.099,0.684-2.207,1.775v3.334   h-1.379v-6.38h1.379V10.484z" stroke-width="1"/>
	<path fill="#FFFFFF" d="M45.983,14.898c0,0.467-0.323,0.803-0.755,0.803s-0.756-0.336-0.756-0.803c0-0.456,0.324-0.779,0.756-0.779   S45.983,14.442,45.983,14.898z M45.66,12.919h-0.876l-0.216-3.55V7.306h1.308v2.063L45.66,12.919z" stroke-width="1"/>
</g>
</svg>