<?xml version="1.0" encoding="iso-8859-1"?>
<!-- Generator: Adobe Illustrator 19.0.0, SVG Export Plug-In . SVG Version: 6.00 Build 0)  -->
<svg version="1.1" xmlns="http://www.w3.org/2000/svg" xmlns:xlink="http://www.w3.org/1999/xlink" x="0px" y="0px"
	 viewBox="0 0 64 8" style="enable-background:new 0 0 64 8;" xml:space="preserve">
<g id="Layer_3_copy_2">
	<g id="XMLID_131_">
		<path id="XMLID_132_" d="M15.479,2.633h-0.883l-0.655-2.609h1.167L15.479,2.633z M16.94,2.633h-0.873l-0.532-2.609h1.177
			L16.94,2.633z"/>
		<path id="XMLID_135_" d="M24.117,1.925v1.789l-1.391,1.342l1.855,1.789h-2.782l-1.855-1.789h-0.464v1.789h-1.855V0.583h5.101
			L24.117,1.925z M22.262,2.819l-0.463-0.447h-2.319v0.894h2.319L22.262,2.819z"/>
		<path id="XMLID_138_" d="M25.044,5.503V1.925l1.391-1.342h3.71l1.391,1.342v3.578l-1.391,1.342h-3.71L25.044,5.503z M26.899,2.819
			v1.789l0.464,0.448h1.855l0.463-0.448V2.819l-0.463-0.447h-1.855L26.899,2.819z"/>
		<path id="XMLID_141_" d="M38.956,1.925v1.341l-0.464,0.447l0.464,0.447v1.342l-1.391,1.342h-5.101V0.583h5.101L38.956,1.925z
			 M36.638,2.372h-2.319v0.447h2.319l0.231-0.223L36.638,2.372z M34.318,4.608v0.448h2.319l0.231-0.224l-0.231-0.224H34.318z"/>
		<path id="XMLID_145_" d="M39.884,5.503V1.925l1.392-1.342h3.71l1.391,1.342v3.578l-1.391,1.342h-3.71L39.884,5.503z M41.738,2.819
			v1.789l0.464,0.448h1.855l0.464-0.448V2.819l-0.464-0.447h-1.855L41.738,2.819z"/>
		<path id="XMLID_148_" d="M47.286,0.023h1.177l-0.531,2.609h-0.873L47.286,0.023z M48.89,0.023h1.168l-0.655,2.609H48.52
			L48.89,0.023z"/>
	</g>
</g>
<g id="Layer_1">
</g>
</svg>
