<?xml version="1.0" encoding="iso-8859-1"?>
<!-- Generator: Adobe Illustrator 19.0.0, SVG Export Plug-In . SVG Version: 6.00 Build 0)  -->
<svg version="1.1" id="Layer_1" xmlns="http://www.w3.org/2000/svg" xmlns:xlink="http://www.w3.org/1999/xlink" x="0px" y="0px"
	 viewBox="0 0 69.16 12.97" style="enable-background:new 0 0 69.16 12.97;" xml:space="preserve">
<g id="XMLID_2_">
	<path id="XMLID_3_" d="M13.616,5.575c0.212-0.777,0.61-1.775,0.869-2.201l0.518-0.055c-0.203,0.545-0.443,1.498-0.545,2.164
		L13.616,5.575z M14.994,5.575c0.203-0.777,0.61-1.775,0.86-2.201l0.518-0.055c-0.203,0.545-0.444,1.498-0.545,2.164L14.994,5.575z"
		/>
	<path id="XMLID_6_" d="M17.028,8.297V4.684l1.355-1.355h3.613l1.355,1.355l-0.903,0.903h0.903v4.064h-4.968L17.028,8.297z
		 M18.834,5.587v1.807l0.452,0.451h2.258V7.394h-1.807V5.587h1.807l-0.452-0.452h-1.807L18.834,5.587z"/>
	<path id="XMLID_9_" d="M25.383,3.329h3.613l1.355,1.355v4.968h-1.807V8.297h-2.71v1.354h-1.807V4.684L25.383,3.329z M28.093,5.136
		h-1.807l-0.452,0.452v0.903h2.71V5.587L28.093,5.136z"/>
	<path id="XMLID_12_" d="M33.061,6.039v3.613h-1.807V3.329h1.807l1.355,1.355l1.355-1.355h1.807v6.323h-1.807V6.039l-1.355,1.355
		L33.061,6.039z"/>
	<path id="XMLID_14_" d="M40.288,6.039v3.613h-1.807V3.329h1.807l1.354,1.355l1.356-1.355h1.807v6.323h-1.807V6.039l-1.356,1.355
		L40.288,6.039z"/>
	<path id="XMLID_16_" d="M47.064,3.329h3.613l1.355,1.355v4.968h-1.807V8.297h-2.711v1.354h-1.807V4.684L47.064,3.329z
		 M49.774,5.136h-1.807l-0.452,0.452v0.903h2.711V5.587L49.774,5.136z"/>
	<path id="XMLID_19_" d="M54.176,3.318c-0.213,0.777-0.61,1.766-0.86,2.191l-0.518,0.065c0.194-0.546,0.443-1.507,0.546-2.173
		L54.176,3.318z M55.544,3.318c-0.213,0.777-0.61,1.766-0.859,2.191l-0.519,0.065c0.204-0.546,0.444-1.507,0.546-2.173L55.544,3.318
		z"/>
</g>
</svg>
