<?xml version="1.0" encoding="iso-8859-1"?>
<!-- Generator: Adobe Illustrator 19.0.0, SVG Export Plug-In . SVG Version: 6.00 Build 0)  -->
<svg version="1.1" xmlns="http://www.w3.org/2000/svg" xmlns:xlink="http://www.w3.org/1999/xlink" x="0px" y="0px"
	 viewBox="0 0 64 8" style="enable-background:new 0 0 64 8;" xml:space="preserve">
<g id="Layer_3_copy_33">
	<g id="XMLID_758_">
		<path id="XMLID_759_" d="M10.957,2.633h-0.883L9.419,0.023h1.167L10.957,2.633z M12.418,2.633h-0.873l-0.532-2.609h1.177
			L12.418,2.633z"/>
		<path id="XMLID_762_" d="M14.958,6.845h-1.855V0.583h1.855V6.845z"/>
		<path id="XMLID_764_" d="M17.74,3.713v3.131h-1.855V0.583h1.391l3.246,3.13v-3.13h1.855v6.262h-1.391L17.74,3.713z"/>
		<path id="XMLID_766_" d="M27.942,3.266V0.583h1.855v3.578l-2.782,2.684h-0.928l-2.782-2.684V0.583h1.855v2.683l1.391,1.342
			L27.942,3.266z"/>
		<path id="XMLID_768_" d="M32.58,5.056h3.709v1.789h-5.564V0.583h5.564v1.789H32.58v0.447h3.709v1.789H32.58V5.056z"/>
		<path id="XMLID_770_" d="M43.71,1.925v1.789l-1.391,1.342l1.854,1.789h-2.782l-1.855-1.789h-0.464v1.789h-1.854V0.583h5.102
			L43.71,1.925z M41.855,2.819l-0.464-0.447h-2.319v0.894h2.319L41.855,2.819z"/>
		<path id="XMLID_773_" d="M48.579,2.372v4.473h-1.855V2.372h-2.318V0.583h6.492v1.789H48.579z"/>
		<path id="XMLID_775_" d="M51.808,0.023h1.177l-0.531,2.609H51.58L51.808,0.023z M53.411,0.023h1.168l-0.655,2.609h-0.883
			L53.411,0.023z"/>
	</g>
</g>
<g id="Layer_1">
</g>
</svg>
