<?xml version="1.0" encoding="iso-8859-1"?>
<!-- Generator: Adobe Illustrator 19.0.0, SVG Export Plug-In . SVG Version: 6.00 Build 0)  -->
<svg version="1.1" xmlns="http://www.w3.org/2000/svg" xmlns:xlink="http://www.w3.org/1999/xlink" x="0px" y="0px"
	 viewBox="0 0 64 8" style="enable-background:new 0 0 64 8;" xml:space="preserve">
<g id="Layer_3_copy_44">
	<g id="XMLID_966_">
		<path id="XMLID_967_" d="M11.884,2.633h-0.883l-0.655-2.609h1.167L11.884,2.633z M13.346,2.633h-0.873l-0.532-2.609h1.177
			L13.346,2.633z"/>
		<path id="XMLID_970_" d="M20.522,1.925v1.789l-1.391,1.342h-3.246v1.789H14.03V0.583h5.101L20.522,1.925z M18.667,2.819
			l-0.463-0.447h-2.319v0.894h2.319L18.667,2.819z"/>
		<path id="XMLID_973_" d="M22.841,0.583h3.71l1.391,1.342v4.92h-1.855V5.503h-2.782v1.342H21.45v-4.92L22.841,0.583z M25.624,2.372
			h-1.855l-0.464,0.447v0.895h2.782V2.819L25.624,2.372z"/>
		<path id="XMLID_976_" d="M35.362,1.925v1.789l-1.391,1.342l1.854,1.789h-2.781l-1.855-1.789h-0.464v1.789H28.87V0.583h5.102
			L35.362,1.925z M33.507,2.819l-0.463-0.447h-2.319v0.894h2.319L33.507,2.819z"/>
		<path id="XMLID_979_" d="M40.231,2.372v4.473h-1.855V2.372h-2.318V0.583h6.492v1.789H40.231z"/>
		<path id="XMLID_981_" d="M43.478,3.713v-3.13h1.854v2.236l0.464,0.447h1.855l0.464-0.447V0.583h1.854v3.13l-1.391,1.342h-0.928
			v1.789h-1.855V5.056h-0.927L43.478,3.713z"/>
		<path id="XMLID_983_" d="M50.88,0.023h1.177l-0.531,2.609h-0.873L50.88,0.023z M52.483,0.023h1.168l-0.655,2.609h-0.883
			L52.483,0.023z"/>
	</g>
</g>
<g id="Layer_1">
</g>
</svg>
