<?xml version="1.0" encoding="iso-8859-1"?>
<!-- Generator: Adobe Illustrator 19.0.0, SVG Export Plug-In . SVG Version: 6.00 Build 0)  -->
<svg version="1.1" xmlns="http://www.w3.org/2000/svg" xmlns:xlink="http://www.w3.org/1999/xlink" x="0px" y="0px"
	 viewBox="0 0 64 8" style="enable-background:new 0 0 64 8;" xml:space="preserve">
<g id="Layer_3_copy_4">
	<g id="XMLID_172_">
		<path id="XMLID_173_" d="M13.16,2.633h-0.883l-0.655-2.609h1.167L13.16,2.633z M14.621,2.633h-0.873l-0.532-2.609h1.177
			L14.621,2.633z"/>
		<path id="XMLID_176_" d="M17.161,5.056h3.71v1.789h-5.565V0.583h5.565v1.789h-3.71v0.447h3.71v1.789h-3.71V5.056z"/>
		<path id="XMLID_178_" d="M21.798,0.583h1.855v4.473h3.71v1.789h-5.565V0.583z"/>
		<path id="XMLID_180_" d="M28.291,0.583h5.101l1.391,1.342v3.578l-1.391,1.342h-5.101V0.583z M30.146,2.372v2.684h2.319
			l0.464-0.448V2.819l-0.464-0.447H30.146z"/>
		<path id="XMLID_183_" d="M37.564,5.056h3.71v1.789H35.71V0.583h5.564v1.789h-3.71v0.447h3.71v1.789h-3.71V5.056z"/>
		<path id="XMLID_185_" d="M48.694,1.925v1.789l-1.391,1.342l1.854,1.789h-2.782l-1.855-1.789h-0.464v1.789h-1.854V0.583h5.102
			L48.694,1.925z M46.84,2.819l-0.464-0.447h-2.319v0.894h2.319L46.84,2.819z"/>
		<path id="XMLID_188_" d="M49.604,0.023h1.177L50.25,2.633h-0.873L49.604,0.023z M51.208,0.023h1.168l-0.655,2.609h-0.883
			L51.208,0.023z"/>
	</g>
</g>
<g id="Layer_1">
</g>
</svg>
