<?xml version="1.0" encoding="iso-8859-1"?>
<!-- Generator: Adobe Illustrator 19.0.0, SVG Export Plug-In . SVG Version: 6.00 Build 0)  -->
<svg version="1.1" xmlns="http://www.w3.org/2000/svg" xmlns:xlink="http://www.w3.org/1999/xlink" x="0px" y="0px"
	 viewBox="0 0 64 8" style="enable-background:new 0 0 64 8;" xml:space="preserve">
<g id="Layer_3_copy_42">
	<g id="XMLID_923_">
		<path id="XMLID_924_" d="M12.232,2.633H11.35l-0.655-2.609h1.167L12.232,2.633z M13.694,2.633h-0.873l-0.532-2.609h1.177
			L13.694,2.633z"/>
		<path id="XMLID_927_" d="M19.479,0.583l1.391,1.342l-1.391,1.341l-0.927-0.894h-1.855l-0.464,0.447v1.789l0.464,0.448h1.855
			l0.927-0.895l1.391,1.342l-1.391,1.342h-3.71l-1.391-1.342V1.925l1.391-1.342H19.479z"/>
		<path id="XMLID_929_" d="M21.798,3.713v-3.13h1.855v2.236l0.464,0.447h1.855l0.463-0.447V0.583h1.855v3.13l-1.391,1.342h-0.927
			v1.789h-1.855V5.056h-0.928L21.798,3.713z"/>
		<path id="XMLID_931_" d="M35.71,1.925v1.341l-0.464,0.447l0.464,0.447v1.342l-1.391,1.342h-5.101V0.583h5.101L35.71,1.925z
			 M33.392,2.372h-2.318v0.447h2.318l0.231-0.223L33.392,2.372z M31.073,4.608v0.448h2.318l0.231-0.224l-0.231-0.224H31.073z"/>
		<path id="XMLID_935_" d="M38.492,5.056h3.71v1.789h-5.564V0.583h5.564v1.789h-3.71v0.447h3.71v1.789h-3.71V5.056z"/>
		<path id="XMLID_937_" d="M49.622,1.925v1.789l-1.391,1.342l1.854,1.789h-2.782l-1.855-1.789h-0.464v1.789H43.13V0.583h5.102
			L49.622,1.925z M47.768,2.819l-0.464-0.447h-2.319v0.894h2.319L47.768,2.819z"/>
		<path id="XMLID_940_" d="M50.532,0.023h1.177l-0.531,2.609h-0.873L50.532,0.023z M52.136,0.023h1.168l-0.655,2.609h-0.883
			L52.136,0.023z"/>
	</g>
</g>
<g id="Layer_1">
</g>
</svg>
