<?xml version="1.0" encoding="iso-8859-1"?>
<!-- Generator: Adobe Illustrator 19.0.0, SVG Export Plug-In . SVG Version: 6.00 Build 0)  -->
<svg version="1.1" xmlns="http://www.w3.org/2000/svg" xmlns:xlink="http://www.w3.org/1999/xlink" x="0px" y="0px"
	 viewBox="0 0 64 8" style="enable-background:new 0 0 64 8;" xml:space="preserve">
<g id="Layer_3_copy_13">
	<g id="XMLID_343_">
		<path id="XMLID_344_" d="M8.986,2.633H8.103L7.448,0.023h1.167L8.986,2.633z M10.447,2.633H9.574L9.042,0.023h1.177L10.447,2.633z
			"/>
		<path id="XMLID_347_" d="M16.697,0.583v1.789h-3.71v0.447h3.71v1.789h-3.71v2.237h-1.855V0.583H16.697z"/>
		<path id="XMLID_349_" d="M19.015,0.583h3.71l1.391,1.342v4.92h-1.855V5.503h-2.782v1.342h-1.855v-4.92L19.015,0.583z
			 M21.798,2.372h-1.855l-0.464,0.447v0.895h2.782V2.819L21.798,2.372z"/>
		<path id="XMLID_352_" d="M31.536,1.925v1.789l-1.391,1.342L32,6.845h-2.782l-1.855-1.789h-0.464v1.789h-1.855V0.583h5.101
			L31.536,1.925z M29.681,2.819l-0.463-0.447h-2.319v0.894h2.319L29.681,2.819z"/>
		<path id="XMLID_355_" d="M34.318,3.266v3.579h-1.854V0.583h1.854l1.392,1.342l1.392-1.342h1.854v6.262h-1.854V3.266L35.71,4.608
			L34.318,3.266z"/>
		<path id="XMLID_357_" d="M41.738,5.056h3.71v1.789h-5.564V0.583h5.564v1.789h-3.71v0.447h3.71v1.789h-3.71V5.056z"/>
		<path id="XMLID_359_" d="M52.868,1.925v1.789l-1.391,1.342l1.854,1.789H50.55l-1.855-1.789H48.23v1.789h-1.854V0.583h5.102
			L52.868,1.925z M51.014,2.819L50.55,2.372H48.23v0.894h2.319L51.014,2.819z"/>
		<path id="XMLID_362_" d="M53.778,0.023h1.177l-0.531,2.609h-0.873L53.778,0.023z M55.382,0.023h1.168l-0.655,2.609h-0.883
			L55.382,0.023z"/>
	</g>
</g>
<g id="Layer_1">
</g>
</svg>
