<?xml version="1.0" encoding="iso-8859-1"?>
<!-- Generator: Adobe Illustrator 19.0.0, SVG Export Plug-In . SVG Version: 6.00 Build 0)  -->
<svg version="1.1" id="Layer_1" xmlns="http://www.w3.org/2000/svg" xmlns:xlink="http://www.w3.org/1999/xlink" x="0px" y="0px"
	 viewBox="0 0 69.16 12.97" style="enable-background:new 0 0 69.16 12.97;" xml:space="preserve">
<g id="XMLID_2_">
	<path id="XMLID_3_" d="M25.439,5.196V4.541c0-0.343,0.042-0.625,0.124-0.845c0.083-0.22,0.225-0.406,0.425-0.56
		c0.2-0.153,0.425-0.256,0.675-0.307v0.524c-0.178,0.103-0.279,0.24-0.303,0.411h0.303v1.432H25.439z M27.074,5.196V4.541
		c0-0.343,0.041-0.625,0.124-0.845c0.083-0.22,0.224-0.406,0.422-0.56c0.199-0.153,0.424-0.256,0.677-0.307v0.524
		c-0.178,0.103-0.278,0.24-0.303,0.411h0.303v1.432H27.074z"/>
	<path id="XMLID_6_" d="M28.917,6.528l2.71-2.71l1.355,1.355L31.175,6.98l1.807,1.807l-1.355,1.354l-2.71-2.709V6.528z"/>
	<path id="XMLID_8_" d="M40.208,5.173v1.355L39.757,6.98l0.451,0.452v1.355l-1.354,1.354h-4.969V8.334h4.065l0.226-0.226
		L37.95,7.883h-4.065V6.077h4.065l0.226-0.226L37.95,5.625h-4.065V3.818h4.969L40.208,5.173z"/>
	<path id="XMLID_10_" d="M42.353,3.808c-0.213,0.777-0.61,1.766-0.86,2.191l-0.518,0.065c0.194-0.546,0.443-1.507,0.545-2.173
		L42.353,3.808z M43.721,3.808c-0.213,0.777-0.61,1.766-0.859,2.191l-0.519,0.065c0.204-0.546,0.444-1.507,0.546-2.173L43.721,3.808
		z"/>
</g>
</svg>
