<svg version="1.1" xmlns="http://www.w3.org/2000/svg" xmlns:xlink="http://www.w3.org/1999/xlink" width="18" height="13.1065" viewBox="0,0,18,13.1065"><g transform="translate(-231,-173.8935)"><g data-paper-data="{&quot;isPaintingLayer&quot;:true}" fill="#7f7f7f" fill-rule="nonzero" stroke="none" stroke-width="1" stroke-linecap="butt" stroke-linejoin="miter" stroke-miterlimit="10" stroke-dasharray="" stroke-dashoffset="0" style="mix-blend-mode: normal"><path d="M249,175.062v9.938c0,1.1 -0.9,2 -2,2h-14c-0.962,0 -1.772,-0.689 -1.959,-1.599c-0.027,-0.13 -0.041,-0.263 -0.041,-0.401v-9.937c0,-0.138 0.01,-0.262 0.029,-0.373c0.075,-0.444 0.295,-0.672 0.596,-0.659c0.226,0.009 0.497,0.154 0.789,0.446l3.086,3.086l3.086,-3.086c0.778,-0.778 2.05,-0.778 2.828,0l3.086,3.086l3.086,-3.086c0.777,-0.778 1.414,-0.515 1.414,0.585z" id="ID0.5051906812004745"/></g></g></svg>