<svg version="1.1" xmlns="http://www.w3.org/2000/svg" xmlns:xlink="http://www.w3.org/1999/xlink" width="51.884" height="6.822"><g transform="translate(-214.057,-176.023)"><g data-paper-data="{&quot;isPaintingLayer&quot;:true}" fill="#000000" fill-rule="nonzero" stroke="none" stroke-width="1" stroke-linecap="butt" stroke-linejoin="miter" stroke-miterlimit="10" stroke-dasharray="" stroke-dashoffset="0" font-family="none" font-weight="none" font-size="none" text-anchor="none" style="mix-blend-mode: normal"><g id="XMLID_107_"><path d="M215.595,178.633h-0.883l-0.655,-2.61h1.167zM217.056,178.633h-0.873l-0.532,-2.61h1.177z" id="XMLID_108_"/><path d="M217.741,177.925l1.391,-1.342h5.101v1.789h-4.173l-0.232,0.224l0.232,0.223h2.782l1.391,1.342v1.342l-1.391,1.342h-5.101v-1.789h4.174l0.231,-0.224l-0.231,-0.224h-2.783l-1.391,-1.342z" id="XMLID_111_"/><path d="M225.161,181.503v-3.578l1.391,-1.342h3.71l1.391,1.342v3.578l-1.391,1.342h-3.71zM227.016,178.819v1.789l0.464,0.448h1.855l0.463,-0.448v-1.789l-0.463,-0.447h-1.855z" id="XMLID_113_"/><path d="M232.581,176.583h1.855v4.473h3.71v1.789h-5.565z" id="XMLID_116_"/><path d="M239.073,176.583h5.102l1.391,1.342v3.578l-1.391,1.342h-5.102zM240.927,178.372v2.684h2.32l0.463,-0.448v-1.789l-0.463,-0.447z" id="XMLID_118_"/><path d="M248.347,182.845h-1.854v-6.262h1.854z" id="XMLID_121_"/><path d="M251.13,181.056h3.71v1.789h-5.564v-6.262h5.564v1.789h-3.71v0.447h3.71v1.789h-3.71z" id="XMLID_123_"/><path d="M262.26,177.925v1.789l-1.391,1.342l1.854,1.789h-2.782l-1.855,-1.789h-0.464v1.789h-1.854v-6.262h5.102zM260.405,178.819l-0.464,-0.447h-2.319v0.894h2.319z" id="XMLID_125_"/><path d="M263.17,176.023h1.177l-0.531,2.609h-0.873zM264.773,176.023h1.168l-0.655,2.609h-0.883z" id="XMLID_128_"/></g></g></g></svg>