<?xml version="1.0" encoding="iso-8859-1"?>
<!-- Generator: Adobe Illustrator 19.0.0, SVG Export Plug-In . SVG Version: 6.00 Build 0)  -->
<svg version="1.1" xmlns="http://www.w3.org/2000/svg" xmlns:xlink="http://www.w3.org/1999/xlink" x="0px" y="0px"
	 viewBox="0 0 64 8" style="enable-background:new 0 0 64 8;" xml:space="preserve">
<g id="Layer_1_1_">
	<g id="XMLID_51_">
		<path id="XMLID_52_" d="M12.696,2.633h-0.883l-0.655-2.609h1.167L12.696,2.633z M14.157,2.633h-0.873l-0.532-2.609h1.177
			L14.157,2.633z"/>
		<path id="XMLID_55_" d="M20.407,0.583v1.789h-3.71v0.447h3.71v1.789h-3.71v2.236h-1.855V0.583H20.407z"/>
		<path id="XMLID_57_" d="M27.826,1.925v1.789l-1.391,1.342l1.855,1.789h-2.782l-1.855-1.789h-0.464v1.789h-1.855V0.583h5.101
			L27.826,1.925z M25.971,2.819l-0.463-0.447h-2.319v0.894h2.319L25.971,2.819z"/>
		<path id="XMLID_60_" d="M30.609,5.056h3.709v1.789h-5.564V0.583h5.564v1.789h-3.709v0.447h3.709v1.789h-3.709V5.056z"/>
		<path id="XMLID_62_" d="M35.247,1.925l1.392-1.342h5.101v1.789h-4.174l-0.231,0.224l0.231,0.223h2.783l1.391,1.342v1.342
			l-1.391,1.342h-5.102V5.056h4.174l0.231-0.224l-0.231-0.224h-2.782l-1.392-1.342V1.925z"/>
		<path id="XMLID_64_" d="M44.521,4.608v2.236h-1.854V0.583h1.854v2.236h2.783V0.583h1.854v6.261h-1.854V4.608H44.521z"/>
		<path id="XMLID_66_" d="M50.069,0.024h1.177l-0.531,2.609h-0.873L50.069,0.024z M51.673,0.024h1.168l-0.655,2.609h-0.883
			L51.673,0.024z"/>
	</g>
</g>
<g id="Layer_1">
</g>
</svg>
