<svg xmlns="http://www.w3.org/2000/svg" xmlns:xlink="http://www.w3.org/1999/xlink" version="1.1" width="68.32099914550781" height="15" viewBox="-0.5 -0.5 68.32099914550781 15">
  <!-- Exported by Scratch - http://scratch.mit.edu/ -->
  <g id="ID0.24665927747264504">
    <g id="ID0.41734900511801243">
      <path id="ID0.3343200096860528" fill="#EC1B24" d="M 0.031 0 C 0.014 0 0 0.014 0 0.031 C 0 0.048 0.014 0.048 0.031 0.031 C 0.048 0.014 0.048 0 0.031 0 Z M 9 0 C 8.966 0 8.952 0.014 8.969 0.031 C 8.986 0.048 9.014 0.048 9.032 0.031 C 9.05 0.014 9.034 0 9 0 Z M 16.586 1.477 L 13.5 4.563 L 10.414 1.477 C 9.636 0.699 8.364 0.699 7.586 1.477 L 4.5 4.563 L 1.414 1.477 C 1.122 1.185 0.851 1.04 0.625 1.031 C 0.324 1.018 0.104 1.246 0.029 1.69 C 0.01 1.801 0 1.925 0 2.063 L 0 12 C 0 12.138 0.014 12.271 0.041 12.401 C 0.228 13.311 1.038 14 2 14 L 16 14 C 17.1 14 18 13.1 18 12 L 18 2.062 C 18 0.962 17.363 0.699 16.586 1.477 Z M 17.969 0 C 17.951 0 17.951 0.014 17.969 0.031 C 17.987 0.048 18 0.048 18 0.031 C 18 0.014 17.986 0 17.969 0 Z " stroke-width="1"/>
    </g>
    <g id="ID0.7025797348469496">
      <path id="ID0.6965871467255056" fill="#FFFFFF" d="M 29.174 4.074 L 29.174 11.198 L 27.759 11.198 L 27.759 4.074 L 25.109 4.074 L 25.109 2.803 L 31.837 2.803 L 31.837 4.074 L 29.174 4.074 Z " stroke-width="1"/>
      <path id="ID0.5282894507981837" fill="#FFFFFF" d="M 37.741 8.536 L 32.919 8.536 C 33.136 9.519 33.891 10.131 34.898 10.131 C 35.593 10.131 36.229 9.867 36.697 9.388 L 37.428 10.167 C 36.805 10.851 35.893 11.246 34.789 11.246 C 32.822 11.246 31.527 9.938 31.527 8.019 C 31.527 6.088 32.858 4.781 34.753 4.769 C 36.997 4.77 37.908 6.232 37.741 8.536 Z M 36.541 7.528 C 36.493 6.497 35.81 5.873 34.767 5.873 C 33.759 5.873 33.052 6.509 32.896 7.528 L 36.541 7.528 Z " stroke-width="1"/>
      <path id="ID0.3938089422881603" fill="#FFFFFF" d="M 43.01 10.419 C 42.554 10.982 41.822 11.258 40.899 11.258 C 39.52 11.258 38.657 10.406 38.657 9.279 C 38.657 8.115 39.532 7.372 41.067 7.36 L 42.998 7.36 L 42.998 7.168 C 42.998 6.364 42.482 5.885 41.476 5.885 C 40.864 5.885 40.228 6.101 39.592 6.532 L 39.029 5.573 C 39.917 5.045 40.564 4.769 41.776 4.769 C 43.419 4.769 44.342 5.609 44.354 7.012 L 44.366 11.198 L 43.01 11.198 L 43.01 10.419 Z M 42.997 8.955 L 42.997 8.367 L 41.27 8.367 C 40.371 8.367 39.951 8.607 39.951 9.22 C 39.951 9.795 40.419 10.167 41.186 10.167 C 42.17 10.167 42.926 9.651 42.997 8.955 Z " stroke-width="1"/>
      <path id="ID0.16590303042903543" fill="#FFFFFF" d="M 56.878 7.229 L 56.878 11.199 L 55.499 11.199 L 55.499 7.613 C 55.499 6.641 54.923 6.053 53.987 6.053 C 52.896 6.089 52.236 6.929 52.236 8.044 L 52.236 11.198 L 50.857 11.198 L 50.857 7.612 C 50.857 6.64 50.294 6.052 49.358 6.052 C 48.254 6.088 47.583 6.928 47.583 8.043 L 47.583 11.197 L 46.216 11.197 L 46.216 4.816 L 47.583 4.816 L 47.583 6.051 C 48.026 5.152 48.842 4.768 49.897 4.768 C 51.037 4.768 51.816 5.331 52.116 6.303 C 52.524 5.236 53.376 4.768 54.539 4.768 C 56.002 4.77 56.878 5.705 56.878 7.229 Z " stroke-width="1"/>
      <path id="ID0.5480348663404584" fill="#FFFFFF" d="M 66.937 4.854 C 66.937 5.706 66.29 6.653 65.402 7.613 L 63.219 9.927 L 67.321 9.927 L 67.321 11.198 L 61.348 11.198 L 61.348 10.167 L 64.442 6.845 C 65.054 6.221 65.462 5.537 65.462 5.058 C 65.462 4.386 64.935 3.978 64.059 3.978 C 63.328 3.978 62.476 4.386 61.769 5.034 L 61.205 3.943 C 62.117 3.199 63.184 2.743 64.264 2.743 C 65.845 2.742 66.937 3.57 66.937 4.854 Z " stroke-width="1"/>
    </g>
  </g>
</svg>