<?xml version="1.0" encoding="iso-8859-1"?>
<!-- Generator: Adobe Illustrator 19.0.0, SVG Export Plug-In . SVG Version: 6.00 Build 0)  -->
<svg version="1.1" xmlns="http://www.w3.org/2000/svg" xmlns:xlink="http://www.w3.org/1999/xlink" x="0px" y="0px"
	 viewBox="0 0 64 8" style="enable-background:new 0 0 64 8;" xml:space="preserve">
<g id="Layer_3_copy_3">
	<g id="XMLID_151_">
		<path id="XMLID_152_" d="M8.174,2.633H7.292L6.637,0.023h1.167L8.174,2.633z M9.636,2.633H8.763L8.231,0.023h1.177L9.636,2.633z"
			/>
		<path id="XMLID_155_" d="M12.175,4.608v2.237H10.32V0.583h1.855v2.236h2.782V0.583h1.855v6.262h-1.855V4.608H12.175z"/>
		<path id="XMLID_157_" d="M19.131,0.583h3.71l1.391,1.342v4.92h-1.855V5.503h-2.782v1.342H17.74v-4.92L19.131,0.583z M21.914,2.372
			h-1.855l-0.464,0.447v0.895h2.782V2.819L21.914,2.372z"/>
		<path id="XMLID_160_" d="M28.406,2.372H25.16V0.583h6.492v1.342l-3.246,3.131h3.246v1.789H25.16V5.503L28.406,2.372z"/>
		<path id="XMLID_162_" d="M34.435,3.266v3.579h-1.854V0.583h1.854l1.392,1.342l1.392-1.342h1.854v6.262h-1.854V3.266l-1.392,1.342
			L34.435,3.266z"/>
		<path id="XMLID_164_" d="M41.392,0.583h3.71l1.391,1.342v4.92h-1.854V5.503h-2.783v1.342H40v-4.92L41.392,0.583z M44.174,2.372
			h-1.855l-0.464,0.447v0.895h2.783V2.819L44.174,2.372z"/>
		<path id="XMLID_167_" d="M51.361,2.372v4.473h-1.855V2.372h-2.318V0.583h6.492v1.789H51.361z"/>
		<path id="XMLID_169_" d="M54.59,0.023h1.177l-0.531,2.609h-0.873L54.59,0.023z M56.193,0.023h1.168l-0.655,2.609h-0.883
			L56.193,0.023z"/>
	</g>
</g>
<g id="Layer_1">
</g>
</svg>
