<svg xmlns="http://www.w3.org/2000/svg" xmlns:xlink="http://www.w3.org/1999/xlink" version="1.1" width="67.74400329589844" height="15" viewBox="-0.5 -0.5 67.74400329589844 15">
  <!-- Exported by Scratch - http://scratch.mit.edu/ -->
  <g id="ID0.020926540717482567">
    <g id="ID0.4484116970561445">
      <path id="ID0.3649028241634369" fill="#39B54A" d="M 0.031 0 C 0.014 0 0 0.014 0 0.031 C 0 0.048 0.014 0.048 0.031 0.031 C 0.048 0.014 0.048 0 0.031 0 Z M 9 0 C 8.966 0 8.952 0.014 8.969 0.031 C 8.986 0.048 9.014 0.048 9.032 0.031 C 9.05 0.014 9.034 0 9 0 Z M 16.586 1.477 L 13.5 4.563 L 10.414 1.477 C 9.636 0.699 8.364 0.699 7.586 1.477 L 4.5 4.563 L 1.414 1.477 C 1.122 1.185 0.851 1.04 0.625 1.031 C 0.324 1.018 0.104 1.246 0.029 1.69 C 0.01 1.801 0 1.925 0 2.063 L 0 12 C 0 12.138 0.014 12.271 0.041 12.401 C 0.228 13.311 1.038 14 2 14 L 16 14 C 17.1 14 18 13.1 18 12 L 18 2.062 C 18 0.962 17.363 0.699 16.586 1.477 Z M 17.969 0 C 17.951 0 17.951 0.014 17.969 0.031 C 17.987 0.048 18 0.048 18 0.031 C 18 0.014 17.986 0 17.969 0 Z " stroke-width="1"/>
    </g>
    <g id="ID0.10574093880131841">
      <path id="ID0.41488231532275677" fill="#FFFFFF" d="M 29.174 4.044 L 29.174 11.168 L 27.759 11.168 L 27.759 4.044 L 25.109 4.044 L 25.109 2.773 L 31.837 2.773 L 31.837 4.044 L 29.174 4.044 Z " stroke-width="1"/>
      <path id="ID0.10737078730016947" fill="#FFFFFF" d="M 37.741 8.506 L 32.919 8.506 C 33.136 9.489 33.891 10.101 34.898 10.101 C 35.593 10.101 36.229 9.837 36.697 9.358 L 37.428 10.137 C 36.805 10.821 35.893 11.216 34.789 11.216 C 32.822 11.216 31.527 9.908 31.527 7.99 C 31.527 6.059 32.858 4.752 34.753 4.74 C 36.997 4.739 37.908 6.203 37.741 8.506 Z M 36.541 7.498 C 36.493 6.467 35.81 5.843 34.767 5.843 C 33.759 5.843 33.052 6.479 32.896 7.498 L 36.541 7.498 Z " stroke-width="1"/>
      <path id="ID0.6479138121940196" fill="#FFFFFF" d="M 43.01 10.389 C 42.554 10.952 41.822 11.228 40.899 11.228 C 39.52 11.228 38.657 10.376 38.657 9.249 C 38.657 8.086 39.532 7.342 41.067 7.33 L 42.998 7.33 L 42.998 7.138 C 42.998 6.334 42.482 5.855 41.476 5.855 C 40.864 5.855 40.228 6.071 39.592 6.502 L 39.029 5.543 C 39.917 5.015 40.564 4.739 41.776 4.739 C 43.419 4.739 44.342 5.579 44.354 6.982 L 44.366 11.168 L 43.01 11.168 L 43.01 10.389 Z M 42.997 8.925 L 42.997 8.338 L 41.27 8.338 C 40.371 8.338 39.951 8.577 39.951 9.19 C 39.951 9.765 40.419 10.137 41.186 10.137 C 42.17 10.137 42.926 9.621 42.997 8.925 Z " stroke-width="1"/>
      <path id="ID0.8060184423811734" fill="#FFFFFF" d="M 56.878 7.198 L 56.878 11.168 L 55.499 11.168 L 55.499 7.582 C 55.499 6.61 54.923 6.023 53.987 6.023 C 52.896 6.059 52.236 6.898 52.236 8.014 L 52.236 11.168 L 50.857 11.168 L 50.857 7.582 C 50.857 6.61 50.294 6.023 49.358 6.023 C 48.254 6.059 47.583 6.898 47.583 8.014 L 47.583 11.168 L 46.216 11.168 L 46.216 4.788 L 47.583 4.788 L 47.583 6.023 C 48.026 5.123 48.842 4.739 49.897 4.739 C 51.037 4.739 51.816 5.303 52.116 6.274 C 52.524 5.207 53.376 4.739 54.539 4.739 C 56.002 4.739 56.878 5.675 56.878 7.198 Z " stroke-width="1"/>
      <path id="ID0.2089140499010682" fill="#FFFFFF" d="M 64.382 6.311 C 65.785 6.431 66.744 7.247 66.744 8.566 C 66.744 10.137 65.556 11.228 63.685 11.228 C 62.654 11.228 61.575 10.869 60.855 10.317 L 61.443 9.166 C 62.043 9.729 62.822 10.042 63.589 10.042 C 64.704 10.042 65.353 9.466 65.353 8.603 C 65.353 7.691 64.693 7.224 63.578 7.224 L 62.415 7.224 L 62.415 6.396 L 64.598 4.045 L 61.24 4.045 L 61.24 2.786 L 66.349 2.786 L 66.349 3.673 L 63.951 6.264 L 64.382 6.311 Z " stroke-width="1"/>
    </g>
  </g>
</svg>