<?xml version="1.0" encoding="iso-8859-1"?>
<!-- Generator: Adobe Illustrator 19.0.0, SVG Export Plug-In . SVG Version: 6.00 Build 0)  -->
<svg version="1.1" xmlns="http://www.w3.org/2000/svg" xmlns:xlink="http://www.w3.org/1999/xlink" x="0px" y="0px"
	 viewBox="0 0 64 8" style="enable-background:new 0 0 64 8;" xml:space="preserve">
<g id="Layer_3_copy_26">
	<g id="XMLID_616_">
		<path id="XMLID_617_" d="M15.594,2.633h-0.883l-0.655-2.609h1.167L15.594,2.633z M17.056,2.633h-0.873l-0.532-2.609h1.177
			L17.056,2.633z"/>
		<path id="XMLID_620_" d="M22.841,0.583l1.391,1.342l-1.391,1.341l-0.927-0.894h-1.855l-0.464,0.447v1.789l0.464,0.448h1.855
			l0.927-0.895l1.391,1.342l-1.391,1.342h-3.71L17.74,5.503V1.925l1.391-1.342H22.841z"/>
		<path id="XMLID_622_" d="M26.319,0.583h3.71l1.391,1.342v4.92h-1.855V5.503h-2.782v1.342h-1.855v-4.92L26.319,0.583z
			 M29.102,2.372h-1.855l-0.464,0.447v0.895h2.782V2.819L29.102,2.372z"/>
		<path id="XMLID_625_" d="M34.202,3.266v3.579h-1.854V0.583h1.854l1.392,1.342l1.392-1.342h1.854v6.262h-1.854V3.266l-1.392,1.342
			L34.202,3.266z"/>
		<path id="XMLID_627_" d="M39.768,5.503V1.925l1.392-1.342h3.71l1.391,1.342v3.578l-1.391,1.342h-3.71L39.768,5.503z M41.622,2.819
			v1.789l0.464,0.448h1.855l0.464-0.448V2.819l-0.464-0.447h-1.855L41.622,2.819z"/>
		<path id="XMLID_630_" d="M47.17,0.023h1.177l-0.531,2.609h-0.873L47.17,0.023z M48.773,0.023h1.168l-0.655,2.609h-0.883
			L48.773,0.023z"/>
	</g>
</g>
<g id="Layer_1">
</g>
</svg>
