<svg xmlns="http://www.w3.org/2000/svg" xmlns:xlink="http://www.w3.org/1999/xlink" version="1.1" width="49" height="15" viewBox="0.5 0.5 49 15">
  <!-- Exported by Scratch - http://scratch.mit.edu/ -->
  <g id="ID0.39501510001719">
    <path id="ID0.002543373964726925" fill="#FFFFFF" stroke="#FFFFFF" d="M 1 1 L 49 1 L 49 15 L 1 15 L 1 1 Z " stroke-width="1"/>
    <g id="ID0.16385770309716463">
      <path id="ID0.5672427481040359" fill="#7F7F7F" d="M 18.455 10.799 L 15.473 6.784 L 15.473 10.799 L 14.53 10.799 L 14.53 5.201 L 15.458 5.201 L 18.456 9.222 L 18.456 5.201 L 19.384 5.201 L 19.384 10.799 L 18.455 10.799 Z " stroke-width="1"/>
      <path id="ID0.5120849665254354" fill="#7F7F7F" d="M 21.809 6.049 L 21.809 7.56 L 24.543 7.56 L 24.543 8.408 L 21.809 8.408 L 21.809 9.952 L 24.959 9.952 L 24.959 10.8 L 20.865 10.8 L 20.865 5.201 L 24.863 5.201 L 24.863 6.049 L 21.809 6.049 Z " stroke-width="1"/>
      <path id="ID0.27125779492780566" fill="#7F7F7F" d="M 30.742 10.799 L 29.615 10.799 L 28.103 8.688 L 26.6 10.799 L 25.497 10.799 L 27.535 7.928 L 25.64 5.201 L 26.735 5.201 L 28.102 7.144 L 29.477 5.201 L 30.581 5.201 L 28.702 7.888 L 30.742 10.799 Z " stroke-width="1"/>
      <path id="ID0.812849257607013" fill="#7F7F7F" d="M 33.695 6.049 L 33.695 10.799 L 32.752 10.799 L 32.752 6.049 L 30.986 6.049 L 30.986 5.201 L 35.47 5.201 L 35.47 6.049 L 33.695 6.049 Z " stroke-width="1"/>
    </g>
  </g>
</svg>