<?xml version="1.0" encoding="iso-8859-1"?>
<!-- Generator: Adobe Illustrator 19.0.0, SVG Export Plug-In . SVG Version: 6.00 Build 0)  -->
<svg version="1.1" xmlns="http://www.w3.org/2000/svg" xmlns:xlink="http://www.w3.org/1999/xlink" x="0px" y="0px"
	 viewBox="0 0 64 8" style="enable-background:new 0 0 64 8;" xml:space="preserve">
<g id="Layer_3_copy_14">
	<g id="XMLID_365_">
		<path id="XMLID_366_" d="M10.841,2.633H9.958L9.303,0.023h1.167L10.841,2.633z M12.302,2.633h-0.873l-0.532-2.609h1.177
			L12.302,2.633z"/>
		<path id="XMLID_369_" d="M16.233,2.372h-3.246V0.583h6.492v1.342l-3.246,3.131h3.246v1.789h-6.492V5.503L16.233,2.372z"/>
		<path id="XMLID_371_" d="M20.407,5.503V1.925l1.391-1.342h3.71l1.391,1.342v3.578l-1.391,1.342h-3.71L20.407,5.503z M22.262,2.819
			v1.789l0.464,0.448h1.855l0.463-0.448V2.819l-0.463-0.447h-1.855L22.262,2.819z"/>
		<path id="XMLID_374_" d="M29.682,3.266v3.579h-1.855V0.583h1.855l1.391,1.342l1.392-1.342h1.854v6.262h-1.854V3.266l-1.392,1.342
			L29.682,3.266z"/>
		<path id="XMLID_376_" d="M41.738,1.925v1.341l-0.464,0.447l0.464,0.447v1.342l-1.391,1.342h-5.102V0.583h5.102L41.738,1.925z
			 M39.42,2.372h-2.319v0.447h2.319l0.231-0.223L39.42,2.372z M37.101,4.608v0.448h2.319l0.231-0.224L39.42,4.608H37.101z"/>
		<path id="XMLID_380_" d="M44.521,6.845h-1.854V0.583h1.854V6.845z"/>
		<path id="XMLID_382_" d="M47.303,5.056h3.71v1.789h-5.564V0.583h5.564v1.789h-3.71v0.447h3.71v1.789h-3.71V5.056z"/>
		<path id="XMLID_384_" d="M51.924,0.023h1.177l-0.531,2.609h-0.873L51.924,0.023z M53.527,0.023h1.168L54.04,2.633h-0.883
			L53.527,0.023z"/>
	</g>
</g>
<g id="Layer_1">
</g>
</svg>
