<?xml version="1.0" encoding="iso-8859-1"?>
<!-- Generator: Adobe Illustrator 19.0.0, SVG Export Plug-In . SVG Version: 6.00 Build 0)  -->
<svg version="1.1" xmlns="http://www.w3.org/2000/svg" xmlns:xlink="http://www.w3.org/1999/xlink" x="0px" y="0px"
	 viewBox="0 0 64 8" style="enable-background:new 0 0 64 8;" xml:space="preserve">
<g id="Layer_3_copy_28">
	<g id="XMLID_652_">
		<path id="XMLID_653_" d="M6.783,2.633H5.9L5.246,0.023h1.167L6.783,2.633z M8.245,2.633H7.372L6.84,0.023h1.177L8.245,2.633z"/>
		<path id="XMLID_656_" d="M8.929,1.925l1.391-1.342h5.101v1.789h-4.173l-0.232,0.224l0.232,0.223h2.782l1.391,1.342v1.342
			L14.03,6.845H8.929V5.056h4.174l0.231-0.224l-0.231-0.224H10.32L8.929,3.266V1.925z"/>
		<path id="XMLID_658_" d="M17.508,0.583h3.71l1.391,1.342v4.92h-1.855V5.503h-2.782v1.342h-1.855v-4.92L17.508,0.583z
			 M20.291,2.372h-1.855l-0.464,0.447v0.895h2.782V2.819L20.291,2.372z"/>
		<path id="XMLID_661_" d="M25.392,3.266v3.579h-1.855V0.583h1.855l1.391,1.342l1.391-1.342h1.855v6.262h-1.855V3.266l-1.391,1.342
			L25.392,3.266z"/>
		<path id="XMLID_663_" d="M30.957,5.503v-4.92h1.855v4.025l0.462,0.448h1.855l0.465-0.448V0.583h1.854v4.92l-1.391,1.342h-3.709
			L30.957,5.503z"/>
		<path id="XMLID_665_" d="M44.869,1.925v1.789l-1.391,1.342l1.854,1.789h-2.782l-1.855-1.789h-0.464v1.789h-1.854V0.583h5.102
			L44.869,1.925z M43.015,2.819l-0.464-0.447h-2.319v0.894h2.319L43.015,2.819z"/>
		<path id="XMLID_668_" d="M47.188,0.583h3.71l1.391,1.342v4.92h-1.854V5.503h-2.783v1.342h-1.854v-4.92L47.188,0.583z
			 M49.971,2.372h-1.855l-0.464,0.447v0.895h2.783V2.819L49.971,2.372z"/>
		<path id="XMLID_671_" d="M55.071,6.845h-1.854V0.583h1.854V6.845z"/>
		<path id="XMLID_673_" d="M55.981,0.023h1.177l-0.531,2.609h-0.873L55.981,0.023z M57.585,0.023h1.168l-0.655,2.609h-0.883
			L57.585,0.023z"/>
	</g>
</g>
<g id="Layer_1">
</g>
</svg>
