<?xml version="1.0" encoding="iso-8859-1"?>
<!-- Generator: Adobe Illustrator 19.0.0, SVG Export Plug-In . SVG Version: 6.00 Build 0)  -->
<svg version="1.1" xmlns="http://www.w3.org/2000/svg" xmlns:xlink="http://www.w3.org/1999/xlink" x="0px" y="0px"
	 viewBox="0 0 64 8" style="enable-background:new 0 0 64 8;" xml:space="preserve">
<g id="Layer_3_copy_47">
	<g id="XMLID_1028_">
		<path id="XMLID_1029_" d="M5.74,2.633H4.857L4.202,0.023H5.37L5.74,2.633z M7.201,2.633H6.328L5.796,0.023h1.177L7.201,2.633z"/>
		<path id="XMLID_1032_" d="M7.886,5.503V1.925l1.391-1.342h3.71l1.391,1.342l-0.927,0.894h0.927v4.026H9.277L7.886,5.503z
			 M9.741,2.819v1.789l0.464,0.448h2.318V4.608h-1.855V2.819h1.855L12.06,2.372h-1.855L9.741,2.819z"/>
		<path id="XMLID_1035_" d="M17.161,5.056h3.71v1.789h-5.565V0.583h5.565v1.789h-3.71v0.447h3.71v1.789h-3.71V5.056z"/>
		<path id="XMLID_1037_" d="M23.653,3.713v3.131h-1.855V0.583h1.391l3.246,3.13v-3.13h1.855v6.262h-1.391L23.653,3.713z"/>
		<path id="XMLID_1039_" d="M31.073,5.056h3.709v1.789h-5.564V0.583h5.564v1.789h-3.709v0.447h3.709v1.789h-3.709V5.056z"/>
		<path id="XMLID_1041_" d="M42.202,1.925v1.789l-1.391,1.342l1.854,1.789h-2.782l-1.855-1.789h-0.464v1.789H35.71V0.583h5.102
			L42.202,1.925z M40.348,2.819l-0.464-0.447h-2.319v0.894h2.319L40.348,2.819z"/>
		<path id="XMLID_1044_" d="M44.521,0.583h3.71l1.391,1.342v4.92h-1.854V5.503h-2.783v1.342H43.13v-4.92L44.521,0.583z
			 M47.304,2.372h-1.855l-0.464,0.447v0.895h2.783V2.819L47.304,2.372z"/>
		<path id="XMLID_1047_" d="M50.55,0.583h1.854v4.473h3.71v1.789H50.55V0.583z"/>
		<path id="XMLID_1049_" d="M57.024,0.023h1.177L57.67,2.633h-0.873L57.024,0.023z M58.628,0.023h1.168l-0.655,2.609h-0.883
			L58.628,0.023z"/>
	</g>
</g>
<g id="Layer_1">
</g>
</svg>
