<svg version="1.1" xmlns="http://www.w3.org/2000/svg" xmlns:xlink="http://www.w3.org/1999/xlink" width="76.6" height="7.2" viewBox="0,0,76.6,7.2"><g transform="translate(-201.7,-176.4)"><g data-paper-data="{&quot;isPaintingLayer&quot;:true}" fill="#ffffff" fill-rule="nonzero" stroke="none" stroke-width="1" stroke-linecap="butt" stroke-linejoin="miter" stroke-miterlimit="10" stroke-dasharray="" stroke-dashoffset="0" style="mix-blend-mode: normal"><path d="M205.8,183.5l-1.2,-1.7h-0.1h-1.3v1.7h-1.5v-6.3h2.7c0.6,0 1,0.1 1.4,0.3c0.4,0.2 0.7,0.4 0.9,0.8c0.2,0.3 0.3,0.7 0.3,1.2c0,0.5 -0.1,0.9 -0.3,1.2c-0.2,0.3 -0.5,0.6 -1,0.8l1.4,2zM205.4,178.7c-0.2,-0.2 -0.6,-0.3 -1,-0.3h-1.2v2.2h1.2c0.4,0 0.8,-0.1 1,-0.3c0.2,-0.2 0.3,-0.5 0.3,-0.8c0.1,-0.4 0,-0.6 -0.3,-0.8z"/><path d="M213,181.5h-3.6c0.1,0.3 0.2,0.5 0.5,0.7c0.2,0.2 0.5,0.3 0.9,0.3c0.3,0 0.5,0 0.7,-0.1c0.2,-0.1 0.4,-0.2 0.5,-0.4l0.7,0.8c-0.5,0.5 -1.1,0.8 -2,0.8c-0.5,0 -1,-0.1 -1.4,-0.3c-0.4,-0.2 -0.7,-0.5 -1,-0.9c-0.2,-0.4 -0.4,-0.8 -0.4,-1.3c0,-0.5 0.1,-0.9 0.3,-1.3c0.2,-0.4 0.5,-0.7 0.9,-0.9c0.4,-0.2 0.8,-0.3 1.3,-0.3c0.5,0 0.9,0.1 1.3,0.3c0.4,0.2 0.7,0.5 0.9,0.9c0.2,0.4 0.3,0.8 0.3,1.3c0.1,0 0.1,0.1 0.1,0.4zM209.7,179.9c-0.2,0.2 -0.3,0.4 -0.4,0.7h2.4c0,-0.3 -0.2,-0.5 -0.4,-0.7c-0.2,-0.2 -0.5,-0.3 -0.8,-0.3c-0.3,0 -0.6,0.1 -0.8,0.3z"/><path d="M214,177.8c-0.2,-0.1 -0.2,-0.3 -0.2,-0.6c0,-0.2 0.1,-0.4 0.2,-0.6c0.2,-0.1 0.4,-0.2 0.6,-0.2c0.2,0 0.5,0.1 0.6,0.2c0.2,0.1 0.2,0.3 0.2,0.5c0,0.2 -0.1,0.4 -0.2,0.6c-0.2,0.2 -0.4,0.2 -0.6,0.2c-0.2,0 -0.4,0 -0.6,-0.1zM214,178.7h1.4v4.8h-1.4z"/><path d="M221,179.1c0.4,0.4 0.6,0.9 0.6,1.6v2.8h-1.4v-2.5c0,-0.4 -0.1,-0.7 -0.3,-0.9c-0.2,-0.2 -0.4,-0.3 -0.7,-0.3c-0.4,0 -0.6,0.1 -0.8,0.3c-0.2,0.2 -0.3,0.5 -0.3,1v2.4h-1.4v-4.8h1.3v0.6c0.2,-0.2 0.4,-0.4 0.7,-0.5c0.3,-0.1 0.6,-0.2 0.9,-0.2c0.6,0 1.1,0.2 1.4,0.5z"/><path d="M224.4,178.8h1.2v1.1h-1.2v3.6h-1.4v-3.6h-0.7v-1.1h0.7v-0.2c0,-0.5 0.2,-1 0.5,-1.3c0.3,-0.3 0.8,-0.5 1.4,-0.5c0.2,0 0.4,0 0.6,0.1c0.2,0 0.3,0.1 0.5,0.2l-0.4,1c-0.2,-0.1 -0.3,-0.2 -0.6,-0.2c-0.4,0 -0.6,0.2 -0.6,0.7z"/><path d="M227.2,183.2c-0.4,-0.2 -0.7,-0.5 -0.9,-0.9c-0.3,-0.3 -0.4,-0.7 -0.4,-1.2c0,-0.5 0.1,-0.9 0.3,-1.3c0.2,-0.4 0.5,-0.7 0.9,-0.9c0.4,-0.2 0.9,-0.3 1.4,-0.3c0.5,0 1,0.1 1.4,0.3c0.4,0.2 0.7,0.5 0.9,0.9c0.2,0.4 0.3,0.8 0.3,1.3c0,0.5 -0.1,0.9 -0.3,1.3c-0.2,0.4 -0.5,0.7 -0.9,0.9c-0.4,0.2 -0.9,0.3 -1.4,0.3c-0.5,0 -0.9,-0.1 -1.3,-0.4zM229.4,182c0.2,-0.2 0.3,-0.6 0.3,-1c0,-0.4 -0.1,-0.7 -0.3,-1c-0.2,-0.2 -0.5,-0.4 -0.9,-0.4c-0.4,0 -0.7,0.1 -0.9,0.4c-0.2,0.2 -0.3,0.6 -0.3,1c0,0.4 0.1,0.7 0.3,1c0.2,0.2 0.5,0.4 0.9,0.4c0.4,0 0.7,-0.1 0.9,-0.4z"/><path d="M234.1,178.8c0.3,-0.1 0.6,-0.2 1,-0.2v1.3c-0.2,0 -0.3,0 -0.3,0c-0.4,0 -0.7,0.1 -0.9,0.3c-0.2,0.2 -0.3,0.6 -0.3,1v2.3h-1.4v-4.8h1.3v0.6c0.1,-0.2 0.4,-0.4 0.6,-0.5z"/><path d="M236.9,183.2c-0.4,-0.2 -0.7,-0.5 -1,-0.9c-0.2,-0.4 -0.3,-0.8 -0.3,-1.3c0,-0.5 0.1,-0.9 0.3,-1.3c0.2,-0.4 0.5,-0.7 1,-0.9c0.4,-0.2 0.9,-0.3 1.4,-0.3c0.5,0 1,0.1 1.3,0.3c0.3,0.2 0.7,0.5 0.8,0.9l-1.1,0.6c-0.3,-0.4 -0.6,-0.7 -1.1,-0.7c-0.4,0 -0.7,0.1 -0.9,0.4c-0.2,0.2 -0.4,0.6 -0.4,1c0,0.4 0.1,0.7 0.4,1c0.2,0.2 0.5,0.4 0.9,0.4c0.5,0 0.8,-0.2 1.1,-0.7l1.1,0.6c-0.2,0.4 -0.4,0.7 -0.8,0.9c-0.4,0.2 -0.8,0.4 -1.3,0.4c-0.6,0 -1,-0.1 -1.4,-0.4z"/><path d="M245.9,181.5h-3.6c0.1,0.3 0.2,0.5 0.5,0.7c0.2,0.2 0.5,0.3 0.9,0.3c0.3,0 0.5,0 0.7,-0.1c0.2,-0.1 0.4,-0.2 0.5,-0.4l0.7,0.8c-0.5,0.5 -1.1,0.8 -2,0.8c-0.5,0 -1,-0.1 -1.4,-0.3c-0.4,-0.2 -0.7,-0.5 -1,-0.9c-0.2,-0.4 -0.3,-0.8 -0.3,-1.3c0,-0.5 0.1,-0.9 0.3,-1.3c0.2,-0.4 0.5,-0.7 0.9,-0.9c0.4,-0.2 0.8,-0.3 1.3,-0.3c0.5,0 0.9,0.1 1.3,0.3c0.4,0.2 0.7,0.5 0.9,0.9c0.2,0.4 0.3,0.8 0.3,1.3c0,0 0,0.1 0,0.4zM242.6,179.9c-0.2,0.2 -0.3,0.4 -0.4,0.7h2.4c0,-0.3 -0.2,-0.5 -0.4,-0.7c-0.2,-0.2 -0.5,-0.3 -0.8,-0.3c-0.3,0 -0.6,0.1 -0.8,0.3z"/><path d="M254.4,179.1c0.4,0.4 0.5,0.9 0.5,1.6v2.8h-1.4v-2.5c0,-0.4 -0.1,-0.7 -0.2,-0.9c-0.2,-0.2 -0.4,-0.3 -0.7,-0.3c-0.3,0 -0.6,0.1 -0.8,0.3c-0.2,0.2 -0.3,0.5 -0.3,0.9v2.4h-1.4v-2.5c0,-0.8 -0.3,-1.1 -0.9,-1.1c-0.3,0 -0.6,0.1 -0.8,0.3c-0.2,0.2 -0.3,0.5 -0.3,0.9v2.4h-1.4v-4.8h1.3v0.6c0.2,-0.2 0.4,-0.4 0.7,-0.5c0.3,-0.1 0.5,-0.2 0.9,-0.2c0.3,0 0.6,0.1 0.9,0.2c0.3,0.1 0.5,0.3 0.7,0.6c0.2,-0.3 0.4,-0.4 0.7,-0.6c0.3,-0.1 0.6,-0.2 1,-0.2c0.7,0.1 1.2,0.3 1.5,0.6z"/><path d="M261,181.5h-3.6c0.1,0.3 0.2,0.5 0.5,0.7c0.2,0.2 0.5,0.3 0.9,0.3c0.3,0 0.5,0 0.7,-0.1c0.2,-0.1 0.4,-0.2 0.5,-0.4l0.7,0.8c-0.5,0.5 -1.1,0.8 -2,0.8c-0.5,0 -1,-0.1 -1.4,-0.3c-0.4,-0.2 -0.7,-0.5 -1,-0.9c-0.3,-0.4 -0.4,-0.8 -0.4,-1.3c0,-0.5 0.1,-0.9 0.3,-1.3c0.2,-0.4 0.5,-0.7 0.9,-0.9c0.4,-0.2 0.8,-0.3 1.3,-0.3c0.5,0 0.9,0.1 1.3,0.3c0.4,0.2 0.7,0.5 0.9,0.9c0.2,0.4 0.3,0.8 0.3,1.3c0.1,0 0.1,0.1 0.1,0.4zM257.7,179.9c-0.2,0.2 -0.3,0.4 -0.4,0.7h2.4c0,-0.3 -0.2,-0.5 -0.4,-0.7c-0.2,-0.2 -0.5,-0.3 -0.8,-0.3c-0.3,0 -0.6,0.1 -0.8,0.3z"/><path d="M266.3,179.1c0.4,0.4 0.6,0.9 0.6,1.6v2.8h-1.4v-2.5c0,-0.4 -0.1,-0.7 -0.3,-0.9c-0.2,-0.2 -0.4,-0.3 -0.7,-0.3c-0.4,0 -0.6,0.1 -0.8,0.3c-0.2,0.2 -0.3,0.5 -0.3,1v2.4h-1.5v-4.8h1.3v0.6c0.2,-0.2 0.4,-0.4 0.7,-0.5c0.3,-0.2 0.6,-0.2 1,-0.2c0.6,0 1,0.2 1.4,0.5z"/><path d="M271.2,183.3c-0.1,0.1 -0.3,0.2 -0.5,0.2c-0.2,0 -0.4,0.1 -0.6,0.1c-0.6,0 -1,-0.1 -1.3,-0.4c-0.3,-0.3 -0.5,-0.7 -0.5,-1.3v-2h-0.7v-1.1h0.7v-1.2h1.4v1.2h1.2v1.1h-1.2v2c0,0.2 0.1,0.4 0.2,0.5c0.1,0.1 0.3,0.2 0.4,0.2c0.2,0 0.4,-0.1 0.6,-0.2z"/><path d="M272.5,183.4c-0.4,-0.1 -0.7,-0.2 -0.9,-0.4l0.5,-1c0.2,0.1 0.5,0.2 0.8,0.3c0.3,0.1 0.6,0.1 0.9,0.1c0.6,0 0.9,-0.1 0.9,-0.4c0,-0.1 -0.1,-0.2 -0.2,-0.3c-0.2,-0.1 -0.4,-0.1 -0.7,-0.2c-0.4,-0.1 -0.7,-0.1 -1,-0.2c-0.3,-0.1 -0.5,-0.2 -0.7,-0.4c-0.2,-0.2 -0.3,-0.5 -0.3,-0.8c0,-0.3 0.1,-0.6 0.3,-0.8c0.2,-0.2 0.4,-0.4 0.8,-0.6c0.4,-0.2 0.5,-0.1 1,-0.1c0.3,0 0.7,0 1,0.1c0.3,0.1 0.6,0.2 0.8,0.3l-0.5,1c-0.3,-0.2 -0.8,-0.4 -1.3,-0.4c-0.3,0 -0.5,0 -0.7,0.1c-0.1,0.1 -0.2,0.2 -0.2,0.3c0,0.1 0.1,0.3 0.2,0.3c0.2,0.1 0.4,0.1 0.8,0.2c0.4,0.1 0.7,0.1 1,0.2c0.3,0.1 0.5,0.2 0.7,0.4c0.2,0.2 0.3,0.5 0.3,0.8c0,0.3 -0.1,0.6 -0.3,0.8c-0.2,0.2 -0.4,0.4 -0.8,0.5c-0.3,0.1 -0.8,0.2 -1.2,0.2c-0.5,0.2 -0.8,0.1 -1.2,0z"/><path d="M276.8,183.3c-0.2,-0.2 -0.2,-0.4 -0.2,-0.6c0,-0.2 0.1,-0.4 0.2,-0.6c0.2,-0.2 0.4,-0.2 0.6,-0.2c0.2,0 0.5,0.1 0.6,0.2c0.2,0.2 0.2,0.3 0.2,0.6c0,0.2 -0.1,0.4 -0.2,0.6c-0.1,0.2 -0.3,0.3 -0.6,0.3c-0.3,0 -0.4,-0.1 -0.6,-0.3zM276.6,177.2h1.7l-0.3,4.1h-1.1z"/></g></g></svg>