<?xml version="1.0" encoding="iso-8859-1"?>
<!-- Generator: Adobe Illustrator 19.0.0, SVG Export Plug-In . SVG Version: 6.00 Build 0)  -->
<svg version="1.1" xmlns="http://www.w3.org/2000/svg" xmlns:xlink="http://www.w3.org/1999/xlink" x="0px" y="0px"
	 viewBox="0 0 64 8" style="enable-background:new 0 0 64 8;" xml:space="preserve">
<g id="Layer_3_copy_6">
	<g id="XMLID_233_">
		<path id="XMLID_234_" d="M12.348,2.633h-0.883l-0.655-2.609h1.167L12.348,2.633z M13.81,2.633h-0.873l-0.532-2.609h1.177
			L13.81,2.633z"/>
		<path id="XMLID_237_" d="M19.595,0.583l1.391,1.342l-1.391,1.341l-0.927-0.894h-1.855l-0.464,0.447v1.789l0.464,0.448h1.855
			l0.927-0.895l1.391,1.342l-1.391,1.342h-3.71l-1.391-1.342V1.925l1.391-1.342H19.595z"/>
		<path id="XMLID_239_" d="M21.914,0.583h1.855v4.473h3.71v1.789h-5.565V0.583z"/>
		<path id="XMLID_241_" d="M28.175,5.503V1.925l1.391-1.342h3.71l1.391,1.342v3.578l-1.391,1.342h-3.71L28.175,5.503z M30.03,2.819
			v1.789l0.464,0.448h1.855l0.463-0.448V2.819l-0.463-0.447h-1.855L30.03,2.819z"/>
		<path id="XMLID_244_" d="M42.086,1.925v1.789l-1.391,1.342h-3.247v1.789h-1.854V0.583h5.102L42.086,1.925z M40.231,2.819
			l-0.464-0.447h-2.319v0.894h2.319L40.231,2.819z"/>
		<path id="XMLID_247_" d="M43.014,1.925l1.392-1.342h5.101v1.789h-4.174l-0.231,0.224l0.231,0.223h2.783l1.391,1.342v1.342
			l-1.391,1.342h-5.102V5.056h4.174l0.231-0.224l-0.231-0.224h-2.782l-1.392-1.342V1.925z"/>
		<path id="XMLID_249_" d="M50.416,0.023h1.177l-0.531,2.609h-0.873L50.416,0.023z M52.02,0.023h1.168l-0.655,2.609h-0.883
			L52.02,0.023z"/>
	</g>
</g>
<g id="Layer_1">
</g>
</svg>
