<svg version="1.1" xmlns="http://www.w3.org/2000/svg" xmlns:xlink="http://www.w3.org/1999/xlink" width="86.99136" height="24.86887" viewBox="0,0,86.99136,24.86887"><defs><linearGradient x1="240" y1="171.32387" x2="240" y2="188.67622" gradientUnits="userSpaceOnUse" id="color-1"><stop offset="0" stop-color="#060e25" stop-opacity="0"/><stop offset="1" stop-color="#060e25"/></linearGradient><linearGradient x1="240.83333" y1="171.42539" x2="240.83333" y2="188.77772" gradientUnits="userSpaceOnUse" id="color-2"><stop offset="0" stop-color="#ffffff"/><stop offset="1" stop-color="#ebeff4"/></linearGradient></defs><g transform="translate(-197.17098,-171.30038)"><g data-paper-data="{&quot;isPaintingLayer&quot;:true}" fill-rule="nonzero" stroke="none" stroke-width="1" stroke-linecap="butt" stroke-linejoin="miter" stroke-miterlimit="10" stroke-dasharray="" stroke-dashoffset="0" style="mix-blend-mode: normal"><path d="M284.16234,175.01882v13.63389h-4.50838v-3.71803h-0.02654c0.00346,-0.00466 0.00577,-0.00761 0.00923,-0.01227c-0.0377,-0.01523 -0.07348,-0.03003 -0.11849,-0.04823c0.03693,-0.07403 0.07233,-0.1451 0.11849,-0.2369c-0.12156,-0.04611 -0.23737,-0.08968 -0.4024,-0.15229c0.0427,0.12184 0.05617,0.16033 0.07387,0.21109c-0.07578,-0.01735 -0.13119,-0.02961 -0.17466,-0.03934c0.01846,0.10661 0.03424,0.19755 0.04809,0.27751h-6.28995v3.71802h-4.50838v-13.63304l3.38118,-3.71803h7.64412c0.08233,0.16287 0.16388,0.32489 0.24852,0.49241c0.15619,-0.11041 0.12926,-0.21829 0.04231,-0.35238c-0.03001,-0.04654 -0.0627,-0.09349 -0.0954,-0.14045h1.17681zM269.69198,179.18908c-0.09464,0 -0.17388,0 -0.26698,0c0.01654,-0.24325 -0.15658,-0.17006 -0.25814,-0.19036c-0.04232,-0.00846 -0.09926,0.06768 -0.14927,0.10533c0.31046,-0.14214 0.33738,0.27116 0.54321,0.28767c0.0327,-0.05077 0.07578,-0.11761 0.13119,-0.20264zM270.37406,178.25122c-0.16888,0.31093 -0.16888,0.31093 -0.07732,0.35281c0,0.10957 0,0.20051 0,0.29104c0.02578,0.00043 0.05155,0.00084 0.07732,0.00127c0,-0.21194 0,-0.42346 0,-0.64513zM271.12348,178.85487c-0.08387,-0.14341 -0.14773,-0.25254 -0.23967,-0.40991c-0.08002,0.32278 -0.08002,0.32277 0.23967,0.40991zM272.02907,181.38673c-0.08848,-0.27328 -0.17696,-0.54655 -0.26544,-0.81983c-0.02462,0.01015 -0.04963,0.0203 -0.07425,0.03046c0.02731,0.07614 0.05425,0.15229 0.08618,0.24324c-0.0027,0.00084 -0.04001,0.01142 -0.07694,0.02157c0.10503,0.19332 0.20044,0.36931 0.29623,0.54529c0.01154,-0.00677 0.02308,-0.01354 0.03423,-0.02073zM277.87892,174.76798c-0.0427,0.02707 -0.08348,0.0533 -0.1585,0.10111c0.11734,0.02115 0.2389,0.08333 0.28314,0.04314c0.13696,-0.1248 0.13888,-0.30669 0.0604,-0.50002c-0.32277,0.1764 -0.337,0.20178 -0.18505,0.35577zM276.25931,172.09907c0.08502,-0.01862 0.14042,-0.03088 0.21313,-0.04653c0.04424,0.16879 0.18196,0.17598 0.37047,0.10787c-0.05309,-0.12649 -0.10079,-0.24832 -0.15811,-0.36465c-0.0077,-0.01608 -0.06386,-0.00338 -0.09771,-0.00381c0.05309,0.14848 -0.06963,0.11676 -0.10849,0.10026c-0.13965,-0.05964 -0.17235,0.03172 -0.21929,0.20686zM275.69571,173.1541c0.09695,0.3655 0.10656,0.37226 0.27468,0.26101c-0.0881,-0.08376 -0.1608,-0.15313 -0.27468,-0.26101zM278.56678,180.34945c-0.04116,-0.09053 -0.04116,-0.09053 -0.33123,0.00508c0.02654,0.0901 0.05271,0.17894 0.07925,0.27032c0.08002,-0.08714 0.15888,-0.17345 0.25198,-0.2754zM279.65396,179.97634v-2.47854l-1.12719,-1.23948h-4.50838l-1.12719,1.23948v2.47854h6.76237zM283.26751,184.71345c0.04078,-0.07742 0.08078,-0.15313 0.12233,-0.23182c-0.06079,-0.03723 -0.11118,-0.06811 -0.16157,-0.09899c0.00038,-0.00127 0.00038,-0.00212 0.00038,-0.00339c0.0577,0 0.11618,0 0.19043,0c-0.04847,-0.14721 -0.0904,-0.27539 -0.13272,-0.40357c-0.01,0.00169 -0.01962,0.00297 -0.02924,0.00466c-0.00962,0.13283 -0.01923,0.26608 -0.02885,0.39891c-0.00154,0 -0.00346,0 -0.00539,0l0.005,0.0055c-0.15427,0.05584 -0.14696,0.11887 0.03963,0.32869zM283.75839,187.75166c-0.13427,-0.15695 -0.26045,-0.30543 -0.41318,-0.48437c-0.04078,0.15187 -0.07001,0.25932 -0.09887,0.36719c0.01693,0.00592 0.03424,0.01142 0.05156,0.01692c0.01846,-0.06684 0.03731,-0.13325 0.05578,-0.2001c0.02308,-0.00212 0.04655,-0.00423 0.06963,-0.00635c0.01423,0.12903 0.02847,0.25763 0.04001,0.36297c0.11003,-0.02115 0.19159,-0.0368 0.29507,-0.05626zM212.41148,172.96035l1.87198,2.05847v13.63347h-4.12829c-0.03654,-0.0588 -0.07309,-0.11803 -0.10964,-0.17683c-0.00038,0.06346 0.01385,0.12056 0.02731,0.17683h-0.29776v-1.20987c0.05963,-0.04061 0.11003,-0.10195 0.14735,-0.19671c0.04001,-0.10195 0.11079,-0.18909 0.16581,-0.28385c0.00616,-0.01057 0.00077,-0.02919 0.00077,-0.05838c-0.0377,0.01142 -0.07194,0.022 -0.0981,0.03004c-0.11733,-0.22378 0.06463,-0.31685 0.16773,-0.45011c-0.16504,0.00339 -0.23198,0.0791 -0.24006,0.24578c-0.00885,0.18529 -0.05155,0.35112 -0.1435,0.48183v-2.27718h-6.03412c0.02039,-0.14637 0.04193,-0.29528 -0.11888,-0.41753c0.01539,0.11676 0.17158,0.2407 -0.02578,0.32912c-0.00423,0.00212 0.00539,0.04061 0.01847,0.08841h-0.60207v3.71802h-4.50838v-13.63304l3.38119,-3.71802h9.01713l1.37763,1.51488c-0.04501,0.03469 -0.09079,0.06768 -0.13888,0.09603c0.09348,0.022 0.18465,0.05245 0.27006,0.04865zM200.92337,188.06809c-0.08848,0.15483 -0.14195,0.24832 -0.22351,0.39173c0.08848,0 0.21351,0.00888 0.21466,-0.00127c0.01424,-0.11125 0.00885,-0.22505 0.00885,-0.39046zM200.95992,183.69437c-0.10387,-0.16752 -0.20428,-0.33039 -0.27776,-0.44926c-0.07464,0.06346 -0.14426,0.12268 -0.24544,0.20855c0.09271,-0.0148 0.16004,-0.02538 0.23813,-0.03765c0.05001,0.13325 -0.1058,0.49283 0.28507,0.27835zM201.79512,185.02692c-0.05309,-0.10661 -0.1058,-0.21321 -0.15812,-0.31855c-0.07117,0.03427 -0.12888,0.06218 -0.20005,0.09645c0,-0.13156 0,-0.24747 0,-0.36338c-0.01962,-0.00169 -0.03963,-0.00296 -0.05925,-0.00423c-0.02578,0.1506 -0.05155,0.30077 -0.07886,0.45899c0.14773,0.00169 0.25506,0.05922 0.24468,0.25848c0.02693,-0.06769 0.05347,-0.1358 0.08848,-0.22505c0.05655,0.0495 0.09771,0.08545 0.13926,0.12184c0.0077,-0.00804 0.01577,-0.01608 0.02385,-0.02454zM205.27786,179.99114c-0.10849,0.21278 -0.21697,0.42557 -0.32854,0.64427c0.2616,-0.11887 0.25891,-0.40526 0.32854,-0.64427zM209.77547,179.97634v-2.47854l-1.12719,-1.23948h-4.50838l-1.12719,1.23948v2.47854h6.76237zM210.66183,187.43734c-0.08425,-0.38326 -0.15658,-0.71238 -0.2289,-1.04192c-0.01654,0.00169 -0.03308,0.00296 -0.04962,0.00423c0.02885,0.31347 0.05347,0.62735 0.09271,0.93913c0.00423,0.03258 0.09464,0.05246 0.18581,0.09857zM210.87496,185.76594c-0.00038,-0.0368 -0.00538,-0.07361 -0.00577,-0.11041c-0.09695,-0.03638 -0.20005,-0.07361 -0.31239,-0.11506c0,-0.04188 0,-0.08334 0,-0.12522c0,-0.00127 -0.03886,-0.00296 -0.01924,-0.00423c0.01039,0.05415 -0.05655,0.10787 -0.05809,0.10068c0.0277,0.01015 0.05116,0.01862 0.07733,0.02835c0,0.10914 0,0.21871 0,0.32828c-0.04924,0.03469 -0.0604,0.0956 -0.03924,0.19924c0.01308,0.06599 0.03616,0.13791 0.03924,0.20771c0,0 0,0.00042 0,0.00084c0,0.0038 -0.02462,0.00804 0.00192,0.01227c0,-0.00466 -0.00192,-0.00888 -0.00192,-0.01354c0,-0.13537 0,-0.27116 0,-0.40695c0.02424,-0.01692 0.05501,-0.02962 0.10118,-0.03385c0.07694,-0.00719 0.14157,-0.04526 0.21697,-0.06811zM211.04577,174.51542c0.03385,-0.0533 0.09463,-0.10533 0.09656,-0.15991c0.00692,-0.18275 0.02078,-0.37438 -0.02039,-0.5474c-0.04771,-0.2001 0.01424,-0.28301 0.17351,-0.32785c-0.00116,-0.02073 -0.00231,-0.04146 -0.00347,-0.06218c-0.07502,0.0038 -0.15004,0.00762 -0.22544,0.01142c-0.03463,-0.04992 -0.07002,-0.1011 -0.10503,-0.15187c0.07733,0.4078 0.19928,0.80291 0.03308,1.21791c0.01692,0.00677 0.03425,0.01354 0.05117,0.01989zM211.35815,184.54128c-0.01308,0.00761 -0.03308,0.01523 -0.02193,0.02284c-0.00346,0.00592 -0.00654,0.01185 -0.01,0.01777c0,-0.12733 0,-0.20644 0,-0.20644c0,0 -0.17466,0 -0.17966,0c0.03116,-0.42303 0.06232,-0.52202 0.1031,-0.8211c-0.07464,0.11506 -0.17851,0.13833 -0.18043,0.22801c-0.00692,0.3397 0.01885,0.68023 0.0327,1.02035c0.0277,0.00931 0.0554,0.01904 0.0831,0.02835c0.04732,-0.08292 0.09426,-0.16625 0.14119,-0.24916c0,0.03172 0,0.06388 0,0.1011c0,-0.07614 0.01116,-0.11041 0.03193,-0.14172zM211.73093,182.02297c-0.06886,0.29316 -0.30815,0.23478 -0.49281,0.30331c0.02424,0.04738 0.04348,0.08503 0.06694,0.13071c0.08387,-0.21786 0.50396,-0.00761 0.42587,-0.43403zM212.29722,187.05704c-0.01808,-0.00169 -0.03578,-0.00296 -0.05386,-0.00465c-0.0277,0.38326 -0.05501,0.76696 -0.08271,1.15065c0.01808,0.00169 0.03616,0.00296 0.05424,0.00465c0.02731,-0.38369 0.05502,-0.76738 0.08233,-1.15064zM228.9354,183.69437l4.50914,4.95709h-1.16105c0,-0.13325 0,-0.27286 0,-0.43995c-0.04578,0.18444 -0.07694,0.30924 -0.10925,0.43995h-0.04924c-0.02654,-0.01565 -0.04963,-0.02919 -0.0704,-0.04146c-0.00885,0.01396 -0.01731,0.0275 -0.02616,0.04146h-5.34665l-3.71473,-4.08479c-0.02077,-0.04654 -0.04231,-0.09349 -0.06386,-0.14003c0.00808,0.03215 0.01577,0.06473 0.02423,0.09688l-0.75402,-0.82914h-1.12719v4.95709h-3.42504c-0.00538,-0.02031 -0.00501,-0.03596 -0.01501,-0.05965c-0.04655,0.022 -0.08617,0.04062 -0.12657,0.05965h-0.94176v-7.7051c0.08041,-0.04103 0.16119,-0.08249 0.2416,-0.12353c-0.01346,-0.02876 -0.02732,-0.05754 -0.04117,-0.0863c-0.06694,0.03892 -0.13349,0.07826 -0.20043,0.11718v-9.5529h12.39794l3.38119,3.71802v4.95751zM229.83446,178.37263c0.02693,0.07614 0.05425,0.1523 0.08617,0.24325c-0.00308,0.00084 -0.0404,0.01142 -0.07733,0.02157c0.10503,0.19332 0.20043,0.3693 0.29622,0.54529c0.01154,-0.00677 0.02309,-0.01354 0.03463,-0.02031c-0.08848,-0.27328 -0.17696,-0.54655 -0.26545,-0.81983c-0.02462,0.01015 -0.04963,0.02031 -0.07425,0.03003zM229.26778,176.63016c-0.08387,-0.14341 -0.14772,-0.25255 -0.23967,-0.40992c-0.08002,0.32278 -0.08002,0.32278 0.23967,0.40992zM231.99997,187.37473c0.00923,0.09941 0.04117,0.19629 0.06271,0.28893c0.04924,0.07403 0.10002,0.15017 0.15657,0.2352c0.00885,-0.02453 0.02731,-0.05119 0.02462,-0.07487c-0.01846,-0.17048 -0.03655,-0.34139 -0.06694,-0.50975c-0.005,-0.02707 -0.08002,-0.06599 -0.1058,-0.05457c-0.03385,0.01523 -0.07502,0.07741 -0.07117,0.11506zM222.03876,172.82795c0.03924,0.05584 0.07887,0.1121 0.11811,0.16836c0.05347,-0.08503 0.18312,0.00339 0.22851,-0.13367c0.01692,-0.05119 0.12657,-0.06557 0.25083,-0.12311c-0.02539,-0.04146 -0.08502,-0.18106 -0.11041,-0.17387c-0.18428,0.05246 -0.12465,-0.0973 -0.13119,-0.17936c-0.00423,-0.04992 0.02116,-0.10237 0.03308,-0.15399c-0.02385,-0.00804 -0.0477,-0.01607 -0.07155,-0.02411c-0.03385,0.14552 -0.07925,0.28978 -0.0981,0.43784c-0.01731,0.1341 -0.04539,0.21575 -0.21928,0.18191zM222.00683,173.23449c0.02116,0.22547 0.04231,0.45138 0.06347,0.67685c0.01577,-0.00043 0.03155,-0.00042 0.04732,-0.00084c0,-0.22801 0,-0.45603 0,-0.68404c-0.03693,0.00296 -0.07386,0.0055 -0.11079,0.00804zM219.38082,172.49079c0.06809,0.35789 0.14273,0.41796 0.44511,0.36338c-0.17927,-0.14637 -0.312,-0.25509 -0.44511,-0.36338zM219.37544,186.035c-0.03,-0.16371 -0.06694,-0.32616 -0.08886,-0.49114c-0.02462,-0.18698 -0.05809,-0.37776 -0.04617,-0.56347c0.01039,-0.16498 0.03577,-0.16287 -0.02886,-0.28301c-0.09002,0.40145 -0.03347,0.99793 0.16389,1.33763zM219.55356,183.66095c-0.21966,0.04527 -0.44126,0.08418 -0.65939,0.1396c-0.08118,0.02073 -0.15118,0.0956 -0.23236,0.11802c-0.14888,0.04146 -0.30238,0.06218 -0.40086,0.08122c0.04424,0.06134 0.10002,0.13875 0.16081,0.22251c0.02885,-0.01946 0.06924,-0.04611 0.11848,-0.0791c0.0454,0.06091 0.07887,0.10618 0.10657,0.14299c0.0604,-0.04738 0.10926,-0.08714 0.16004,-0.12437c0.0504,-0.0368 0.10234,-0.07149 0.15196,-0.10576c0.22082,0.25255 0.35431,0.22801 0.43626,-0.07149c0.18928,0.04272 0.21851,-0.01057 0.1585,-0.32362zM219.78977,187.48261c0,-0.54656 0,-1.09269 0,-1.63925c0,0.27963 -0.00847,0.55713 -0.00847,0.83464c0,0.27158 -0.01115,0.54275 0.0027,0.81433c0.01385,-0.00339 0.00577,-0.00634 0.00577,-0.00973zM219.86286,176.56755c-0.02847,-0.19037 -0.05309,-0.38116 -0.0881,-0.56983c-0.00731,-0.03976 -0.04578,-0.08672 -0.0804,-0.10195c-0.02885,-0.01269 -0.10002,0.00888 -0.10464,0.02876c-0.01231,0.05161 -0.01385,0.12099 0.00962,0.16414c0.04617,0.08461 0.15696,0.11633 0.16312,0.23986c0.00423,0.08334 0.01693,0.16626 0.02616,0.24959c0.02462,-0.00339 0.04925,-0.00719 0.07425,-0.01058zM220.03675,184.23162c-0.01577,0.00043 -0.03193,0.00127 -0.04771,0.00212c-0.04232,0.26355 -0.08425,0.52752 -0.12656,0.79107c0.02308,0.00339 0.04578,0.00634 0.06848,0.00972c0.03501,-0.26778 0.0704,-0.53555 0.1058,-0.80291zM220.41992,178.18268c0.02116,0.18867 0.04193,0.37692 0.06309,0.56728c0.13619,-0.1984 0.01809,-0.38453 -0.06309,-0.56728zM222.61236,180.81816c-0.01577,-0.38496 0.0327,-0.77118 -0.06886,-1.15699c-0.0127,-0.04695 -0.06079,-0.10576 -0.06079,-0.16329c0,0.44037 0,0.88075 0,1.32112c0,-0.00043 0.1081,-0.00042 0.12965,-0.00084zM223.39678,182.38339c0.01,0.31262 0.10618,0.63624 -0.09695,0.93278c0.26929,-0.27963 0.30777,-0.78684 0.09695,-0.93278zM227.22922,176.86071c0.24583,-0.05372 0.2866,0.29147 0.47588,0.3067c0.03308,-0.05077 0.07617,-0.11761 0.13119,-0.20264c-0.09464,0 -0.17389,0 -0.26699,0c0.01654,-0.24325 -0.15657,-0.17006 -0.25814,-0.19036c-0.02962,-0.00592 -0.06617,0.02919 -0.10233,0.06388l-0.52743,-0.57998h-5.63519v1.31647c-0.06848,0.02031 -0.13696,0.04146 -0.2062,0.0588c-0.13388,0.03385 -0.24083,0.00338 -0.25467,-0.18614c-0.01924,0.00466 -0.03848,0.0093 -0.05771,0.01396c0.01539,0.15822 0.03078,0.31685 0.0404,0.41753c0.09695,-0.05119 0.18659,-0.11252 0.2843,-0.14637c0.06386,-0.022 0.12926,-0.0385 0.19389,-0.05754v1.06181h1.56691c0,0.21363 0,0.42684 0,0.64047c0.00462,-0.03003 0.0127,-0.05542 0.02732,-0.07107c0.18966,-0.20602 0.01231,-0.38496 0.01885,-0.5694h4.02211l1.12719,-1.23948zM228.51876,176.02649c-0.16888,0.31093 -0.16888,0.31093 -0.07733,0.35281c0,0.10957 0,0.20051 0,0.29104c0.02578,0.00043 0.05155,0.00084 0.07733,0.00127c0,-0.21151 0,-0.42345 0,-0.64512zM234.57096,171.30081h13.52513v4.95708h-9.01676v1.23949h9.01714v4.95835h-1.01909c0.01885,-0.07953 0.03424,-0.1616 0.05656,-0.23901c-0.04039,0.07869 -0.08156,0.15948 -0.12195,0.23901h-5.58209c0.03463,-0.06599 0.06925,-0.13114 0.10464,-0.1984c-0.06079,-0.03723 -0.11118,-0.06811 -0.16157,-0.09899c0.00038,-0.00127 0.00038,-0.00212 0.00038,-0.00339c0.0577,0 0.11618,0 0.19043,0c-0.04847,-0.14721 -0.09041,-0.27539 -0.13272,-0.40357c-0.01,0.00169 -0.01962,0.00296 -0.02924,0.00465c-0.00962,0.13283 -0.01923,0.26609 -0.02885,0.39892c-0.00154,0 -0.00347,0 -0.00539,0l0.00501,0.0055c-0.14426,0.05246 -0.14119,0.11549 0.01231,0.29485h-2.30555v1.23948h5.93333c-0.06155,0.02158 -0.12118,0.04273 -0.18543,0.06515c0.005,0.09561 0.01,0.20136 0.01693,0.34435c0.11003,-0.05626 0.20274,-0.10364 0.312,-0.15948c-0.00692,-0.02792 -0.02116,-0.08504 -0.04501,-0.18022c0.0754,0.05203 0.1131,0.07784 0.1508,0.10365c0.01077,-0.01439 0.02116,-0.02876 0.03194,-0.04315c-0.05078,-0.04738 -0.09887,-0.09222 -0.14042,-0.13072h2.94185v4.95666h-0.11002c-0.00346,-0.0423 -0.00577,-0.08334 -0.01193,-0.12141c-0.0077,-0.0495 -0.02039,-0.09772 -0.03077,-0.14679c-0.02693,0.03554 -0.06464,0.06642 -0.07849,0.10745c-0.01692,0.05034 -0.02885,0.10406 -0.04116,0.16117h-0.56167c0.12965,-0.04654 0.26084,-0.09349 0.41857,-0.14975c-0.1008,-0.0753 -0.15774,-0.1176 -0.22198,-0.16583c-0.09117,0.07191 -0.18581,0.14637 -0.28007,0.22082c0.01385,0.03172 0.0277,0.06304 0.04155,0.09476h-1.52421c0.00423,-0.06599 0.00847,-0.13283 0.0127,-0.19882c-0.02924,0.06811 -0.05732,0.13283 -0.08541,0.19882h-11.05146zM246.65114,187.93356c0.00116,0.11422 0.0577,0.22801 0.08963,0.3418c0.00962,0.00169 0.01884,0.00381 0.02847,0.0055c0.02039,-0.1984 0.04116,-0.39681 0.06271,-0.60367c-0.02731,-0.03469 -0.06886,-0.08756 -0.10656,-0.13537c-0.02693,0.13072 -0.0754,0.26144 -0.07424,0.39173zM246.24065,187.96697c-0.0077,-0.09899 -0.01577,-0.19713 -0.02346,-0.29569c-0.01385,-0.00043 -0.02732,-0.00042 -0.04117,-0.00085c-0.01577,0.04695 -0.03194,0.09392 -0.05501,0.16287c-0.03578,-0.10957 -0.06232,-0.19037 -0.10771,-0.32954c-0.07502,0.34562 -0.00077,0.48225 0.22736,0.46321zM245.4774,186.74104c0.01539,0.11676 0.17157,0.24071 -0.02578,0.32912c-0.01077,0.00466 0.0604,0.23013 0.09348,0.35281c0.01808,-0.00466 0.03578,-0.00931 0.05386,-0.01354c-0.07155,-0.21236 0.13465,-0.4738 -0.12157,-0.66839zM245.25119,186.01595c0.10541,0.04399 0.19928,0.08292 0.29276,0.12184c0.03501,-0.06684 0.07233,-0.13876 0.12772,-0.24493c-0.15773,0.04611 -0.28776,0.08418 -0.42049,0.1231zM243.86471,184.47528c0.0627,0.08799 0.11426,0.16033 0.16542,0.23182c0.11234,-0.20771 0.0327,-0.50891 0.28661,-0.64809c-0.12003,-0.03511 -0.12003,-0.03511 -0.34316,0.43276c-0.02578,-0.03469 -0.04617,-0.06176 -0.07194,-0.09645c-0.01808,0.03976 -0.03308,0.07234 -0.03693,0.07996zM243.15377,187.1205c0.14773,0.00169 0.25506,0.05922 0.24468,0.25848c0.02693,-0.06769 0.05347,-0.1358 0.08848,-0.22505c0.05694,0.0495 0.0981,0.08545 0.13965,0.12184c0.00808,-0.00804 0.01577,-0.01608 0.02385,-0.02411c-0.05271,-0.10661 -0.1058,-0.21321 -0.15812,-0.31854c-0.07117,0.03427 -0.12887,0.06218 -0.20004,0.09645c0,-0.13156 0,-0.24747 0,-0.36338c-0.01962,-0.00127 -0.03963,-0.00296 -0.05925,-0.00423c-0.02578,0.15017 -0.05155,0.30035 -0.07925,0.45856zM242.29164,185.67837c0.09271,-0.0148 0.16004,-0.02538 0.23813,-0.03765c0.0504,0.13325 -0.10541,0.49283 0.28507,0.27836c-0.10349,-0.16752 -0.2039,-0.33039 -0.27738,-0.44926c-0.07464,0.06346 -0.14426,0.12268 -0.24583,0.20855zM241.39104,185.40975c0.01692,0.00592 0.03424,0.01142 0.05155,0.01692c0.01846,-0.06684 0.03732,-0.13325 0.05578,-0.20009c0.02308,-0.00212 0.04656,-0.00423 0.06964,-0.00635c0.01424,0.12903 0.02847,0.25762 0.04001,0.36296c0.11003,-0.02115 0.19159,-0.03638 0.29469,-0.05626c-0.13426,-0.15695 -0.26045,-0.30543 -0.41318,-0.48437c-0.04117,0.15187 -0.07001,0.25931 -0.09848,0.36719zM243.43076,180.24158c0.04078,0.02073 0.07771,0.03976 0.11503,0.0588c-0.11964,0.31347 -0.11964,0.31347 0.02193,0.53725c0.08848,-0.17471 0.22274,-0.32277 0.2239,-0.4721c0.00116,-0.17344 -0.19313,-0.16117 -0.32585,-0.17133c-0.00731,-0.00043 -0.01577,0.02073 -0.035,0.04738zM236.63414,187.51476c-0.03078,-0.00635 -0.06155,-0.01269 -0.09232,-0.01904c-0.03693,0.24705 -0.07349,0.49452 -0.11042,0.742c0.03039,0.00592 0.06078,0.01142 0.09117,0.01692c0.03732,-0.24662 0.07464,-0.49326 0.11157,-0.73988zM237.45242,182.47054c-0.0754,-0.01735 -0.1308,-0.02962 -0.17427,-0.03934c0.02578,0.1506 0.04847,0.28259 0.06424,0.37269c0.09887,0.02411 0.19582,0.04738 0.30007,0.07277c0.03654,-0.04738 0.08502,-0.11041 0.1385,-0.17979c-0.0377,-0.01523 -0.07348,-0.03003 -0.11849,-0.04823c0.03693,-0.07403 0.07233,-0.14468 0.11849,-0.2369c-0.12157,-0.04611 -0.23737,-0.08968 -0.40241,-0.15229c0.0427,0.12184 0.05617,0.16033 0.07387,0.2111zM236.79995,185.50748c-0.09156,0.0736 -0.13119,0.10576 -0.1812,0.14595c-0.0454,-0.12437 -0.08348,-0.22802 -0.11387,-0.31051c-0.04347,0.08418 -0.08348,0.16202 -0.09926,0.19248c0.09656,0.10068 0.19813,0.20729 0.34124,0.35746c0.01846,-0.13198 0.03232,-0.23436 0.05309,-0.38538zM236.38024,178.12981c0.02654,0.0901 0.05271,0.17894 0.07925,0.27032c0.08002,-0.08714 0.15889,-0.17344 0.25237,-0.27539c-0.04155,-0.09053 -0.04155,-0.09053 -0.33162,0.00507zM236.02323,172.54325c-0.0427,0.02707 -0.08348,0.0533 -0.1585,0.1011c0.11733,0.02115 0.2389,0.08334 0.28314,0.04315c0.13696,-0.1248 0.13888,-0.3067 0.06039,-0.50002c-0.32277,0.1764 -0.33661,0.20221 -0.18504,0.35577zM261.62007,175.02899v-3.72818h4.50838v17.35149h-3.38119l-2.07011,-2.27633c0.04539,-0.03299 0.09156,-0.0643 0.13619,-0.09518c0.22082,0.25255 0.35431,0.22801 0.43626,-0.07149c0.18966,0.04315 0.21852,-0.01058 0.15812,-0.32362c-0.21967,0.04527 -0.44126,0.08418 -0.65939,0.1396c-0.08117,0.02073 -0.1508,0.09561 -0.23236,0.11803c-0.01423,0.0038 -0.0277,0.00592 -0.04194,0.0093l-2.51136,-2.76155c0.2239,-0.11464 0.44741,-0.22886 0.67131,-0.3435c-0.01346,-0.02876 -0.02732,-0.05754 -0.04117,-0.0863c-0.22197,0.12987 -0.44434,0.25974 -0.66631,0.38961l-3.0688,-3.37452v8.67468h-2.56253c-0.00231,-0.01015 -0.00462,-0.02115 -0.00692,-0.0313c-0.01654,0.00169 -0.03309,0.00296 -0.04963,0.00423c0.00077,0.00931 0.00154,0.01819 0.00231,0.0275h-1.8916v-17.35107h3.38119l2.49559,2.74421c-0.16735,0.03172 -0.33392,0.06303 -0.51243,0.09729c0.05078,0.11549 0.0731,0.1671 0.11772,0.26863c0.12965,-0.14848 0.26737,-0.26355 0.41894,-0.3397l5.37012,5.9051v-1.39389c0.00538,0.07403 0.01539,0.14722 0.02347,0.22082c0.02462,-0.00339 0.04924,-0.00719 0.07386,-0.01057c-0.02847,-0.19037 -0.05309,-0.38116 -0.0881,-0.56983c-0.00115,-0.00592 -0.00692,-0.01184 -0.00923,-0.01819v-3.11647c0.01962,-0.00296 0.03847,-0.00466 0.06079,-0.00889c-0.0227,-0.01862 -0.03924,-0.03257 -0.06079,-0.04991zM252.71488,187.87899c-0.11926,-0.04442 -0.23351,-0.08883 -0.38009,-0.14341c0.00154,0.00761 -0.08502,-0.04653 -0.09541,-0.10068c-0.01924,0.00127 -0.13426,0.00296 -0.13426,0.00423c0,0.28681 0,0.57405 0,0.86129c0,0.00423 0.12887,0.00847 0.1558,0.01227c0,-0.07403 0.04963,-0.1506 0.03539,-0.22124c-0.03154,-0.15483 0.03808,-0.21998 0.17889,-0.2331c0.07656,-0.00719 0.16043,-0.04526 0.23583,-0.06937c-0.00038,-0.03638 0.00423,-0.07319 0.00385,-0.10999zM252.84991,176.71983c0.01731,0.00677 0.03424,0.01354 0.05155,0.02031c0.03385,-0.0533 0.09464,-0.10533 0.09656,-0.15991c0.00692,-0.18275 0.02078,-0.37438 -0.02039,-0.5474c-0.04771,-0.2001 0.01424,-0.28301 0.17351,-0.32785c-0.00116,-0.02073 -0.00231,-0.04146 -0.00346,-0.06218c-0.07502,0.0038 -0.15004,0.00762 -0.22544,0.01142c-0.03463,-0.04992 -0.07002,-0.1011 -0.10503,-0.15187c0.07733,0.4078 0.19889,0.80333 0.0327,1.21748zM253.19153,186.78841c-0.0177,-0.01184 -0.10695,-0.02411 -0.12464,-0.03638c-0.025,0.03172 0.15234,0.0643 -0.1158,0.1358c-0.00654,-0.13241 -0.0127,-0.26482 -0.01808,-0.39723c0.03501,0 0.07156,0 0.06886,0c0.03154,-0.42303 0.0627,-0.46745 0.10349,-0.76696c-0.07464,0.11549 -0.1785,0.19333 -0.18043,0.28301c-0.00346,0.16117 0.00154,0.32277 0.00808,0.48395c-0.02962,0 -0.05848,0 -0.05848,0c0,0 0,0.22928 0,0.41711c0.03116,-0.00719 0.05271,-0.01311 0.07656,-0.01946c0.00231,0.04654 0.00462,0.09264 0.00654,0.13918c0.0277,0.00931 0.0554,0.01904 0.0831,0.02834c0.0504,-0.08926 0.1008,-0.1781 0.1508,-0.26736zM253.58624,184.24768c-0.06886,0.29316 -0.30815,0.23478 -0.49281,0.30331c0.02424,0.04738 0.04348,0.08504 0.06694,0.13072c0.08387,-0.21786 0.50396,-0.00762 0.42587,-0.43403zM255.72636,174.3919c-0.04501,-0.0588 -0.08387,-0.10957 -0.12772,-0.1671c-0.19428,0.08841 -0.36932,0.16753 -0.54821,0.24875c0.0177,0.02876 0.02654,0.03976 0.03231,0.05287c0.00692,0.0148 0.01077,0.03131 0.01385,0.04019c-0.48973,-0.07234 -0.74556,0.36 -1.09987,0.56982c0.18735,0.04357 0.3647,0.12226 0.50781,-0.11083c0.0627,-0.10237 0.20197,-0.1561 0.31469,-0.21152c0.29891,-0.14637 0.60283,-0.28131 0.90714,-0.42218zM263.97293,175.45117c-0.03693,0.00254 -0.07387,0.00549 -0.11079,0.00804c0.02116,0.22547 0.04232,0.45138 0.06348,0.67685c0.01578,-0.00043 0.03154,-0.00042 0.04732,-0.00085c0,-0.22801 0,-0.45603 0,-0.68404zM264.45689,181.88548c-0.01231,-0.04695 -0.04116,-0.10618 -0.04116,-0.16329c0,0.44037 0,0.88076 0,1.32113c0,0 0.06925,-0.00043 0.09079,-0.00043c-0.01578,-0.38496 0.05193,-0.77118 -0.04963,-1.15741zM265.15513,185.5409c0.26929,-0.2792 0.30777,-0.78642 0.09695,-0.93278c0.01038,0.31262 0.10656,0.63624 -0.09695,0.93278zM264.7585,186.65136c0.06347,0.24832 0.1308,0.49537 0.18774,0.74538c0.01539,0.06726 -0.00462,0.14383 -0.0027,0.21617c0.00731,0.25255 0.01731,0.50552 0.02616,0.75807c0.03154,-0.1616 0.00231,-0.32616 0.03694,-0.47295c0.10887,-0.46365 -0.06771,-0.85495 -0.24814,-1.24667zM264.52229,180.90067c-0.0177,0.00043 -0.03578,0.00127 -0.05385,0.00169c0,0.23309 0,0.46618 0,0.69969c0.00462,-0.03003 0.0127,-0.05542 0.02731,-0.07107c0.21082,-0.22886 -0.03386,-0.4243 0.02654,-0.63032zM263.89407,175.05267c0.03924,0.05584 0.07848,0.1121 0.11811,0.16836c0.05347,-0.08503 0.18312,0.00338 0.22851,-0.13368c0.01693,-0.05119 0.12657,-0.06557 0.25083,-0.1231c-0.02539,-0.04146 -0.08502,-0.18106 -0.11041,-0.17387c-0.18428,0.05246 -0.12465,-0.0973 -0.13119,-0.17936c-0.00423,-0.04992 0.02116,-0.10237 0.03309,-0.15399c-0.02385,-0.00804 -0.04771,-0.01608 -0.07155,-0.02411c-0.03386,0.14552 -0.07925,0.28978 -0.0981,0.43784c-0.01693,0.1341 -0.0454,0.21533 -0.21929,0.18191zM263.7575,171.80675c0.01,0.14679 0.0227,0.32869 0.03539,0.5106c0.05001,-0.03934 0.05578,-0.07487 0.05539,-0.11041c-0.00038,-0.04357 -0.02231,-0.09814 -0.00577,-0.12902c0.1208,-0.22632 0.12311,-0.22463 0.06771,-0.46068c-0.04501,0.05584 -0.09195,0.11422 -0.15273,0.18952zM262.38294,179.68614c0.01539,0.15822 0.03078,0.31685 0.04039,0.41753c0.09695,-0.05119 0.18658,-0.11253 0.28429,-0.14637c0.18658,-0.06473 0.37779,-0.11295 0.56706,-0.16836c-0.00231,-0.01692 -0.005,-0.03427 -0.00731,-0.05119c-0.0377,-0.00423 -0.0781,-0.02031 -0.11311,-0.011c-0.1535,0.04019 -0.30469,0.09222 -0.45857,0.13114c-0.13388,0.03385 -0.24082,0.00338 -0.25467,-0.18614c-0.01923,0.00466 -0.03847,0.00931 -0.05809,0.01439zM262.27561,180.40741c0.02116,0.18867 0.04194,0.37692 0.0631,0.56728c0.1358,-0.1984 0.01769,-0.38496 -0.0631,-0.56728zM261.71778,187.24952c0.02308,0.00339 0.04578,0.00634 0.06848,0.00973c0.03539,-0.26736 0.0704,-0.53513 0.1058,-0.80291c-0.01578,0.00043 -0.03193,0.00127 -0.04771,0.00212c-0.04194,0.26355 -0.08425,0.52752 -0.12657,0.79107z" fill="#ff28d1"/><path d="M282.829,175.04233v13.63389h-4.50838v-3.71803h-0.02654c0.00346,-0.00466 0.00577,-0.00761 0.00923,-0.01227c-0.0377,-0.01523 -0.07348,-0.03003 -0.11849,-0.04823c0.03693,-0.07403 0.07233,-0.1451 0.11849,-0.2369c-0.12157,-0.04611 -0.23737,-0.08968 -0.40241,-0.15229c0.0427,0.12184 0.05617,0.16033 0.07387,0.21109c-0.07578,-0.01735 -0.13119,-0.02961 -0.17466,-0.03934c0.01846,0.10661 0.03423,0.19755 0.04809,0.27751h-6.28995v3.71802h-4.50838v-13.63304l3.38118,-3.71803h7.64412c0.08232,0.16287 0.16388,0.32489 0.24852,0.49241c0.15619,-0.11041 0.12926,-0.21829 0.04231,-0.35238c-0.03,-0.04654 -0.0627,-0.09349 -0.0954,-0.14045h1.17681zM268.35865,179.21257c-0.09464,0 -0.17389,0 -0.26698,0c0.01654,-0.24325 -0.15658,-0.17006 -0.25814,-0.19036c-0.04232,-0.00846 -0.09926,0.06768 -0.14927,0.10533c0.31046,-0.14214 0.33738,0.27116 0.5432,0.28767c0.0327,-0.05077 0.07578,-0.11761 0.13119,-0.20264zM269.04073,178.27471c-0.16888,0.31093 -0.16888,0.31093 -0.07732,0.35281c0,0.10957 0,0.20051 0,0.29104c0.02578,0.00043 0.05155,0.00084 0.07732,0.00127c0,-0.21194 0,-0.42346 0,-0.64513zM269.79014,178.87838c-0.08386,-0.14341 -0.14773,-0.25254 -0.23967,-0.40991c-0.08002,0.32278 -0.08002,0.32277 0.23967,0.40991zM270.69574,181.41021c-0.08848,-0.27328 -0.17696,-0.54655 -0.26544,-0.81983c-0.02462,0.01015 -0.04963,0.0203 -0.07425,0.03046c0.02731,0.07614 0.05425,0.15229 0.08618,0.24324c-0.0027,0.00084 -0.04001,0.01142 -0.07694,0.02157c0.10502,0.19332 0.20043,0.36931 0.29623,0.54529c0.01154,-0.00677 0.02308,-0.01354 0.03423,-0.02073zM276.54558,174.79146c-0.0427,0.02707 -0.08348,0.0533 -0.1585,0.10111c0.11734,0.02115 0.23891,0.08333 0.28314,0.04314c0.13696,-0.1248 0.13888,-0.30669 0.0604,-0.50002c-0.32277,0.1764 -0.337,0.20178 -0.18505,0.35577zM274.92597,172.12257c0.08502,-0.01862 0.14042,-0.03088 0.21313,-0.04653c0.04424,0.16879 0.18196,0.17598 0.37047,0.10787c-0.05309,-0.12649 -0.10079,-0.24832 -0.15811,-0.36465c-0.0077,-0.01608 -0.06386,-0.00338 -0.09771,-0.00381c0.05309,0.14848 -0.06963,0.11676 -0.10848,0.10026c-0.13965,-0.05964 -0.17235,0.03172 -0.21929,0.20686zM274.36238,173.17761c0.09695,0.3655 0.10656,0.37226 0.27468,0.26101c-0.0881,-0.08376 -0.1608,-0.15313 -0.27468,-0.26101zM277.23344,180.37294c-0.04116,-0.09053 -0.04116,-0.09053 -0.33123,0.00508c0.02655,0.0901 0.05271,0.17894 0.07925,0.27032c0.08002,-0.08714 0.15888,-0.17345 0.25198,-0.2754zM278.32062,179.99983v-2.47854l-1.12719,-1.23948h-4.50838l-1.12719,1.23948v2.47854h6.76237zM281.93417,184.73693c0.04078,-0.07742 0.08078,-0.15313 0.12234,-0.23182c-0.06079,-0.03723 -0.11118,-0.06811 -0.16157,-0.09899c0.00038,-0.00127 0.00038,-0.00212 0.00038,-0.00339c0.05771,0 0.11618,0 0.19043,0c-0.04847,-0.14721 -0.0904,-0.27539 -0.13272,-0.40357c-0.01,0.00169 -0.01962,0.00297 -0.02924,0.00466c-0.00962,0.13283 -0.01923,0.26608 -0.02885,0.39891c-0.00154,0 -0.00346,0 -0.00539,0l0.005,0.0055c-0.15427,0.05584 -0.14696,0.11887 0.03963,0.32869zM282.42506,187.77516c-0.13427,-0.15695 -0.26045,-0.30543 -0.41318,-0.48437c-0.04078,0.15187 -0.07002,0.25932 -0.09887,0.36719c0.01693,0.00592 0.03425,0.01142 0.05156,0.01692c0.01846,-0.06684 0.03732,-0.13325 0.05578,-0.2001c0.02308,-0.00212 0.04655,-0.00423 0.06963,-0.00635c0.01423,0.12903 0.02847,0.25763 0.04001,0.36297c0.11002,-0.02115 0.19159,-0.0368 0.29507,-0.05626zM211.07814,172.98386l1.87198,2.05847v13.63347h-4.12829c-0.03654,-0.0588 -0.07309,-0.11803 -0.10964,-0.17683c-0.00038,0.06346 0.01385,0.12056 0.02731,0.17683h-0.29776v-1.20987c0.05963,-0.04061 0.11003,-0.10195 0.14735,-0.19671c0.04001,-0.10195 0.11079,-0.18909 0.16581,-0.28385c0.00616,-0.01057 0.00077,-0.02919 0.00077,-0.05838c-0.0377,0.01142 -0.07194,0.022 -0.0981,0.03004c-0.11733,-0.22378 0.06463,-0.31685 0.16773,-0.45011c-0.16504,0.00339 -0.23198,0.0791 -0.24006,0.24578c-0.00885,0.18529 -0.05155,0.35112 -0.1435,0.48183v-2.27718h-6.03412c0.02039,-0.14637 0.04193,-0.29528 -0.11888,-0.41753c0.01539,0.11676 0.17158,0.2407 -0.02578,0.32912c-0.00423,0.00212 0.00539,0.04061 0.01847,0.08841h-0.60207v3.71802h-4.50838v-13.63304l3.38119,-3.71802h9.01713l1.37763,1.51488c-0.04501,0.03469 -0.09079,0.06768 -0.13888,0.09603c0.09348,0.022 0.18465,0.05245 0.27006,0.04865zM199.59004,188.09159c-0.08848,0.15483 -0.14195,0.24832 -0.22351,0.39173c0.08848,0 0.21351,0.00888 0.21466,-0.00127c0.01424,-0.11125 0.00885,-0.22505 0.00885,-0.39046zM199.62658,183.71785c-0.10387,-0.16752 -0.20428,-0.33039 -0.27776,-0.44926c-0.07464,0.06346 -0.14426,0.12268 -0.24544,0.20855c0.09271,-0.0148 0.16004,-0.02538 0.23813,-0.03765c0.05001,0.13325 -0.1058,0.49283 0.28507,0.27835zM200.46178,185.05041c-0.05309,-0.10661 -0.1058,-0.21321 -0.15812,-0.31855c-0.07117,0.03427 -0.12888,0.06218 -0.20005,0.09645c0,-0.13156 0,-0.24747 0,-0.36338c-0.01962,-0.00169 -0.03963,-0.00296 -0.05925,-0.00423c-0.02578,0.1506 -0.05155,0.30077 -0.07886,0.45899c0.14773,0.00169 0.25506,0.05922 0.24468,0.25848c0.02693,-0.06769 0.05347,-0.1358 0.08848,-0.22505c0.05655,0.0495 0.09771,0.08545 0.13926,0.12184c0.0077,-0.00804 0.01577,-0.01608 0.02385,-0.02454zM203.94453,180.01465c-0.10849,0.21278 -0.21697,0.42557 -0.32854,0.64427c0.2616,-0.11887 0.25891,-0.40526 0.32854,-0.64427zM208.44213,179.99983v-2.47854l-1.12719,-1.23948h-4.50838l-1.12719,1.23948v2.47854h6.76237zM209.3285,187.46085c-0.08425,-0.38326 -0.15658,-0.71238 -0.2289,-1.04192c-0.01654,0.00169 -0.03308,0.00296 -0.04962,0.00423c0.02885,0.31347 0.05347,0.62735 0.09271,0.93913c0.00423,0.03258 0.09464,0.05246 0.18581,0.09857zM209.54163,185.78945c-0.00038,-0.0368 -0.00538,-0.07361 -0.00577,-0.11041c-0.09695,-0.03638 -0.20005,-0.07361 -0.31239,-0.11506c0,-0.04188 0,-0.08334 0,-0.12522c0,-0.00127 -0.03886,-0.00296 -0.01924,-0.00423c0.01039,0.05415 -0.05655,0.10787 -0.05809,0.10068c0.0277,0.01015 0.05116,0.01862 0.07733,0.02835c0,0.10914 0,0.21871 0,0.32828c-0.04924,0.03469 -0.0604,0.0956 -0.03924,0.19924c0.01308,0.06599 0.03616,0.13791 0.03924,0.20771c0,0 0,0.00042 0,0.00084c0,0.0038 -0.02462,0.00804 0.00192,0.01227c0,-0.00466 -0.00192,-0.00888 -0.00192,-0.01354c0,-0.13537 0,-0.27116 0,-0.40695c0.02424,-0.01692 0.05501,-0.02962 0.10118,-0.03385c0.07694,-0.00719 0.14157,-0.04526 0.21697,-0.06811zM209.71244,174.53893c0.03385,-0.0533 0.09463,-0.10533 0.09656,-0.15991c0.00692,-0.18275 0.02078,-0.37438 -0.02039,-0.5474c-0.04771,-0.2001 0.01424,-0.28301 0.17351,-0.32785c-0.00116,-0.02073 -0.00231,-0.04146 -0.00347,-0.06218c-0.07502,0.0038 -0.15004,0.00762 -0.22544,0.01142c-0.03463,-0.04992 -0.07002,-0.1011 -0.10503,-0.15187c0.07733,0.4078 0.19928,0.80291 0.03308,1.21791c0.01692,0.00677 0.03425,0.01354 0.05117,0.01989zM210.02482,184.56478c-0.01308,0.00761 -0.03308,0.01523 -0.02193,0.02284c-0.00346,0.00592 -0.00654,0.01185 -0.01,0.01777c0,-0.12733 0,-0.20644 0,-0.20644c0,0 -0.17466,0 -0.17966,0c0.03116,-0.42303 0.06232,-0.52202 0.1031,-0.8211c-0.07464,0.11506 -0.17851,0.13833 -0.18043,0.22801c-0.00692,0.3397 0.01885,0.68023 0.0327,1.02035c0.0277,0.00931 0.0554,0.01904 0.0831,0.02835c0.04732,-0.08292 0.09426,-0.16625 0.14119,-0.24916c0,0.03172 0,0.06388 0,0.1011c0,-0.07614 0.01116,-0.11041 0.03193,-0.14172zM210.3976,182.04647c-0.06886,0.29316 -0.30815,0.23478 -0.49281,0.30331c0.02424,0.04738 0.04348,0.08503 0.06694,0.13071c0.08387,-0.21786 0.50396,-0.00761 0.42587,-0.43403zM210.96389,187.08054c-0.01808,-0.00169 -0.03578,-0.00296 -0.05386,-0.00465c-0.0277,0.38326 -0.05501,0.76696 -0.08271,1.15065c0.01808,0.00169 0.03616,0.00296 0.05424,0.00465c0.02731,-0.38369 0.05502,-0.76738 0.08233,-1.15064zM227.60206,183.71785l4.50914,4.95709h-1.16105c0,-0.13325 0,-0.27286 0,-0.43995c-0.04578,0.18444 -0.07694,0.30924 -0.10925,0.43995h-0.04924c-0.02654,-0.01565 -0.04963,-0.02919 -0.0704,-0.04146c-0.00885,0.01396 -0.01731,0.0275 -0.02616,0.04146h-5.34665l-3.71473,-4.08479c-0.02077,-0.04654 -0.04231,-0.09349 -0.06386,-0.14003c0.00808,0.03215 0.01577,0.06473 0.02423,0.09688l-0.75402,-0.82914h-1.12719v4.95709h-3.42504c-0.00538,-0.02031 -0.00501,-0.03596 -0.01501,-0.05965c-0.04655,0.022 -0.08617,0.04062 -0.12657,0.05965h-0.94176v-7.7051c0.08041,-0.04103 0.16119,-0.08249 0.2416,-0.12353c-0.01346,-0.02876 -0.02732,-0.05754 -0.04117,-0.0863c-0.06694,0.03892 -0.13349,0.07826 -0.20043,0.11718v-9.5529h12.39794l3.38119,3.71802v4.95751zM228.50112,178.39613c0.02693,0.07614 0.05425,0.1523 0.08617,0.24325c-0.00308,0.00084 -0.0404,0.01142 -0.07733,0.02157c0.10503,0.19332 0.20043,0.3693 0.29622,0.54529c0.01154,-0.00677 0.02309,-0.01354 0.03463,-0.02031c-0.08848,-0.27328 -0.17696,-0.54655 -0.26545,-0.81983c-0.02462,0.01015 -0.04963,0.02031 -0.07425,0.03003zM227.93445,176.65365c-0.08387,-0.14341 -0.14772,-0.25255 -0.23967,-0.40992c-0.08002,0.32278 -0.08002,0.32278 0.23967,0.40992zM230.66663,187.39824c0.00923,0.09941 0.04117,0.19629 0.06271,0.28893c0.04924,0.07403 0.10002,0.15017 0.15657,0.2352c0.00885,-0.02453 0.02731,-0.05119 0.02462,-0.07487c-0.01846,-0.17048 -0.03655,-0.34139 -0.06694,-0.50975c-0.005,-0.02707 -0.08002,-0.06599 -0.1058,-0.05457c-0.03385,0.01523 -0.07502,0.07741 -0.07117,0.11506zM220.70543,172.85145c0.03924,0.05584 0.07887,0.1121 0.11811,0.16836c0.05347,-0.08503 0.18312,0.00339 0.22851,-0.13367c0.01692,-0.05119 0.12657,-0.06557 0.25083,-0.12311c-0.02539,-0.04146 -0.08502,-0.18106 -0.11041,-0.17387c-0.18428,0.05246 -0.12465,-0.0973 -0.13119,-0.17936c-0.00423,-0.04992 0.02116,-0.10237 0.03308,-0.15399c-0.02385,-0.00804 -0.0477,-0.01607 -0.07155,-0.02411c-0.03385,0.14552 -0.07925,0.28978 -0.0981,0.43784c-0.01731,0.1341 -0.04539,0.21575 -0.21928,0.18191zM220.6735,173.25797c0.02116,0.22547 0.04231,0.45138 0.06347,0.67685c0.01577,-0.00043 0.03155,-0.00042 0.04732,-0.00084c0,-0.22801 0,-0.45603 0,-0.68404c-0.03693,0.00296 -0.07386,0.0055 -0.11079,0.00804zM218.04749,172.5143c0.06809,0.35789 0.14273,0.41796 0.44511,0.36338c-0.17927,-0.14637 -0.312,-0.25509 -0.44511,-0.36338zM218.0421,186.05848c-0.03,-0.16371 -0.06694,-0.32616 -0.08886,-0.49114c-0.02462,-0.18698 -0.05809,-0.37776 -0.04617,-0.56347c0.01039,-0.16498 0.03577,-0.16287 -0.02886,-0.28301c-0.09002,0.40145 -0.03347,0.99793 0.16389,1.33763zM218.22022,183.68445c-0.21966,0.04527 -0.44126,0.08418 -0.65939,0.1396c-0.08118,0.02073 -0.15118,0.0956 -0.23236,0.11802c-0.14888,0.04146 -0.30238,0.06218 -0.40086,0.08122c0.04424,0.06134 0.10002,0.13875 0.16081,0.22251c0.02885,-0.01946 0.06924,-0.04611 0.11848,-0.0791c0.0454,0.06091 0.07887,0.10618 0.10657,0.14299c0.0604,-0.04738 0.10926,-0.08714 0.16004,-0.12437c0.0504,-0.0368 0.10234,-0.07149 0.15196,-0.10576c0.22082,0.25255 0.35431,0.22801 0.43626,-0.07149c0.18928,0.04272 0.21851,-0.01057 0.1585,-0.32362zM218.45643,187.5061c0,-0.54656 0,-1.09269 0,-1.63925c0,0.27963 -0.00847,0.55713 -0.00847,0.83464c0,0.27158 -0.01115,0.54275 0.0027,0.81433c0.01385,-0.00339 0.00577,-0.00634 0.00577,-0.00973zM218.52953,176.59105c-0.02847,-0.19037 -0.05309,-0.38116 -0.0881,-0.56983c-0.00731,-0.03976 -0.04578,-0.08672 -0.0804,-0.10195c-0.02885,-0.01269 -0.10002,0.00888 -0.10464,0.02876c-0.01231,0.05161 -0.01385,0.12099 0.00962,0.16414c0.04617,0.08461 0.15696,0.11633 0.16312,0.23986c0.00423,0.08334 0.01693,0.16626 0.02616,0.24959c0.02462,-0.00339 0.04925,-0.00719 0.07425,-0.01058zM218.70341,184.2551c-0.01577,0.00043 -0.03193,0.00127 -0.04771,0.00212c-0.04232,0.26355 -0.08425,0.52752 -0.12656,0.79107c0.02308,0.00339 0.04578,0.00634 0.06848,0.00972c0.03501,-0.26778 0.0704,-0.53555 0.1058,-0.80291zM219.08658,178.20619c0.02116,0.18867 0.04193,0.37692 0.06309,0.56728c0.13619,-0.1984 0.01809,-0.38453 -0.06309,-0.56728zM221.27902,180.84167c-0.01577,-0.38496 0.0327,-0.77118 -0.06886,-1.15699c-0.0127,-0.04695 -0.06079,-0.10576 -0.06079,-0.16329c0,0.44037 0,0.88075 0,1.32112c0,-0.00043 0.1081,-0.00042 0.12965,-0.00084zM222.06344,182.40688c0.01,0.31262 0.10618,0.63624 -0.09695,0.93278c0.26929,-0.27963 0.30777,-0.78684 0.09695,-0.93278zM225.89589,176.88421c0.24583,-0.05372 0.2866,0.29147 0.47588,0.3067c0.03308,-0.05077 0.07617,-0.11761 0.13119,-0.20264c-0.09464,0 -0.17389,0 -0.26699,0c0.01654,-0.24325 -0.15657,-0.17006 -0.25814,-0.19036c-0.02962,-0.00592 -0.06617,0.02919 -0.10233,0.06388l-0.52743,-0.57998h-5.63519v1.31647c-0.06848,0.02031 -0.13696,0.04146 -0.2062,0.0588c-0.13388,0.03385 -0.24083,0.00338 -0.25467,-0.18614c-0.01924,0.00466 -0.03848,0.0093 -0.05771,0.01396c0.01539,0.15822 0.03078,0.31685 0.0404,0.41753c0.09695,-0.05119 0.18659,-0.11252 0.2843,-0.14637c0.06386,-0.022 0.12926,-0.0385 0.19389,-0.05754v1.06181h1.56691c0,0.21363 0,0.42684 0,0.64047c0.00462,-0.03003 0.0127,-0.05542 0.02732,-0.07107c0.18966,-0.20602 0.01231,-0.38496 0.01885,-0.5694h4.02211l1.12719,-1.23948zM227.18542,176.04998c-0.16888,0.31093 -0.16888,0.31093 -0.07733,0.35281c0,0.10957 0,0.20051 0,0.29104c0.02578,0.00043 0.05155,0.00084 0.07733,0.00127c0,-0.21151 0,-0.42345 0,-0.64512zM233.23763,171.32431h13.52513v4.95708h-9.01676v1.23949h9.01714v4.95835h-1.01909c0.01885,-0.07953 0.03424,-0.1616 0.05656,-0.23901c-0.04039,0.07869 -0.08156,0.15948 -0.12195,0.23901h-5.58209c0.03463,-0.06599 0.06925,-0.13114 0.10464,-0.1984c-0.06079,-0.03723 -0.11118,-0.06811 -0.16157,-0.09899c0.00038,-0.00127 0.00038,-0.00212 0.00038,-0.00339c0.0577,0 0.11618,0 0.19043,0c-0.04847,-0.14721 -0.09041,-0.27539 -0.13272,-0.40357c-0.01,0.00169 -0.01962,0.00296 -0.02924,0.00465c-0.00962,0.13283 -0.01923,0.26609 -0.02885,0.39892c-0.00154,0 -0.00347,0 -0.00539,0l0.00501,0.0055c-0.14426,0.05246 -0.14119,0.11549 0.01231,0.29485h-2.30555v1.23948h5.93333c-0.06155,0.02158 -0.12118,0.04273 -0.18543,0.06515c0.005,0.09561 0.01,0.20136 0.01693,0.34435c0.11003,-0.05626 0.20274,-0.10364 0.312,-0.15948c-0.00692,-0.02792 -0.02116,-0.08504 -0.04501,-0.18022c0.0754,0.05203 0.1131,0.07784 0.1508,0.10365c0.01077,-0.01439 0.02116,-0.02876 0.03194,-0.04315c-0.05078,-0.04738 -0.09887,-0.09222 -0.14042,-0.13072h2.94185v4.95666h-0.11002c-0.00346,-0.0423 -0.00577,-0.08334 -0.01193,-0.12141c-0.0077,-0.0495 -0.02039,-0.09772 -0.03077,-0.14679c-0.02693,0.03554 -0.06464,0.06642 -0.07849,0.10745c-0.01692,0.05034 -0.02885,0.10406 -0.04116,0.16117h-0.56167c0.12965,-0.04654 0.26084,-0.09349 0.41857,-0.14975c-0.1008,-0.0753 -0.15774,-0.1176 -0.22198,-0.16583c-0.09117,0.07191 -0.18581,0.14637 -0.28007,0.22082c0.01385,0.03172 0.0277,0.06304 0.04155,0.09476h-1.52421c0.00423,-0.06599 0.00847,-0.13283 0.0127,-0.19882c-0.02924,0.06811 -0.05732,0.13283 -0.08541,0.19882h-11.05146zM245.3178,187.95707c0.00116,0.11422 0.0577,0.22801 0.08963,0.3418c0.00962,0.00169 0.01884,0.00381 0.02847,0.0055c0.02039,-0.1984 0.04116,-0.39681 0.06271,-0.60367c-0.02731,-0.03469 -0.06886,-0.08756 -0.10656,-0.13537c-0.02693,0.13072 -0.0754,0.26144 -0.07424,0.39173zM244.90732,187.99048c-0.0077,-0.09899 -0.01577,-0.19713 -0.02346,-0.29569c-0.01385,-0.00043 -0.02732,-0.00042 -0.04117,-0.00085c-0.01577,0.04695 -0.03194,0.09392 -0.05501,0.16287c-0.03578,-0.10957 -0.06232,-0.19037 -0.10771,-0.32954c-0.07502,0.34562 -0.00077,0.48225 0.22736,0.46321zM244.14406,186.76452c0.01539,0.11676 0.17157,0.24071 -0.02578,0.32912c-0.01077,0.00466 0.0604,0.23013 0.09348,0.35281c0.01808,-0.00466 0.03578,-0.00931 0.05386,-0.01354c-0.07155,-0.21236 0.13465,-0.4738 -0.12157,-0.66839zM243.91785,186.03946c0.10541,0.04399 0.19928,0.08292 0.29276,0.12184c0.03501,-0.06684 0.07233,-0.13876 0.12772,-0.24493c-0.15773,0.04611 -0.28776,0.08418 -0.42049,0.1231zM242.53137,184.49878c0.0627,0.08799 0.11426,0.16033 0.16542,0.23182c0.11234,-0.20771 0.0327,-0.50891 0.28661,-0.64809c-0.12003,-0.03511 -0.12003,-0.03511 -0.34316,0.43276c-0.02578,-0.03469 -0.04617,-0.06176 -0.07194,-0.09645c-0.01808,0.03976 -0.03308,0.07234 -0.03693,0.07996zM241.82043,187.14398c0.14773,0.00169 0.25506,0.05922 0.24468,0.25848c0.02693,-0.06769 0.05347,-0.1358 0.08848,-0.22505c0.05694,0.0495 0.0981,0.08545 0.13965,0.12184c0.00808,-0.00804 0.01577,-0.01608 0.02385,-0.02411c-0.05271,-0.10661 -0.1058,-0.21321 -0.15812,-0.31854c-0.07117,0.03427 -0.12887,0.06218 -0.20004,0.09645c0,-0.13156 0,-0.24747 0,-0.36338c-0.01962,-0.00127 -0.03963,-0.00296 -0.05925,-0.00423c-0.02578,0.15017 -0.05155,0.30035 -0.07925,0.45856zM240.9583,185.70188c0.09271,-0.0148 0.16004,-0.02538 0.23813,-0.03765c0.0504,0.13325 -0.10541,0.49283 0.28507,0.27836c-0.10349,-0.16752 -0.2039,-0.33039 -0.27738,-0.44926c-0.07464,0.06346 -0.14426,0.12268 -0.24583,0.20855zM240.05771,185.43326c0.01692,0.00592 0.03424,0.01142 0.05155,0.01692c0.01846,-0.06684 0.03732,-0.13325 0.05578,-0.20009c0.02308,-0.00212 0.04656,-0.00423 0.06964,-0.00635c0.01424,0.12903 0.02847,0.25762 0.04001,0.36296c0.11003,-0.02115 0.19159,-0.03638 0.29469,-0.05626c-0.13426,-0.15695 -0.26045,-0.30543 -0.41318,-0.48437c-0.04117,0.15187 -0.07001,0.25931 -0.09848,0.36719zM242.09742,180.26508c0.04078,0.02073 0.07771,0.03976 0.11503,0.0588c-0.11964,0.31347 -0.11964,0.31347 0.02193,0.53725c0.08848,-0.17471 0.22274,-0.32277 0.2239,-0.4721c0.00116,-0.17344 -0.19313,-0.16117 -0.32585,-0.17133c-0.00731,-0.00043 -0.01577,0.02073 -0.035,0.04738zM235.30081,187.53825c-0.03078,-0.00635 -0.06155,-0.01269 -0.09232,-0.01904c-0.03693,0.24705 -0.07349,0.49452 -0.11042,0.742c0.03039,0.00592 0.06078,0.01142 0.09117,0.01692c0.03732,-0.24662 0.07464,-0.49326 0.11157,-0.73988zM236.11908,182.49402c-0.0754,-0.01735 -0.1308,-0.02962 -0.17427,-0.03934c0.02578,0.1506 0.04847,0.28259 0.06424,0.37269c0.09887,0.02411 0.19582,0.04738 0.30007,0.07277c0.03654,-0.04738 0.08502,-0.11041 0.1385,-0.17979c-0.0377,-0.01523 -0.07348,-0.03003 -0.11849,-0.04823c0.03693,-0.07403 0.07233,-0.14468 0.11849,-0.2369c-0.12157,-0.04611 -0.23737,-0.08968 -0.40241,-0.15229c0.0427,0.12184 0.05617,0.16033 0.07387,0.2111zM235.46662,185.53098c-0.09156,0.0736 -0.13119,0.10576 -0.1812,0.14595c-0.0454,-0.12437 -0.08348,-0.22802 -0.11387,-0.31051c-0.04347,0.08418 -0.08348,0.16202 -0.09926,0.19248c0.09656,0.10068 0.19813,0.20729 0.34124,0.35746c0.01846,-0.13198 0.03232,-0.23436 0.05309,-0.38538zM235.0469,178.1533c0.02654,0.0901 0.05271,0.17894 0.07925,0.27032c0.08002,-0.08714 0.15889,-0.17344 0.25237,-0.27539c-0.04155,-0.09053 -0.04155,-0.09053 -0.33162,0.00507zM234.6899,172.56675c-0.0427,0.02707 -0.08348,0.0533 -0.1585,0.1011c0.11733,0.02115 0.2389,0.08334 0.28314,0.04315c0.13696,-0.1248 0.13888,-0.3067 0.06039,-0.50002c-0.32277,0.1764 -0.33661,0.20221 -0.18504,0.35577zM260.28673,175.05247v-3.72818h4.50838v17.35149h-3.38119l-2.07011,-2.27633c0.04539,-0.03299 0.09156,-0.0643 0.13619,-0.09518c0.22082,0.25255 0.35431,0.22801 0.43626,-0.07149c0.18966,0.04315 0.21852,-0.01058 0.15812,-0.32362c-0.21967,0.04527 -0.44126,0.08418 -0.65939,0.1396c-0.08118,0.02073 -0.1508,0.09561 -0.23236,0.11803c-0.01423,0.0038 -0.0277,0.00592 -0.04194,0.0093l-2.51136,-2.76155c0.2239,-0.11464 0.44741,-0.22886 0.67132,-0.3435c-0.01346,-0.02876 -0.02732,-0.05754 -0.04117,-0.0863c-0.22197,0.12987 -0.44434,0.25974 -0.66631,0.38961l-3.0688,-3.37452v8.67468h-2.56253c-0.00231,-0.01015 -0.00461,-0.02115 -0.00693,-0.0313c-0.01654,0.00169 -0.03309,0.00296 -0.04963,0.00423c0.00077,0.00931 0.00154,0.01819 0.00231,0.0275h-1.8916v-17.35107h3.38119l2.49559,2.74421c-0.16734,0.03172 -0.33392,0.06303 -0.51243,0.09729c0.05078,0.11549 0.0731,0.1671 0.11772,0.26863c0.12965,-0.14848 0.26737,-0.26355 0.41894,-0.3397l5.37012,5.9051v-1.39389c0.00539,0.07403 0.01539,0.14722 0.02347,0.22082c0.02462,-0.00339 0.04924,-0.00719 0.07386,-0.01057c-0.02847,-0.19037 -0.05309,-0.38116 -0.0881,-0.56983c-0.00115,-0.00592 -0.00692,-0.01184 -0.00923,-0.01819v-3.11647c0.01962,-0.00296 0.03847,-0.00466 0.06079,-0.00889c-0.0227,-0.01862 -0.03924,-0.03257 -0.06079,-0.04991zM251.38154,187.90249c-0.11926,-0.04442 -0.23352,-0.08883 -0.38009,-0.14341c0.00154,0.00761 -0.08502,-0.04653 -0.09541,-0.10068c-0.01923,0.00127 -0.13426,0.00296 -0.13426,0.00423c0,0.28681 0,0.57405 0,0.86129c0,0.00423 0.12887,0.00847 0.1558,0.01227c0,-0.07403 0.04962,-0.1506 0.03539,-0.22124c-0.03155,-0.15483 0.03808,-0.21998 0.17889,-0.2331c0.07656,-0.00719 0.16043,-0.04526 0.23583,-0.06937c-0.00039,-0.03638 0.00423,-0.07319 0.00385,-0.10999zM251.51658,176.74334c0.01731,0.00677 0.03424,0.01354 0.05155,0.02031c0.03385,-0.0533 0.09463,-0.10533 0.09656,-0.15991c0.00693,-0.18275 0.02078,-0.37438 -0.02039,-0.5474c-0.0477,-0.2001 0.01424,-0.28301 0.17351,-0.32785c-0.00116,-0.02073 -0.00231,-0.04146 -0.00346,-0.06218c-0.07502,0.0038 -0.15004,0.00762 -0.22544,0.01142c-0.03463,-0.04992 -0.07002,-0.1011 -0.10502,-0.15187c0.07732,0.4078 0.19889,0.80333 0.0327,1.21748zM251.8582,186.81192c-0.0177,-0.01184 -0.10695,-0.02411 -0.12464,-0.03638c-0.02501,0.03172 0.15234,0.0643 -0.1158,0.1358c-0.00654,-0.13241 -0.0127,-0.26482 -0.01809,-0.39723c0.03501,0 0.07156,0 0.06887,0c0.03154,-0.42303 0.0627,-0.46745 0.10348,-0.76696c-0.07464,0.11549 -0.1785,0.19333 -0.18043,0.28301c-0.00346,0.16117 0.00153,0.32277 0.00807,0.48395c-0.02962,0 -0.05847,0 -0.05847,0c0,0 0,0.22928 0,0.41711c0.03116,-0.00719 0.05271,-0.01311 0.07656,-0.01946c0.00231,0.04654 0.00461,0.09264 0.00654,0.13918c0.0277,0.00931 0.05539,0.01904 0.0831,0.02834c0.05039,-0.08926 0.10079,-0.1781 0.1508,-0.26736zM252.2529,184.27119c-0.06886,0.29316 -0.30815,0.23478 -0.49281,0.30331c0.02423,0.04738 0.04348,0.08504 0.06694,0.13072c0.08386,-0.21786 0.50396,-0.00762 0.42587,-0.43403zM254.39302,174.41539c-0.04501,-0.0588 -0.08386,-0.10957 -0.12772,-0.1671c-0.19428,0.08841 -0.36932,0.16753 -0.54821,0.24875c0.0177,0.02876 0.02654,0.03976 0.03232,0.05287c0.00692,0.0148 0.01077,0.03131 0.01385,0.04019c-0.48973,-0.07234 -0.74556,0.36 -1.09988,0.56982c0.18735,0.04357 0.36471,0.12226 0.50782,-0.11083c0.0627,-0.10237 0.20197,-0.1561 0.31469,-0.21152c0.29892,-0.14637 0.60283,-0.28131 0.90714,-0.42218zM262.6396,175.47466c-0.03693,0.00254 -0.07386,0.00549 -0.11079,0.00804c0.02116,0.22547 0.04232,0.45138 0.06348,0.67685c0.01578,-0.00043 0.03154,-0.00042 0.04732,-0.00085c0,-0.22801 0,-0.45603 0,-0.68404zM263.12356,181.90898c-0.01231,-0.04695 -0.04116,-0.10618 -0.04116,-0.16329c0,0.44037 0,0.88076 0,1.32113c0,0 0.06925,-0.00043 0.09079,-0.00043c-0.01577,-0.38496 0.05193,-0.77118 -0.04963,-1.15741zM263.8218,185.56438c0.2693,-0.2792 0.30777,-0.78642 0.09695,-0.93278c0.01039,0.31262 0.10657,0.63624 -0.09695,0.93278zM263.42517,186.67486c0.06348,0.24832 0.13081,0.49537 0.18774,0.74538c0.01539,0.06726 -0.00462,0.14383 -0.0027,0.21617c0.00731,0.25255 0.01731,0.50552 0.02616,0.75807c0.03155,-0.1616 0.00231,-0.32616 0.03694,-0.47295c0.10887,-0.46365 -0.06772,-0.85495 -0.24814,-1.24667zM263.18895,180.92416c-0.0177,0.00043 -0.03577,0.00127 -0.05385,0.00169c0,0.23309 0,0.46618 0,0.69969c0.00462,-0.03003 0.0127,-0.05542 0.02732,-0.07107c0.21082,-0.22886 -0.03386,-0.4243 0.02654,-0.63032zM262.56073,175.07618c0.03924,0.05584 0.07848,0.1121 0.11811,0.16836c0.05347,-0.08503 0.18312,0.00338 0.22851,-0.13368c0.01693,-0.05119 0.12657,-0.06557 0.25083,-0.1231c-0.02539,-0.04146 -0.08502,-0.18106 -0.11041,-0.17387c-0.18428,0.05246 -0.12465,-0.0973 -0.13119,-0.17936c-0.00423,-0.04992 0.02116,-0.10237 0.03309,-0.15399c-0.02385,-0.00804 -0.0477,-0.01608 -0.07155,-0.02411c-0.03386,0.14552 -0.07925,0.28978 -0.0981,0.43784c-0.01693,0.1341 -0.0454,0.21533 -0.21929,0.18191zM262.42416,171.83024c0.01,0.14679 0.0227,0.32869 0.03539,0.5106c0.05001,-0.03934 0.05578,-0.07487 0.05539,-0.11041c-0.00039,-0.04357 -0.02231,-0.09814 -0.00577,-0.12902c0.1208,-0.22632 0.12311,-0.22463 0.06771,-0.46068c-0.04501,0.05584 -0.09195,0.11422 -0.15273,0.18952zM261.04961,179.70963c0.01539,0.15822 0.03077,0.31685 0.04039,0.41753c0.09695,-0.05119 0.18658,-0.11253 0.28429,-0.14637c0.18659,-0.06473 0.37779,-0.11295 0.56706,-0.16836c-0.00231,-0.01692 -0.005,-0.03427 -0.00731,-0.05119c-0.0377,-0.00423 -0.07809,-0.02031 -0.11311,-0.011c-0.1535,0.04019 -0.30468,0.09222 -0.45857,0.13114c-0.13388,0.03385 -0.24082,0.00338 -0.25467,-0.18614c-0.01923,0.00466 -0.03847,0.00931 -0.05809,0.01439zM260.94227,180.43091c0.02116,0.18867 0.04193,0.37692 0.06309,0.56728c0.1358,-0.1984 0.0177,-0.38496 -0.06309,-0.56728zM260.38445,187.27301c0.02308,0.00339 0.04578,0.00634 0.06848,0.00973c0.03539,-0.26736 0.0704,-0.53513 0.10579,-0.80291c-0.01577,0.00043 -0.03193,0.00127 -0.0477,0.00212c-0.04194,0.26355 -0.08425,0.52752 -0.12657,0.79107z" data-paper-data="{&quot;origPos&quot;:null}" fill="url(#color-1)"/><path d="M283.20401,175.04228v13.63389h-4.50838v-3.71803h-0.02654c0.00346,-0.00466 0.00577,-0.00761 0.00923,-0.01227c-0.0377,-0.01523 -0.07348,-0.03003 -0.11849,-0.04823c0.03693,-0.07403 0.07233,-0.1451 0.11849,-0.2369c-0.12156,-0.04611 -0.23737,-0.08968 -0.4024,-0.15229c0.0427,0.12184 0.05617,0.16033 0.07387,0.21109c-0.07578,-0.01735 -0.13119,-0.02961 -0.17466,-0.03934c0.01846,0.10661 0.03424,0.19755 0.04809,0.27751h-6.28995v3.71802h-4.50838v-13.63304l3.38118,-3.71803h7.64412c0.08233,0.16287 0.16388,0.32489 0.24852,0.49241c0.15619,-0.11041 0.12926,-0.21829 0.04231,-0.35238c-0.03001,-0.04654 -0.0627,-0.09349 -0.0954,-0.14045h1.17681zM268.73365,179.21254c-0.09464,0 -0.17388,0 -0.26698,0c0.01654,-0.24325 -0.15658,-0.17006 -0.25814,-0.19036c-0.04232,-0.00846 -0.09926,0.06768 -0.14927,0.10533c0.31046,-0.14214 0.33738,0.27116 0.54321,0.28767c0.0327,-0.05077 0.07578,-0.11761 0.13119,-0.20264zM269.41573,178.27468c-0.16888,0.31093 -0.16888,0.31093 -0.07732,0.35281c0,0.10957 0,0.20051 0,0.29104c0.02578,0.00043 0.05155,0.00084 0.07732,0.00127c0,-0.21194 0,-0.42346 0,-0.64513zM270.16515,178.87833c-0.08387,-0.14341 -0.14773,-0.25254 -0.23967,-0.40991c-0.08002,0.32278 -0.08002,0.32277 0.23967,0.40991zM271.07074,181.41019c-0.08848,-0.27328 -0.17696,-0.54655 -0.26544,-0.81983c-0.02462,0.01015 -0.04963,0.0203 -0.07425,0.03046c0.02731,0.07614 0.05425,0.15229 0.08618,0.24324c-0.0027,0.00084 -0.04001,0.01142 -0.07694,0.02157c0.10503,0.19332 0.20044,0.36931 0.29623,0.54529c0.01154,-0.00677 0.02308,-0.01354 0.03423,-0.02073zM276.92059,174.79144c-0.0427,0.02707 -0.08348,0.0533 -0.1585,0.10111c0.11734,0.02115 0.2389,0.08333 0.28314,0.04314c0.13696,-0.1248 0.13888,-0.30669 0.0604,-0.50002c-0.32277,0.1764 -0.337,0.20178 -0.18505,0.35577zM275.30098,172.12253c0.08502,-0.01862 0.14042,-0.03088 0.21313,-0.04653c0.04424,0.16879 0.18196,0.17598 0.37047,0.10787c-0.05309,-0.12649 -0.10079,-0.24832 -0.15811,-0.36465c-0.0077,-0.01608 -0.06386,-0.00338 -0.09771,-0.00381c0.05309,0.14848 -0.06963,0.11676 -0.10849,0.10026c-0.13965,-0.05964 -0.17235,0.03172 -0.21929,0.20686zM274.73738,173.17756c0.09695,0.3655 0.10656,0.37226 0.27468,0.26101c-0.0881,-0.08376 -0.1608,-0.15313 -0.27468,-0.26101zM277.60845,180.37291c-0.04116,-0.09053 -0.04116,-0.09053 -0.33123,0.00508c0.02654,0.0901 0.05271,0.17894 0.07925,0.27032c0.08002,-0.08714 0.15888,-0.17345 0.25198,-0.2754zM278.69563,179.9998v-2.47854l-1.12719,-1.23948h-4.50838l-1.12719,1.23948v2.47854h6.76237zM282.30918,184.73691c0.04078,-0.07742 0.08078,-0.15313 0.12233,-0.23182c-0.06079,-0.03723 -0.11118,-0.06811 -0.16157,-0.09899c0.00038,-0.00127 0.00038,-0.00212 0.00038,-0.00339c0.0577,0 0.11618,0 0.19043,0c-0.04847,-0.14721 -0.0904,-0.27539 -0.13272,-0.40357c-0.01,0.00169 -0.01962,0.00297 -0.02924,0.00466c-0.00962,0.13283 -0.01923,0.26608 -0.02885,0.39891c-0.00154,0 -0.00346,0 -0.00539,0l0.005,0.0055c-0.15427,0.05584 -0.14696,0.11887 0.03963,0.32869zM282.80006,187.77512c-0.13427,-0.15695 -0.26045,-0.30543 -0.41318,-0.48437c-0.04078,0.15187 -0.07001,0.25932 -0.09887,0.36719c0.01693,0.00592 0.03424,0.01142 0.05156,0.01692c0.01846,-0.06684 0.03731,-0.13325 0.05578,-0.2001c0.02308,-0.00212 0.04655,-0.00423 0.06963,-0.00635c0.01423,0.12903 0.02847,0.25763 0.04001,0.36297c0.11003,-0.02115 0.19159,-0.0368 0.29507,-0.05626zM211.45315,172.98381l1.87198,2.05847v13.63347h-4.12829c-0.03654,-0.0588 -0.07309,-0.11803 -0.10964,-0.17683c-0.00038,0.06346 0.01385,0.12056 0.02731,0.17683h-0.29776v-1.20987c0.05963,-0.04061 0.11003,-0.10195 0.14735,-0.19671c0.04001,-0.10195 0.11079,-0.18909 0.16581,-0.28385c0.00616,-0.01057 0.00077,-0.02919 0.00077,-0.05838c-0.0377,0.01142 -0.07194,0.022 -0.0981,0.03004c-0.11733,-0.22378 0.06463,-0.31685 0.16773,-0.45011c-0.16504,0.00339 -0.23198,0.0791 -0.24006,0.24578c-0.00885,0.18529 -0.05155,0.35112 -0.1435,0.48183v-2.27718h-6.03412c0.02039,-0.14637 0.04193,-0.29528 -0.11888,-0.41753c0.01539,0.11676 0.17158,0.2407 -0.02578,0.32912c-0.00423,0.00212 0.00539,0.04061 0.01847,0.08841h-0.60207v3.71802h-4.50838v-13.63304l3.38119,-3.71802h9.01713l1.37763,1.51488c-0.04501,0.03469 -0.09079,0.06768 -0.13888,0.09603c0.09348,0.022 0.18465,0.05245 0.27006,0.04865zM199.96504,188.09155c-0.08848,0.15483 -0.14195,0.24832 -0.22351,0.39173c0.08848,0 0.21351,0.00888 0.21466,-0.00127c0.01424,-0.11125 0.00885,-0.22505 0.00885,-0.39046zM200.00159,183.71783c-0.10387,-0.16752 -0.20428,-0.33039 -0.27776,-0.44926c-0.07464,0.06346 -0.14426,0.12268 -0.24544,0.20855c0.09271,-0.0148 0.16004,-0.02538 0.23813,-0.03765c0.05001,0.13325 -0.1058,0.49283 0.28507,0.27835zM200.83679,185.05038c-0.05309,-0.10661 -0.1058,-0.21321 -0.15812,-0.31855c-0.07117,0.03427 -0.12888,0.06218 -0.20005,0.09645c0,-0.13156 0,-0.24747 0,-0.36338c-0.01962,-0.00169 -0.03963,-0.00296 -0.05925,-0.00423c-0.02578,0.1506 -0.05155,0.30077 -0.07886,0.45899c0.14773,0.00169 0.25506,0.05922 0.24468,0.25848c0.02693,-0.06769 0.05347,-0.1358 0.08848,-0.22505c0.05655,0.0495 0.09771,0.08545 0.13926,0.12184c0.0077,-0.00804 0.01577,-0.01608 0.02385,-0.02454zM204.31953,180.0146c-0.10849,0.21278 -0.21697,0.42557 -0.32854,0.64427c0.2616,-0.11887 0.25891,-0.40526 0.32854,-0.64427zM208.81714,179.9998v-2.47854l-1.12719,-1.23948h-4.50838l-1.12719,1.23948v2.47854h6.76237zM209.7035,187.4608c-0.08425,-0.38326 -0.15658,-0.71238 -0.2289,-1.04192c-0.01654,0.00169 -0.03308,0.00296 -0.04962,0.00423c0.02885,0.31347 0.05347,0.62735 0.09271,0.93913c0.00423,0.03258 0.09464,0.05246 0.18581,0.09857zM209.91663,185.7894c-0.00038,-0.0368 -0.00538,-0.07361 -0.00577,-0.11041c-0.09695,-0.03638 -0.20005,-0.07361 -0.31239,-0.11506c0,-0.04188 0,-0.08334 0,-0.12522c0,-0.00127 -0.03886,-0.00296 -0.01924,-0.00423c0.01039,0.05415 -0.05655,0.10787 -0.05809,0.10068c0.0277,0.01015 0.05116,0.01862 0.07733,0.02835c0,0.10914 0,0.21871 0,0.32828c-0.04924,0.03469 -0.0604,0.0956 -0.03924,0.19924c0.01308,0.06599 0.03616,0.13791 0.03924,0.20771c0,0 0,0.00042 0,0.00084c0,0.0038 -0.02462,0.00804 0.00192,0.01227c0,-0.00466 -0.00192,-0.00888 -0.00192,-0.01354c0,-0.13537 0,-0.27116 0,-0.40695c0.02424,-0.01692 0.05501,-0.02962 0.10118,-0.03385c0.07694,-0.00719 0.14157,-0.04526 0.21697,-0.06811zM210.08744,174.53888c0.03385,-0.0533 0.09463,-0.10533 0.09656,-0.15991c0.00692,-0.18275 0.02078,-0.37438 -0.02039,-0.5474c-0.04771,-0.2001 0.01424,-0.28301 0.17351,-0.32785c-0.00116,-0.02073 -0.00231,-0.04146 -0.00347,-0.06218c-0.07502,0.0038 -0.15004,0.00762 -0.22544,0.01142c-0.03463,-0.04992 -0.07002,-0.1011 -0.10503,-0.15187c0.07733,0.4078 0.19928,0.80291 0.03308,1.21791c0.01692,0.00677 0.03425,0.01354 0.05117,0.01989zM210.39982,184.56474c-0.01308,0.00761 -0.03308,0.01523 -0.02193,0.02284c-0.00346,0.00592 -0.00654,0.01185 -0.01,0.01777c0,-0.12733 0,-0.20644 0,-0.20644c0,0 -0.17466,0 -0.17966,0c0.03116,-0.42303 0.06232,-0.52202 0.1031,-0.8211c-0.07464,0.11506 -0.17851,0.13833 -0.18043,0.22801c-0.00692,0.3397 0.01885,0.68023 0.0327,1.02035c0.0277,0.00931 0.0554,0.01904 0.0831,0.02835c0.04732,-0.08292 0.09426,-0.16625 0.14119,-0.24916c0,0.03172 0,0.06388 0,0.1011c0,-0.07614 0.01116,-0.11041 0.03193,-0.14172zM210.7726,182.04643c-0.06886,0.29316 -0.30815,0.23478 -0.49281,0.30331c0.02424,0.04738 0.04348,0.08503 0.06694,0.13071c0.08387,-0.21786 0.50396,-0.00761 0.42587,-0.43403zM211.33889,187.0805c-0.01808,-0.00169 -0.03578,-0.00296 -0.05386,-0.00465c-0.0277,0.38326 -0.05501,0.76696 -0.08271,1.15065c0.01808,0.00169 0.03616,0.00296 0.05424,0.00465c0.02731,-0.38369 0.05502,-0.76738 0.08233,-1.15064zM227.97707,183.71783l4.50914,4.95709h-1.16105c0,-0.13325 0,-0.27286 0,-0.43995c-0.04578,0.18444 -0.07694,0.30924 -0.10925,0.43995h-0.04924c-0.02654,-0.01565 -0.04963,-0.02919 -0.0704,-0.04146c-0.00885,0.01396 -0.01731,0.0275 -0.02616,0.04146h-5.34665l-3.71473,-4.08479c-0.02077,-0.04654 -0.04231,-0.09349 -0.06386,-0.14003c0.00808,0.03215 0.01577,0.06473 0.02423,0.09688l-0.75402,-0.82914h-1.12719v4.95709h-3.42504c-0.00538,-0.02031 -0.00501,-0.03596 -0.01501,-0.05965c-0.04655,0.022 -0.08617,0.04062 -0.12657,0.05965h-0.94176v-7.7051c0.08041,-0.04103 0.16119,-0.08249 0.2416,-0.12353c-0.01346,-0.02876 -0.02732,-0.05754 -0.04117,-0.0863c-0.06694,0.03892 -0.13349,0.07826 -0.20043,0.11718v-9.5529h12.39794l3.38119,3.71802v4.95751zM228.87613,178.39609c0.02693,0.07614 0.05425,0.1523 0.08617,0.24325c-0.00308,0.00084 -0.0404,0.01142 -0.07733,0.02157c0.10503,0.19332 0.20043,0.3693 0.29622,0.54529c0.01154,-0.00677 0.02309,-0.01354 0.03463,-0.02031c-0.08848,-0.27328 -0.17696,-0.54655 -0.26545,-0.81983c-0.02462,0.01015 -0.04963,0.02031 -0.07425,0.03003zM228.30945,176.65362c-0.08387,-0.14341 -0.14772,-0.25255 -0.23967,-0.40992c-0.08002,0.32278 -0.08002,0.32278 0.23967,0.40992zM231.04164,187.39819c0.00923,0.09941 0.04117,0.19629 0.06271,0.28893c0.04924,0.07403 0.10002,0.15017 0.15657,0.2352c0.00885,-0.02453 0.02731,-0.05119 0.02462,-0.07487c-0.01846,-0.17048 -0.03655,-0.34139 -0.06694,-0.50975c-0.005,-0.02707 -0.08002,-0.06599 -0.1058,-0.05457c-0.03385,0.01523 -0.07502,0.07741 -0.07117,0.11506zM221.08043,172.85141c0.03924,0.05584 0.07887,0.1121 0.11811,0.16836c0.05347,-0.08503 0.18312,0.00339 0.22851,-0.13367c0.01692,-0.05119 0.12657,-0.06557 0.25083,-0.12311c-0.02539,-0.04146 -0.08502,-0.18106 -0.11041,-0.17387c-0.18428,0.05246 -0.12465,-0.0973 -0.13119,-0.17936c-0.00423,-0.04992 0.02116,-0.10237 0.03308,-0.15399c-0.02385,-0.00804 -0.0477,-0.01607 -0.07155,-0.02411c-0.03385,0.14552 -0.07925,0.28978 -0.0981,0.43784c-0.01731,0.1341 -0.04539,0.21575 -0.21928,0.18191zM221.0485,173.25795c0.02116,0.22547 0.04231,0.45138 0.06347,0.67685c0.01577,-0.00043 0.03155,-0.00042 0.04732,-0.00084c0,-0.22801 0,-0.45603 0,-0.68404c-0.03693,0.00296 -0.07386,0.0055 -0.11079,0.00804zM218.42249,172.51425c0.06809,0.35789 0.14273,0.41796 0.44511,0.36338c-0.17927,-0.14637 -0.312,-0.25509 -0.44511,-0.36338zM218.41711,186.05846c-0.03,-0.16371 -0.06694,-0.32616 -0.08886,-0.49114c-0.02462,-0.18698 -0.05809,-0.37776 -0.04617,-0.56347c0.01039,-0.16498 0.03577,-0.16287 -0.02886,-0.28301c-0.09002,0.40145 -0.03347,0.99793 0.16389,1.33763zM218.59523,183.68441c-0.21966,0.04527 -0.44126,0.08418 -0.65939,0.1396c-0.08118,0.02073 -0.15118,0.0956 -0.23236,0.11802c-0.14888,0.04146 -0.30238,0.06218 -0.40086,0.08122c0.04424,0.06134 0.10002,0.13875 0.16081,0.22251c0.02885,-0.01946 0.06924,-0.04611 0.11848,-0.0791c0.0454,0.06091 0.07887,0.10618 0.10657,0.14299c0.0604,-0.04738 0.10926,-0.08714 0.16004,-0.12437c0.0504,-0.0368 0.10234,-0.07149 0.15196,-0.10576c0.22082,0.25255 0.35431,0.22801 0.43626,-0.07149c0.18928,0.04272 0.21851,-0.01057 0.1585,-0.32362zM218.83144,187.50607c0,-0.54656 0,-1.09269 0,-1.63925c0,0.27963 -0.00847,0.55713 -0.00847,0.83464c0,0.27158 -0.01115,0.54275 0.0027,0.81433c0.01385,-0.00339 0.00577,-0.00634 0.00577,-0.00973zM218.90453,176.59101c-0.02847,-0.19037 -0.05309,-0.38116 -0.0881,-0.56983c-0.00731,-0.03976 -0.04578,-0.08672 -0.0804,-0.10195c-0.02885,-0.01269 -0.10002,0.00888 -0.10464,0.02876c-0.01231,0.05161 -0.01385,0.12099 0.00962,0.16414c0.04617,0.08461 0.15696,0.11633 0.16312,0.23986c0.00423,0.08334 0.01693,0.16626 0.02616,0.24959c0.02462,-0.00339 0.04925,-0.00719 0.07425,-0.01058zM219.07842,184.25508c-0.01577,0.00043 -0.03193,0.00127 -0.04771,0.00212c-0.04232,0.26355 -0.08425,0.52752 -0.12656,0.79107c0.02308,0.00339 0.04578,0.00634 0.06848,0.00972c0.03501,-0.26778 0.0704,-0.53555 0.1058,-0.80291zM219.46159,178.20614c0.02116,0.18867 0.04193,0.37692 0.06309,0.56728c0.13619,-0.1984 0.01809,-0.38453 -0.06309,-0.56728zM221.65403,180.84162c-0.01577,-0.38496 0.0327,-0.77118 -0.06886,-1.15699c-0.0127,-0.04695 -0.06079,-0.10576 -0.06079,-0.16329c0,0.44037 0,0.88075 0,1.32112c0,-0.00043 0.1081,-0.00042 0.12965,-0.00084zM222.43845,182.40685c0.01,0.31262 0.10618,0.63624 -0.09695,0.93278c0.26929,-0.27963 0.30777,-0.78684 0.09695,-0.93278zM226.27089,176.88417c0.24583,-0.05372 0.2866,0.29147 0.47588,0.3067c0.03308,-0.05077 0.07617,-0.11761 0.13119,-0.20264c-0.09464,0 -0.17389,0 -0.26699,0c0.01654,-0.24325 -0.15657,-0.17006 -0.25814,-0.19036c-0.02962,-0.00592 -0.06617,0.02919 -0.10233,0.06388l-0.52743,-0.57998h-5.63519v1.31647c-0.06848,0.02031 -0.13696,0.04146 -0.2062,0.0588c-0.13388,0.03385 -0.24083,0.00338 -0.25467,-0.18614c-0.01924,0.00466 -0.03848,0.0093 -0.05771,0.01396c0.01539,0.15822 0.03078,0.31685 0.0404,0.41753c0.09695,-0.05119 0.18659,-0.11252 0.2843,-0.14637c0.06386,-0.022 0.12926,-0.0385 0.19389,-0.05754v1.06181h1.56691c0,0.21363 0,0.42684 0,0.64047c0.00462,-0.03003 0.0127,-0.05542 0.02732,-0.07107c0.18966,-0.20602 0.01231,-0.38496 0.01885,-0.5694h4.02211l1.12719,-1.23948zM227.56043,176.04995c-0.16888,0.31093 -0.16888,0.31093 -0.07733,0.35281c0,0.10957 0,0.20051 0,0.29104c0.02578,0.00043 0.05155,0.00084 0.07733,0.00127c0,-0.21151 0,-0.42345 0,-0.64512zM233.61263,171.32427h13.52513v4.95708h-9.01676v1.23949h9.01714v4.95835h-1.01909c0.01885,-0.07953 0.03424,-0.1616 0.05656,-0.23901c-0.04039,0.07869 -0.08156,0.15948 -0.12195,0.23901h-5.58209c0.03463,-0.06599 0.06925,-0.13114 0.10464,-0.1984c-0.06079,-0.03723 -0.11118,-0.06811 -0.16157,-0.09899c0.00038,-0.00127 0.00038,-0.00212 0.00038,-0.00339c0.0577,0 0.11618,0 0.19043,0c-0.04847,-0.14721 -0.09041,-0.27539 -0.13272,-0.40357c-0.01,0.00169 -0.01962,0.00296 -0.02924,0.00465c-0.00962,0.13283 -0.01923,0.26609 -0.02885,0.39892c-0.00154,0 -0.00347,0 -0.00539,0l0.00501,0.0055c-0.14426,0.05246 -0.14119,0.11549 0.01231,0.29485h-2.30555v1.23948h5.93333c-0.06155,0.02158 -0.12118,0.04273 -0.18543,0.06515c0.005,0.09561 0.01,0.20136 0.01693,0.34435c0.11003,-0.05626 0.20274,-0.10364 0.312,-0.15948c-0.00692,-0.02792 -0.02116,-0.08504 -0.04501,-0.18022c0.0754,0.05203 0.1131,0.07784 0.1508,0.10365c0.01077,-0.01439 0.02116,-0.02876 0.03194,-0.04315c-0.05078,-0.04738 -0.09887,-0.09222 -0.14042,-0.13072h2.94185v4.95666h-0.11002c-0.00346,-0.0423 -0.00577,-0.08334 -0.01193,-0.12141c-0.0077,-0.0495 -0.02039,-0.09772 -0.03077,-0.14679c-0.02693,0.03554 -0.06464,0.06642 -0.07849,0.10745c-0.01692,0.05034 -0.02885,0.10406 -0.04116,0.16117h-0.56167c0.12965,-0.04654 0.26084,-0.09349 0.41857,-0.14975c-0.1008,-0.0753 -0.15774,-0.1176 -0.22198,-0.16583c-0.09117,0.07191 -0.18581,0.14637 -0.28007,0.22082c0.01385,0.03172 0.0277,0.06304 0.04155,0.09476h-1.52421c0.00423,-0.06599 0.00847,-0.13283 0.0127,-0.19882c-0.02924,0.06811 -0.05732,0.13283 -0.08541,0.19882h-11.05146zM245.69281,187.95702c0.00116,0.11422 0.0577,0.22801 0.08963,0.3418c0.00962,0.00169 0.01884,0.00381 0.02847,0.0055c0.02039,-0.1984 0.04116,-0.39681 0.06271,-0.60367c-0.02731,-0.03469 -0.06886,-0.08756 -0.10656,-0.13537c-0.02693,0.13072 -0.0754,0.26144 -0.07424,0.39173zM245.28232,187.99043c-0.0077,-0.09899 -0.01577,-0.19713 -0.02346,-0.29569c-0.01385,-0.00043 -0.02732,-0.00042 -0.04117,-0.00085c-0.01577,0.04695 -0.03194,0.09392 -0.05501,0.16287c-0.03578,-0.10957 -0.06232,-0.19037 -0.10771,-0.32954c-0.07502,0.34562 -0.00077,0.48225 0.22736,0.46321zM244.51907,186.7645c0.01539,0.11676 0.17157,0.24071 -0.02578,0.32912c-0.01077,0.00466 0.0604,0.23013 0.09348,0.35281c0.01808,-0.00466 0.03578,-0.00931 0.05386,-0.01354c-0.07155,-0.21236 0.13465,-0.4738 -0.12157,-0.66839zM244.29286,186.03941c0.10541,0.04399 0.19928,0.08292 0.29276,0.12184c0.03501,-0.06684 0.07233,-0.13876 0.12772,-0.24493c-0.15773,0.04611 -0.28776,0.08418 -0.42049,0.1231zM242.90638,184.49874c0.0627,0.08799 0.11426,0.16033 0.16542,0.23182c0.11234,-0.20771 0.0327,-0.50891 0.28661,-0.64809c-0.12003,-0.03511 -0.12003,-0.03511 -0.34316,0.43276c-0.02578,-0.03469 -0.04617,-0.06176 -0.07194,-0.09645c-0.01808,0.03976 -0.03308,0.07234 -0.03693,0.07996zM242.19544,187.14396c0.14773,0.00169 0.25506,0.05922 0.24468,0.25848c0.02693,-0.06769 0.05347,-0.1358 0.08848,-0.22505c0.05694,0.0495 0.0981,0.08545 0.13965,0.12184c0.00808,-0.00804 0.01577,-0.01608 0.02385,-0.02411c-0.05271,-0.10661 -0.1058,-0.21321 -0.15812,-0.31854c-0.07117,0.03427 -0.12887,0.06218 -0.20004,0.09645c0,-0.13156 0,-0.24747 0,-0.36338c-0.01962,-0.00127 -0.03963,-0.00296 -0.05925,-0.00423c-0.02578,0.15017 -0.05155,0.30035 -0.07925,0.45856zM241.33331,185.70183c0.09271,-0.0148 0.16004,-0.02538 0.23813,-0.03765c0.0504,0.13325 -0.10541,0.49283 0.28507,0.27836c-0.10349,-0.16752 -0.2039,-0.33039 -0.27738,-0.44926c-0.07464,0.06346 -0.14426,0.12268 -0.24583,0.20855zM240.43271,185.43321c0.01692,0.00592 0.03424,0.01142 0.05155,0.01692c0.01846,-0.06684 0.03732,-0.13325 0.05578,-0.20009c0.02308,-0.00212 0.04656,-0.00423 0.06964,-0.00635c0.01424,0.12903 0.02847,0.25762 0.04001,0.36296c0.11003,-0.02115 0.19159,-0.03638 0.29469,-0.05626c-0.13426,-0.15695 -0.26045,-0.30543 -0.41318,-0.48437c-0.04117,0.15187 -0.07001,0.25931 -0.09848,0.36719zM242.47243,180.26504c0.04078,0.02073 0.07771,0.03976 0.11503,0.0588c-0.11964,0.31347 -0.11964,0.31347 0.02193,0.53725c0.08848,-0.17471 0.22274,-0.32277 0.2239,-0.4721c0.00116,-0.17344 -0.19313,-0.16117 -0.32585,-0.17133c-0.00731,-0.00043 -0.01577,0.02073 -0.035,0.04738zM235.67581,187.53822c-0.03078,-0.00635 -0.06155,-0.01269 -0.09232,-0.01904c-0.03693,0.24705 -0.07349,0.49452 -0.11042,0.742c0.03039,0.00592 0.06078,0.01142 0.09117,0.01692c0.03732,-0.24662 0.07464,-0.49326 0.11157,-0.73988zM236.49409,182.494c-0.0754,-0.01735 -0.1308,-0.02962 -0.17427,-0.03934c0.02578,0.1506 0.04847,0.28259 0.06424,0.37269c0.09887,0.02411 0.19582,0.04738 0.30007,0.07277c0.03654,-0.04738 0.08502,-0.11041 0.1385,-0.17979c-0.0377,-0.01523 -0.07348,-0.03003 -0.11849,-0.04823c0.03693,-0.07403 0.07233,-0.14468 0.11849,-0.2369c-0.12157,-0.04611 -0.23737,-0.08968 -0.40241,-0.15229c0.0427,0.12184 0.05617,0.16033 0.07387,0.2111zM235.84162,185.53094c-0.09156,0.0736 -0.13119,0.10576 -0.1812,0.14595c-0.0454,-0.12437 -0.08348,-0.22802 -0.11387,-0.31051c-0.04347,0.08418 -0.08348,0.16202 -0.09926,0.19248c0.09656,0.10068 0.19813,0.20729 0.34124,0.35746c0.01846,-0.13198 0.03232,-0.23436 0.05309,-0.38538zM235.42191,178.15327c0.02654,0.0901 0.05271,0.17894 0.07925,0.27032c0.08002,-0.08714 0.15889,-0.17344 0.25237,-0.27539c-0.04155,-0.09053 -0.04155,-0.09053 -0.33162,0.00507zM235.0649,172.56671c-0.0427,0.02707 -0.08348,0.0533 -0.1585,0.1011c0.11733,0.02115 0.2389,0.08334 0.28314,0.04315c0.13696,-0.1248 0.13888,-0.3067 0.06039,-0.50002c-0.32277,0.1764 -0.33661,0.20221 -0.18504,0.35577zM260.66174,175.05245v-3.72818h4.50838v17.35149h-3.38119l-2.07011,-2.27633c0.04539,-0.03299 0.09156,-0.0643 0.13619,-0.09518c0.22082,0.25255 0.35431,0.22801 0.43626,-0.07149c0.18966,0.04315 0.21852,-0.01058 0.15812,-0.32362c-0.21967,0.04527 -0.44126,0.08418 -0.65939,0.1396c-0.08117,0.02073 -0.1508,0.09561 -0.23236,0.11803c-0.01423,0.0038 -0.0277,0.00592 -0.04194,0.0093l-2.51136,-2.76155c0.2239,-0.11464 0.44741,-0.22886 0.67131,-0.3435c-0.01346,-0.02876 -0.02732,-0.05754 -0.04117,-0.0863c-0.22197,0.12987 -0.44434,0.25974 -0.66631,0.38961l-3.0688,-3.37452v8.67468h-2.56253c-0.00231,-0.01015 -0.00462,-0.02115 -0.00692,-0.0313c-0.01654,0.00169 -0.03309,0.00296 -0.04963,0.00423c0.00077,0.00931 0.00154,0.01819 0.00231,0.0275h-1.8916v-17.35107h3.38119l2.49559,2.74421c-0.16735,0.03172 -0.33392,0.06303 -0.51243,0.09729c0.05078,0.11549 0.0731,0.1671 0.11772,0.26863c0.12965,-0.14848 0.26737,-0.26355 0.41894,-0.3397l5.37012,5.9051v-1.39389c0.00538,0.07403 0.01539,0.14722 0.02347,0.22082c0.02462,-0.00339 0.04924,-0.00719 0.07386,-0.01057c-0.02847,-0.19037 -0.05309,-0.38116 -0.0881,-0.56983c-0.00115,-0.00592 -0.00692,-0.01184 -0.00923,-0.01819v-3.11647c0.01962,-0.00296 0.03847,-0.00466 0.06079,-0.00889c-0.0227,-0.01862 -0.03924,-0.03257 -0.06079,-0.04991zM251.75655,187.90245c-0.11926,-0.04442 -0.23351,-0.08883 -0.38009,-0.14341c0.00154,0.00761 -0.08502,-0.04653 -0.09541,-0.10068c-0.01924,0.00127 -0.13426,0.00296 -0.13426,0.00423c0,0.28681 0,0.57405 0,0.86129c0,0.00423 0.12887,0.00847 0.1558,0.01227c0,-0.07403 0.04963,-0.1506 0.03539,-0.22124c-0.03154,-0.15483 0.03808,-0.21998 0.17889,-0.2331c0.07656,-0.00719 0.16043,-0.04526 0.23583,-0.06937c-0.00038,-0.03638 0.00423,-0.07319 0.00385,-0.10999zM251.89158,176.74329c0.01731,0.00677 0.03424,0.01354 0.05155,0.02031c0.03385,-0.0533 0.09464,-0.10533 0.09656,-0.15991c0.00692,-0.18275 0.02078,-0.37438 -0.02039,-0.5474c-0.04771,-0.2001 0.01424,-0.28301 0.17351,-0.32785c-0.00116,-0.02073 -0.00231,-0.04146 -0.00346,-0.06218c-0.07502,0.0038 -0.15004,0.00762 -0.22544,0.01142c-0.03463,-0.04992 -0.07002,-0.1011 -0.10503,-0.15187c0.07733,0.4078 0.19889,0.80333 0.0327,1.21748zM252.2332,186.81187c-0.0177,-0.01184 -0.10695,-0.02411 -0.12464,-0.03638c-0.025,0.03172 0.15234,0.0643 -0.1158,0.1358c-0.00654,-0.13241 -0.0127,-0.26482 -0.01808,-0.39723c0.03501,0 0.07156,0 0.06886,0c0.03154,-0.42303 0.0627,-0.46745 0.10349,-0.76696c-0.07464,0.11549 -0.1785,0.19333 -0.18043,0.28301c-0.00346,0.16117 0.00154,0.32277 0.00808,0.48395c-0.02962,0 -0.05848,0 -0.05848,0c0,0 0,0.22928 0,0.41711c0.03116,-0.00719 0.05271,-0.01311 0.07656,-0.01946c0.00231,0.04654 0.00462,0.09264 0.00654,0.13918c0.0277,0.00931 0.0554,0.01904 0.0831,0.02834c0.0504,-0.08926 0.1008,-0.1781 0.1508,-0.26736zM252.62791,184.27114c-0.06886,0.29316 -0.30815,0.23478 -0.49281,0.30331c0.02424,0.04738 0.04348,0.08504 0.06694,0.13072c0.08387,-0.21786 0.50396,-0.00762 0.42587,-0.43403zM254.76803,174.41536c-0.04501,-0.0588 -0.08387,-0.10957 -0.12772,-0.1671c-0.19428,0.08841 -0.36932,0.16753 -0.54821,0.24875c0.0177,0.02876 0.02654,0.03976 0.03231,0.05287c0.00692,0.0148 0.01077,0.03131 0.01385,0.04019c-0.48973,-0.07234 -0.74556,0.36 -1.09987,0.56982c0.18735,0.04357 0.3647,0.12226 0.50781,-0.11083c0.0627,-0.10237 0.20197,-0.1561 0.31469,-0.21152c0.29891,-0.14637 0.60283,-0.28131 0.90714,-0.42218zM263.0146,175.47463c-0.03693,0.00254 -0.07387,0.00549 -0.11079,0.00804c0.02116,0.22547 0.04232,0.45138 0.06348,0.67685c0.01578,-0.00043 0.03154,-0.00042 0.04732,-0.00085c0,-0.22801 0,-0.45603 0,-0.68404zM263.49856,181.90894c-0.01231,-0.04695 -0.04116,-0.10618 -0.04116,-0.16329c0,0.44037 0,0.88076 0,1.32113c0,0 0.06925,-0.00043 0.09079,-0.00043c-0.01578,-0.38496 0.05193,-0.77118 -0.04963,-1.15741zM264.1968,185.56436c0.26929,-0.2792 0.30777,-0.78642 0.09695,-0.93278c0.01038,0.31262 0.10656,0.63624 -0.09695,0.93278zM263.80017,186.67482c0.06347,0.24832 0.1308,0.49537 0.18774,0.74538c0.01539,0.06726 -0.00462,0.14383 -0.0027,0.21617c0.00731,0.25255 0.01731,0.50552 0.02616,0.75807c0.03154,-0.1616 0.00231,-0.32616 0.03694,-0.47295c0.10887,-0.46365 -0.06771,-0.85495 -0.24814,-1.24667zM263.56396,180.92413c-0.0177,0.00043 -0.03578,0.00127 -0.05385,0.00169c0,0.23309 0,0.46618 0,0.69969c0.00462,-0.03003 0.0127,-0.05542 0.02731,-0.07107c0.21082,-0.22886 -0.03386,-0.4243 0.02654,-0.63032zM262.93574,175.07613c0.03924,0.05584 0.07848,0.1121 0.11811,0.16836c0.05347,-0.08503 0.18312,0.00338 0.22851,-0.13368c0.01693,-0.05119 0.12657,-0.06557 0.25083,-0.1231c-0.02539,-0.04146 -0.08502,-0.18106 -0.11041,-0.17387c-0.18428,0.05246 -0.12465,-0.0973 -0.13119,-0.17936c-0.00423,-0.04992 0.02116,-0.10237 0.03309,-0.15399c-0.02385,-0.00804 -0.04771,-0.01608 -0.07155,-0.02411c-0.03386,0.14552 -0.07925,0.28978 -0.0981,0.43784c-0.01693,0.1341 -0.0454,0.21533 -0.21929,0.18191zM262.79917,171.83021c0.01,0.14679 0.0227,0.32869 0.03539,0.5106c0.05001,-0.03934 0.05578,-0.07487 0.05539,-0.11041c-0.00038,-0.04357 -0.02231,-0.09814 -0.00577,-0.12902c0.1208,-0.22632 0.12311,-0.22463 0.06771,-0.46068c-0.04501,0.05584 -0.09195,0.11422 -0.15273,0.18952zM261.42461,179.7096c0.01539,0.15822 0.03078,0.31685 0.04039,0.41753c0.09695,-0.05119 0.18658,-0.11253 0.28429,-0.14637c0.18658,-0.06473 0.37779,-0.11295 0.56706,-0.16836c-0.00231,-0.01692 -0.005,-0.03427 -0.00731,-0.05119c-0.0377,-0.00423 -0.0781,-0.02031 -0.11311,-0.011c-0.1535,0.04019 -0.30469,0.09222 -0.45857,0.13114c-0.13388,0.03385 -0.24082,0.00338 -0.25467,-0.18614c-0.01923,0.00466 -0.03847,0.00931 -0.05809,0.01439zM261.31728,180.43087c0.02116,0.18867 0.04194,0.37692 0.0631,0.56728c0.1358,-0.1984 0.01769,-0.38496 -0.0631,-0.56728zM260.75945,187.27298c0.02308,0.00339 0.04578,0.00634 0.06848,0.00973c0.03539,-0.26736 0.0704,-0.53513 0.1058,-0.80291c-0.01578,0.00043 -0.03193,0.00127 -0.04771,0.00212c-0.04194,0.26355 -0.08425,0.52752 -0.12657,0.79107z" fill="#24b6e2"/><path d="M283.66234,175.14382v13.63389h-4.50838v-3.71803h-0.02654c0.00346,-0.00466 0.00577,-0.00761 0.00923,-0.01227c-0.0377,-0.01523 -0.07348,-0.03003 -0.11849,-0.04823c0.03693,-0.07403 0.07233,-0.1451 0.11849,-0.2369c-0.12156,-0.04611 -0.23737,-0.08968 -0.4024,-0.15229c0.0427,0.12184 0.05617,0.16033 0.07387,0.21109c-0.07578,-0.01735 -0.13119,-0.02961 -0.17466,-0.03934c0.01846,0.10661 0.03424,0.19755 0.04809,0.27751h-6.28995v3.71802h-4.50838v-13.63304l3.38118,-3.71803h7.64412c0.08233,0.16287 0.16388,0.32489 0.24852,0.49241c0.15619,-0.11041 0.12926,-0.21829 0.04231,-0.35238c-0.03001,-0.04654 -0.0627,-0.09349 -0.0954,-0.14045h1.17681zM269.19198,179.31408c-0.09464,0 -0.17388,0 -0.26698,0c0.01654,-0.24325 -0.15658,-0.17006 -0.25814,-0.19036c-0.04232,-0.00846 -0.09926,0.06768 -0.14927,0.10533c0.31046,-0.14214 0.33738,0.27116 0.54321,0.28767c0.0327,-0.05077 0.07578,-0.11761 0.13119,-0.20264zM269.87406,178.37622c-0.16888,0.31093 -0.16888,0.31093 -0.07732,0.35281c0,0.10957 0,0.20051 0,0.29104c0.02578,0.00043 0.05155,0.00084 0.07732,0.00127c0,-0.21194 0,-0.42346 0,-0.64513zM270.62348,178.97987c-0.08387,-0.14341 -0.14773,-0.25254 -0.23967,-0.40991c-0.08002,0.32278 -0.08002,0.32277 0.23967,0.40991zM271.52907,181.51173c-0.08848,-0.27328 -0.17696,-0.54655 -0.26544,-0.81983c-0.02462,0.01015 -0.04963,0.0203 -0.07425,0.03046c0.02731,0.07614 0.05425,0.15229 0.08618,0.24324c-0.0027,0.00084 -0.04001,0.01142 -0.07694,0.02157c0.10503,0.19332 0.20044,0.36931 0.29623,0.54529c0.01154,-0.00677 0.02308,-0.01354 0.03423,-0.02073zM277.37892,174.89298c-0.0427,0.02707 -0.08348,0.0533 -0.1585,0.10111c0.11734,0.02115 0.2389,0.08333 0.28314,0.04314c0.13696,-0.1248 0.13888,-0.30669 0.0604,-0.50002c-0.32277,0.1764 -0.337,0.20178 -0.18505,0.35577zM275.75931,172.22407c0.08502,-0.01862 0.14042,-0.03088 0.21313,-0.04653c0.04424,0.16879 0.18196,0.17598 0.37047,0.10787c-0.05309,-0.12649 -0.10079,-0.24832 -0.15811,-0.36465c-0.0077,-0.01608 -0.06386,-0.00338 -0.09771,-0.00381c0.05309,0.14848 -0.06963,0.11676 -0.10849,0.10026c-0.13965,-0.05964 -0.17235,0.03172 -0.21929,0.20686zM275.19571,173.2791c0.09695,0.3655 0.10656,0.37226 0.27468,0.26101c-0.0881,-0.08376 -0.1608,-0.15313 -0.27468,-0.26101zM278.06678,180.47445c-0.04116,-0.09053 -0.04116,-0.09053 -0.33123,0.00508c0.02654,0.0901 0.05271,0.17894 0.07925,0.27032c0.08002,-0.08714 0.15888,-0.17345 0.25198,-0.2754zM279.15396,180.10134v-2.47854l-1.12719,-1.23948h-4.50838l-1.12719,1.23948v2.47854h6.76237zM282.76751,184.83845c0.04078,-0.07742 0.08078,-0.15313 0.12233,-0.23182c-0.06079,-0.03723 -0.11118,-0.06811 -0.16157,-0.09899c0.00038,-0.00127 0.00038,-0.00212 0.00038,-0.00339c0.0577,0 0.11618,0 0.19043,0c-0.04847,-0.14721 -0.0904,-0.27539 -0.13272,-0.40357c-0.01,0.00169 -0.01962,0.00297 -0.02924,0.00466c-0.00962,0.13283 -0.01923,0.26608 -0.02885,0.39891c-0.00154,0 -0.00346,0 -0.00539,0l0.005,0.0055c-0.15427,0.05584 -0.14696,0.11887 0.03963,0.32869zM283.25839,187.87666c-0.13427,-0.15695 -0.26045,-0.30543 -0.41318,-0.48437c-0.04078,0.15187 -0.07001,0.25932 -0.09887,0.36719c0.01693,0.00592 0.03424,0.01142 0.05156,0.01692c0.01846,-0.06684 0.03731,-0.13325 0.05578,-0.2001c0.02308,-0.00212 0.04655,-0.00423 0.06963,-0.00635c0.01423,0.12903 0.02847,0.25763 0.04001,0.36297c0.11003,-0.02115 0.19159,-0.0368 0.29507,-0.05626zM211.91148,173.08535l1.87198,2.05847v13.63347h-4.12829c-0.03654,-0.0588 -0.07309,-0.11803 -0.10964,-0.17683c-0.00038,0.06346 0.01385,0.12056 0.02731,0.17683h-0.29776v-1.20987c0.05963,-0.04061 0.11003,-0.10195 0.14735,-0.19671c0.04001,-0.10195 0.11079,-0.18909 0.16581,-0.28385c0.00616,-0.01057 0.00077,-0.02919 0.00077,-0.05838c-0.0377,0.01142 -0.07194,0.022 -0.0981,0.03004c-0.11733,-0.22378 0.06463,-0.31685 0.16773,-0.45011c-0.16504,0.00339 -0.23198,0.0791 -0.24006,0.24578c-0.00885,0.18529 -0.05155,0.35112 -0.1435,0.48183v-2.27718h-6.03412c0.02039,-0.14637 0.04193,-0.29528 -0.11888,-0.41753c0.01539,0.11676 0.17158,0.2407 -0.02578,0.32912c-0.00423,0.00212 0.00539,0.04061 0.01847,0.08841h-0.60207v3.71802h-4.50838v-13.63304l3.38119,-3.71802h9.01713l1.37763,1.51488c-0.04501,0.03469 -0.09079,0.06768 -0.13888,0.09603c0.09348,0.022 0.18465,0.05245 0.27006,0.04865zM200.42337,188.19309c-0.08848,0.15483 -0.14195,0.24832 -0.22351,0.39173c0.08848,0 0.21351,0.00888 0.21466,-0.00127c0.01424,-0.11125 0.00885,-0.22505 0.00885,-0.39046zM200.45992,183.81937c-0.10387,-0.16752 -0.20428,-0.33039 -0.27776,-0.44926c-0.07464,0.06346 -0.14426,0.12268 -0.24544,0.20855c0.09271,-0.0148 0.16004,-0.02538 0.23813,-0.03765c0.05001,0.13325 -0.1058,0.49283 0.28507,0.27835zM201.29512,185.15192c-0.05309,-0.10661 -0.1058,-0.21321 -0.15812,-0.31855c-0.07117,0.03427 -0.12888,0.06218 -0.20005,0.09645c0,-0.13156 0,-0.24747 0,-0.36338c-0.01962,-0.00169 -0.03963,-0.00296 -0.05925,-0.00423c-0.02578,0.1506 -0.05155,0.30077 -0.07886,0.45899c0.14773,0.00169 0.25506,0.05922 0.24468,0.25848c0.02693,-0.06769 0.05347,-0.1358 0.08848,-0.22505c0.05655,0.0495 0.09771,0.08545 0.13926,0.12184c0.0077,-0.00804 0.01577,-0.01608 0.02385,-0.02454zM204.77786,180.11614c-0.10849,0.21278 -0.21697,0.42557 -0.32854,0.64427c0.2616,-0.11887 0.25891,-0.40526 0.32854,-0.64427zM209.27547,180.10134v-2.47854l-1.12719,-1.23948h-4.50838l-1.12719,1.23948v2.47854h6.76237zM210.16183,187.56234c-0.08425,-0.38326 -0.15658,-0.71238 -0.2289,-1.04192c-0.01654,0.00169 -0.03308,0.00296 -0.04962,0.00423c0.02885,0.31347 0.05347,0.62735 0.09271,0.93913c0.00423,0.03258 0.09464,0.05246 0.18581,0.09857zM210.37496,185.89094c-0.00038,-0.0368 -0.00538,-0.07361 -0.00577,-0.11041c-0.09695,-0.03638 -0.20005,-0.07361 -0.31239,-0.11506c0,-0.04188 0,-0.08334 0,-0.12522c0,-0.00127 -0.03886,-0.00296 -0.01924,-0.00423c0.01039,0.05415 -0.05655,0.10787 -0.05809,0.10068c0.0277,0.01015 0.05116,0.01862 0.07733,0.02835c0,0.10914 0,0.21871 0,0.32828c-0.04924,0.03469 -0.0604,0.0956 -0.03924,0.19924c0.01308,0.06599 0.03616,0.13791 0.03924,0.20771c0,0 0,0.00042 0,0.00084c0,0.0038 -0.02462,0.00804 0.00192,0.01227c0,-0.00466 -0.00192,-0.00888 -0.00192,-0.01354c0,-0.13537 0,-0.27116 0,-0.40695c0.02424,-0.01692 0.05501,-0.02962 0.10118,-0.03385c0.07694,-0.00719 0.14157,-0.04526 0.21697,-0.06811zM210.54577,174.64042c0.03385,-0.0533 0.09463,-0.10533 0.09656,-0.15991c0.00692,-0.18275 0.02078,-0.37438 -0.02039,-0.5474c-0.04771,-0.2001 0.01424,-0.28301 0.17351,-0.32785c-0.00116,-0.02073 -0.00231,-0.04146 -0.00347,-0.06218c-0.07502,0.0038 -0.15004,0.00762 -0.22544,0.01142c-0.03463,-0.04992 -0.07002,-0.1011 -0.10503,-0.15187c0.07733,0.4078 0.19928,0.80291 0.03308,1.21791c0.01692,0.00677 0.03425,0.01354 0.05117,0.01989zM210.85815,184.66628c-0.01308,0.00761 -0.03308,0.01523 -0.02193,0.02284c-0.00346,0.00592 -0.00654,0.01185 -0.01,0.01777c0,-0.12733 0,-0.20644 0,-0.20644c0,0 -0.17466,0 -0.17966,0c0.03116,-0.42303 0.06232,-0.52202 0.1031,-0.8211c-0.07464,0.11506 -0.17851,0.13833 -0.18043,0.22801c-0.00692,0.3397 0.01885,0.68023 0.0327,1.02035c0.0277,0.00931 0.0554,0.01904 0.0831,0.02835c0.04732,-0.08292 0.09426,-0.16625 0.14119,-0.24916c0,0.03172 0,0.06388 0,0.1011c0,-0.07614 0.01116,-0.11041 0.03193,-0.14172zM211.23093,182.14797c-0.06886,0.29316 -0.30815,0.23478 -0.49281,0.30331c0.02424,0.04738 0.04348,0.08503 0.06694,0.13071c0.08387,-0.21786 0.50396,-0.00761 0.42587,-0.43403zM211.79722,187.18204c-0.01808,-0.00169 -0.03578,-0.00296 -0.05386,-0.00465c-0.0277,0.38326 -0.05501,0.76696 -0.08271,1.15065c0.01808,0.00169 0.03616,0.00296 0.05424,0.00465c0.02731,-0.38369 0.05502,-0.76738 0.08233,-1.15064zM228.4354,183.81937l4.50914,4.95709h-1.16105c0,-0.13325 0,-0.27286 0,-0.43995c-0.04578,0.18444 -0.07694,0.30924 -0.10925,0.43995h-0.04924c-0.02654,-0.01565 -0.04963,-0.02919 -0.0704,-0.04146c-0.00885,0.01396 -0.01731,0.0275 -0.02616,0.04146h-5.34665l-3.71473,-4.08479c-0.02077,-0.04654 -0.04231,-0.09349 -0.06386,-0.14003c0.00808,0.03215 0.01577,0.06473 0.02423,0.09688l-0.75402,-0.82914h-1.12719v4.95709h-3.42504c-0.00538,-0.02031 -0.00501,-0.03596 -0.01501,-0.05965c-0.04655,0.022 -0.08617,0.04062 -0.12657,0.05965h-0.94176v-7.7051c0.08041,-0.04103 0.16119,-0.08249 0.2416,-0.12353c-0.01346,-0.02876 -0.02732,-0.05754 -0.04117,-0.0863c-0.06694,0.03892 -0.13349,0.07826 -0.20043,0.11718v-9.5529h12.39794l3.38119,3.71802v4.95751zM229.33446,178.49763c0.02693,0.07614 0.05425,0.1523 0.08617,0.24325c-0.00308,0.00084 -0.0404,0.01142 -0.07733,0.02157c0.10503,0.19332 0.20043,0.3693 0.29622,0.54529c0.01154,-0.00677 0.02309,-0.01354 0.03463,-0.02031c-0.08848,-0.27328 -0.17696,-0.54655 -0.26545,-0.81983c-0.02462,0.01015 -0.04963,0.02031 -0.07425,0.03003zM228.76778,176.75516c-0.08387,-0.14341 -0.14772,-0.25255 -0.23967,-0.40992c-0.08002,0.32278 -0.08002,0.32278 0.23967,0.40992zM231.49997,187.49973c0.00923,0.09941 0.04117,0.19629 0.06271,0.28893c0.04924,0.07403 0.10002,0.15017 0.15657,0.2352c0.00885,-0.02453 0.02731,-0.05119 0.02462,-0.07487c-0.01846,-0.17048 -0.03655,-0.34139 -0.06694,-0.50975c-0.005,-0.02707 -0.08002,-0.06599 -0.1058,-0.05457c-0.03385,0.01523 -0.07502,0.07741 -0.07117,0.11506zM221.53876,172.95295c0.03924,0.05584 0.07887,0.1121 0.11811,0.16836c0.05347,-0.08503 0.18312,0.00339 0.22851,-0.13367c0.01692,-0.05119 0.12657,-0.06557 0.25083,-0.12311c-0.02539,-0.04146 -0.08502,-0.18106 -0.11041,-0.17387c-0.18428,0.05246 -0.12465,-0.0973 -0.13119,-0.17936c-0.00423,-0.04992 0.02116,-0.10237 0.03308,-0.15399c-0.02385,-0.00804 -0.0477,-0.01607 -0.07155,-0.02411c-0.03385,0.14552 -0.07925,0.28978 -0.0981,0.43784c-0.01731,0.1341 -0.04539,0.21575 -0.21928,0.18191zM221.50683,173.35949c0.02116,0.22547 0.04231,0.45138 0.06347,0.67685c0.01577,-0.00043 0.03155,-0.00042 0.04732,-0.00084c0,-0.22801 0,-0.45603 0,-0.68404c-0.03693,0.00296 -0.07386,0.0055 -0.11079,0.00804zM218.88082,172.61579c0.06809,0.35789 0.14273,0.41796 0.44511,0.36338c-0.17927,-0.14637 -0.312,-0.25509 -0.44511,-0.36338zM218.87544,186.16c-0.03,-0.16371 -0.06694,-0.32616 -0.08886,-0.49114c-0.02462,-0.18698 -0.05809,-0.37776 -0.04617,-0.56347c0.01039,-0.16498 0.03577,-0.16287 -0.02886,-0.28301c-0.09002,0.40145 -0.03347,0.99793 0.16389,1.33763zM219.05356,183.78595c-0.21966,0.04527 -0.44126,0.08418 -0.65939,0.1396c-0.08118,0.02073 -0.15118,0.0956 -0.23236,0.11802c-0.14888,0.04146 -0.30238,0.06218 -0.40086,0.08122c0.04424,0.06134 0.10002,0.13875 0.16081,0.22251c0.02885,-0.01946 0.06924,-0.04611 0.11848,-0.0791c0.0454,0.06091 0.07887,0.10618 0.10657,0.14299c0.0604,-0.04738 0.10926,-0.08714 0.16004,-0.12437c0.0504,-0.0368 0.10234,-0.07149 0.15196,-0.10576c0.22082,0.25255 0.35431,0.22801 0.43626,-0.07149c0.18928,0.04272 0.21851,-0.01057 0.1585,-0.32362zM219.28977,187.60761c0,-0.54656 0,-1.09269 0,-1.63925c0,0.27963 -0.00847,0.55713 -0.00847,0.83464c0,0.27158 -0.01115,0.54275 0.0027,0.81433c0.01385,-0.00339 0.00577,-0.00634 0.00577,-0.00973zM219.36286,176.69255c-0.02847,-0.19037 -0.05309,-0.38116 -0.0881,-0.56983c-0.00731,-0.03976 -0.04578,-0.08672 -0.0804,-0.10195c-0.02885,-0.01269 -0.10002,0.00888 -0.10464,0.02876c-0.01231,0.05161 -0.01385,0.12099 0.00962,0.16414c0.04617,0.08461 0.15696,0.11633 0.16312,0.23986c0.00423,0.08334 0.01693,0.16626 0.02616,0.24959c0.02462,-0.00339 0.04925,-0.00719 0.07425,-0.01058zM219.53675,184.35662c-0.01577,0.00043 -0.03193,0.00127 -0.04771,0.00212c-0.04232,0.26355 -0.08425,0.52752 -0.12656,0.79107c0.02308,0.00339 0.04578,0.00634 0.06848,0.00972c0.03501,-0.26778 0.0704,-0.53555 0.1058,-0.80291zM219.91992,178.30768c0.02116,0.18867 0.04193,0.37692 0.06309,0.56728c0.13619,-0.1984 0.01809,-0.38453 -0.06309,-0.56728zM222.11236,180.94316c-0.01577,-0.38496 0.0327,-0.77118 -0.06886,-1.15699c-0.0127,-0.04695 -0.06079,-0.10576 -0.06079,-0.16329c0,0.44037 0,0.88075 0,1.32112c0,-0.00043 0.1081,-0.00042 0.12965,-0.00084zM222.89678,182.50839c0.01,0.31262 0.10618,0.63624 -0.09695,0.93278c0.26929,-0.27963 0.30777,-0.78684 0.09695,-0.93278zM226.72922,176.98571c0.24583,-0.05372 0.2866,0.29147 0.47588,0.3067c0.03308,-0.05077 0.07617,-0.11761 0.13119,-0.20264c-0.09464,0 -0.17389,0 -0.26699,0c0.01654,-0.24325 -0.15657,-0.17006 -0.25814,-0.19036c-0.02962,-0.00592 -0.06617,0.02919 -0.10233,0.06388l-0.52743,-0.57998h-5.63519v1.31647c-0.06848,0.02031 -0.13696,0.04146 -0.2062,0.0588c-0.13388,0.03385 -0.24083,0.00338 -0.25467,-0.18614c-0.01924,0.00466 -0.03848,0.0093 -0.05771,0.01396c0.01539,0.15822 0.03078,0.31685 0.0404,0.41753c0.09695,-0.05119 0.18659,-0.11252 0.2843,-0.14637c0.06386,-0.022 0.12926,-0.0385 0.19389,-0.05754v1.06181h1.56691c0,0.21363 0,0.42684 0,0.64047c0.00462,-0.03003 0.0127,-0.05542 0.02732,-0.07107c0.18966,-0.20602 0.01231,-0.38496 0.01885,-0.5694h4.02211l1.12719,-1.23948zM228.01876,176.15149c-0.16888,0.31093 -0.16888,0.31093 -0.07733,0.35281c0,0.10957 0,0.20051 0,0.29104c0.02578,0.00043 0.05155,0.00084 0.07733,0.00127c0,-0.21151 0,-0.42345 0,-0.64512zM234.07096,171.42581h13.52513v4.95708h-9.01676v1.23949h9.01714v4.95835h-1.01909c0.01885,-0.07953 0.03424,-0.1616 0.05656,-0.23901c-0.04039,0.07869 -0.08156,0.15948 -0.12195,0.23901h-5.58209c0.03463,-0.06599 0.06925,-0.13114 0.10464,-0.1984c-0.06079,-0.03723 -0.11118,-0.06811 -0.16157,-0.09899c0.00038,-0.00127 0.00038,-0.00212 0.00038,-0.00339c0.0577,0 0.11618,0 0.19043,0c-0.04847,-0.14721 -0.09041,-0.27539 -0.13272,-0.40357c-0.01,0.00169 -0.01962,0.00296 -0.02924,0.00465c-0.00962,0.13283 -0.01923,0.26609 -0.02885,0.39892c-0.00154,0 -0.00347,0 -0.00539,0l0.00501,0.0055c-0.14426,0.05246 -0.14119,0.11549 0.01231,0.29485h-2.30555v1.23948h5.93333c-0.06155,0.02158 -0.12118,0.04273 -0.18543,0.06515c0.005,0.09561 0.01,0.20136 0.01693,0.34435c0.11003,-0.05626 0.20274,-0.10364 0.312,-0.15948c-0.00692,-0.02792 -0.02116,-0.08504 -0.04501,-0.18022c0.0754,0.05203 0.1131,0.07784 0.1508,0.10365c0.01077,-0.01439 0.02116,-0.02876 0.03194,-0.04315c-0.05078,-0.04738 -0.09887,-0.09222 -0.14042,-0.13072h2.94185v4.95666h-0.11002c-0.00346,-0.0423 -0.00577,-0.08334 -0.01193,-0.12141c-0.0077,-0.0495 -0.02039,-0.09772 -0.03077,-0.14679c-0.02693,0.03554 -0.06464,0.06642 -0.07849,0.10745c-0.01692,0.05034 -0.02885,0.10406 -0.04116,0.16117h-0.56167c0.12965,-0.04654 0.26084,-0.09349 0.41857,-0.14975c-0.1008,-0.0753 -0.15774,-0.1176 -0.22198,-0.16583c-0.09117,0.07191 -0.18581,0.14637 -0.28007,0.22082c0.01385,0.03172 0.0277,0.06304 0.04155,0.09476h-1.52421c0.00423,-0.06599 0.00847,-0.13283 0.0127,-0.19882c-0.02924,0.06811 -0.05732,0.13283 -0.08541,0.19882h-11.05146zM246.15114,188.05856c0.00116,0.11422 0.0577,0.22801 0.08963,0.3418c0.00962,0.00169 0.01884,0.00381 0.02847,0.0055c0.02039,-0.1984 0.04116,-0.39681 0.06271,-0.60367c-0.02731,-0.03469 -0.06886,-0.08756 -0.10656,-0.13537c-0.02693,0.13072 -0.0754,0.26144 -0.07424,0.39173zM245.74065,188.09197c-0.0077,-0.09899 -0.01577,-0.19713 -0.02346,-0.29569c-0.01385,-0.00043 -0.02732,-0.00042 -0.04117,-0.00085c-0.01577,0.04695 -0.03194,0.09392 -0.05501,0.16287c-0.03578,-0.10957 -0.06232,-0.19037 -0.10771,-0.32954c-0.07502,0.34562 -0.00077,0.48225 0.22736,0.46321zM244.9774,186.86604c0.01539,0.11676 0.17157,0.24071 -0.02578,0.32912c-0.01077,0.00466 0.0604,0.23013 0.09348,0.35281c0.01808,-0.00466 0.03578,-0.00931 0.05386,-0.01354c-0.07155,-0.21236 0.13465,-0.4738 -0.12157,-0.66839zM244.75119,186.14095c0.10541,0.04399 0.19928,0.08292 0.29276,0.12184c0.03501,-0.06684 0.07233,-0.13876 0.12772,-0.24493c-0.15773,0.04611 -0.28776,0.08418 -0.42049,0.1231zM243.36471,184.60028c0.0627,0.08799 0.11426,0.16033 0.16542,0.23182c0.11234,-0.20771 0.0327,-0.50891 0.28661,-0.64809c-0.12003,-0.03511 -0.12003,-0.03511 -0.34316,0.43276c-0.02578,-0.03469 -0.04617,-0.06176 -0.07194,-0.09645c-0.01808,0.03976 -0.03308,0.07234 -0.03693,0.07996zM242.65377,187.2455c0.14773,0.00169 0.25506,0.05922 0.24468,0.25848c0.02693,-0.06769 0.05347,-0.1358 0.08848,-0.22505c0.05694,0.0495 0.0981,0.08545 0.13965,0.12184c0.00808,-0.00804 0.01577,-0.01608 0.02385,-0.02411c-0.05271,-0.10661 -0.1058,-0.21321 -0.15812,-0.31854c-0.07117,0.03427 -0.12887,0.06218 -0.20004,0.09645c0,-0.13156 0,-0.24747 0,-0.36338c-0.01962,-0.00127 -0.03963,-0.00296 -0.05925,-0.00423c-0.02578,0.15017 -0.05155,0.30035 -0.07925,0.45856zM241.79164,185.80337c0.09271,-0.0148 0.16004,-0.02538 0.23813,-0.03765c0.0504,0.13325 -0.10541,0.49283 0.28507,0.27836c-0.10349,-0.16752 -0.2039,-0.33039 -0.27738,-0.44926c-0.07464,0.06346 -0.14426,0.12268 -0.24583,0.20855zM240.89104,185.53475c0.01692,0.00592 0.03424,0.01142 0.05155,0.01692c0.01846,-0.06684 0.03732,-0.13325 0.05578,-0.20009c0.02308,-0.00212 0.04656,-0.00423 0.06964,-0.00635c0.01424,0.12903 0.02847,0.25762 0.04001,0.36296c0.11003,-0.02115 0.19159,-0.03638 0.29469,-0.05626c-0.13426,-0.15695 -0.26045,-0.30543 -0.41318,-0.48437c-0.04117,0.15187 -0.07001,0.25931 -0.09848,0.36719zM242.93076,180.36658c0.04078,0.02073 0.07771,0.03976 0.11503,0.0588c-0.11964,0.31347 -0.11964,0.31347 0.02193,0.53725c0.08848,-0.17471 0.22274,-0.32277 0.2239,-0.4721c0.00116,-0.17344 -0.19313,-0.16117 -0.32585,-0.17133c-0.00731,-0.00043 -0.01577,0.02073 -0.035,0.04738zM236.13414,187.63976c-0.03078,-0.00635 -0.06155,-0.01269 -0.09232,-0.01904c-0.03693,0.24705 -0.07349,0.49452 -0.11042,0.742c0.03039,0.00592 0.06078,0.01142 0.09117,0.01692c0.03732,-0.24662 0.07464,-0.49326 0.11157,-0.73988zM236.95242,182.59554c-0.0754,-0.01735 -0.1308,-0.02962 -0.17427,-0.03934c0.02578,0.1506 0.04847,0.28259 0.06424,0.37269c0.09887,0.02411 0.19582,0.04738 0.30007,0.07277c0.03654,-0.04738 0.08502,-0.11041 0.1385,-0.17979c-0.0377,-0.01523 -0.07348,-0.03003 -0.11849,-0.04823c0.03693,-0.07403 0.07233,-0.14468 0.11849,-0.2369c-0.12157,-0.04611 -0.23737,-0.08968 -0.40241,-0.15229c0.0427,0.12184 0.05617,0.16033 0.07387,0.2111zM236.29995,185.63248c-0.09156,0.0736 -0.13119,0.10576 -0.1812,0.14595c-0.0454,-0.12437 -0.08348,-0.22802 -0.11387,-0.31051c-0.04347,0.08418 -0.08348,0.16202 -0.09926,0.19248c0.09656,0.10068 0.19813,0.20729 0.34124,0.35746c0.01846,-0.13198 0.03232,-0.23436 0.05309,-0.38538zM235.88024,178.25481c0.02654,0.0901 0.05271,0.17894 0.07925,0.27032c0.08002,-0.08714 0.15889,-0.17344 0.25237,-0.27539c-0.04155,-0.09053 -0.04155,-0.09053 -0.33162,0.00507zM235.52323,172.66825c-0.0427,0.02707 -0.08348,0.0533 -0.1585,0.1011c0.11733,0.02115 0.2389,0.08334 0.28314,0.04315c0.13696,-0.1248 0.13888,-0.3067 0.06039,-0.50002c-0.32277,0.1764 -0.33661,0.20221 -0.18504,0.35577zM261.12007,175.15399v-3.72818h4.50838v17.35149h-3.38119l-2.07011,-2.27633c0.04539,-0.03299 0.09156,-0.0643 0.13619,-0.09518c0.22082,0.25255 0.35431,0.22801 0.43626,-0.07149c0.18966,0.04315 0.21852,-0.01058 0.15812,-0.32362c-0.21967,0.04527 -0.44126,0.08418 -0.65939,0.1396c-0.08117,0.02073 -0.1508,0.09561 -0.23236,0.11803c-0.01423,0.0038 -0.0277,0.00592 -0.04194,0.0093l-2.51136,-2.76155c0.2239,-0.11464 0.44741,-0.22886 0.67131,-0.3435c-0.01346,-0.02876 -0.02732,-0.05754 -0.04117,-0.0863c-0.22197,0.12987 -0.44434,0.25974 -0.66631,0.38961l-3.0688,-3.37452v8.67468h-2.56253c-0.00231,-0.01015 -0.00462,-0.02115 -0.00692,-0.0313c-0.01654,0.00169 -0.03309,0.00296 -0.04963,0.00423c0.00077,0.00931 0.00154,0.01819 0.00231,0.0275h-1.8916v-17.35107h3.38119l2.49559,2.74421c-0.16735,0.03172 -0.33392,0.06303 -0.51243,0.09729c0.05078,0.11549 0.0731,0.1671 0.11772,0.26863c0.12965,-0.14848 0.26737,-0.26355 0.41894,-0.3397l5.37012,5.9051v-1.39389c0.00538,0.07403 0.01539,0.14722 0.02347,0.22082c0.02462,-0.00339 0.04924,-0.00719 0.07386,-0.01057c-0.02847,-0.19037 -0.05309,-0.38116 -0.0881,-0.56983c-0.00115,-0.00592 -0.00692,-0.01184 -0.00923,-0.01819v-3.11647c0.01962,-0.00296 0.03847,-0.00466 0.06079,-0.00889c-0.0227,-0.01862 -0.03924,-0.03257 -0.06079,-0.04991zM252.21488,188.00399c-0.11926,-0.04442 -0.23351,-0.08883 -0.38009,-0.14341c0.00154,0.00761 -0.08502,-0.04653 -0.09541,-0.10068c-0.01924,0.00127 -0.13426,0.00296 -0.13426,0.00423c0,0.28681 0,0.57405 0,0.86129c0,0.00423 0.12887,0.00847 0.1558,0.01227c0,-0.07403 0.04963,-0.1506 0.03539,-0.22124c-0.03154,-0.15483 0.03808,-0.21998 0.17889,-0.2331c0.07656,-0.00719 0.16043,-0.04526 0.23583,-0.06937c-0.00038,-0.03638 0.00423,-0.07319 0.00385,-0.10999zM252.34991,176.84483c0.01731,0.00677 0.03424,0.01354 0.05155,0.02031c0.03385,-0.0533 0.09464,-0.10533 0.09656,-0.15991c0.00692,-0.18275 0.02078,-0.37438 -0.02039,-0.5474c-0.04771,-0.2001 0.01424,-0.28301 0.17351,-0.32785c-0.00116,-0.02073 -0.00231,-0.04146 -0.00346,-0.06218c-0.07502,0.0038 -0.15004,0.00762 -0.22544,0.01142c-0.03463,-0.04992 -0.07002,-0.1011 -0.10503,-0.15187c0.07733,0.4078 0.19889,0.80333 0.0327,1.21748zM252.69153,186.91341c-0.0177,-0.01184 -0.10695,-0.02411 -0.12464,-0.03638c-0.025,0.03172 0.15234,0.0643 -0.1158,0.1358c-0.00654,-0.13241 -0.0127,-0.26482 -0.01808,-0.39723c0.03501,0 0.07156,0 0.06886,0c0.03154,-0.42303 0.0627,-0.46745 0.10349,-0.76696c-0.07464,0.11549 -0.1785,0.19333 -0.18043,0.28301c-0.00346,0.16117 0.00154,0.32277 0.00808,0.48395c-0.02962,0 -0.05848,0 -0.05848,0c0,0 0,0.22928 0,0.41711c0.03116,-0.00719 0.05271,-0.01311 0.07656,-0.01946c0.00231,0.04654 0.00462,0.09264 0.00654,0.13918c0.0277,0.00931 0.0554,0.01904 0.0831,0.02834c0.0504,-0.08926 0.1008,-0.1781 0.1508,-0.26736zM253.08624,184.37268c-0.06886,0.29316 -0.30815,0.23478 -0.49281,0.30331c0.02424,0.04738 0.04348,0.08504 0.06694,0.13072c0.08387,-0.21786 0.50396,-0.00762 0.42587,-0.43403zM255.22636,174.5169c-0.04501,-0.0588 -0.08387,-0.10957 -0.12772,-0.1671c-0.19428,0.08841 -0.36932,0.16753 -0.54821,0.24875c0.0177,0.02876 0.02654,0.03976 0.03231,0.05287c0.00692,0.0148 0.01077,0.03131 0.01385,0.04019c-0.48973,-0.07234 -0.74556,0.36 -1.09987,0.56982c0.18735,0.04357 0.3647,0.12226 0.50781,-0.11083c0.0627,-0.10237 0.20197,-0.1561 0.31469,-0.21152c0.29891,-0.14637 0.60283,-0.28131 0.90714,-0.42218zM263.47293,175.57617c-0.03693,0.00254 -0.07387,0.00549 -0.11079,0.00804c0.02116,0.22547 0.04232,0.45138 0.06348,0.67685c0.01578,-0.00043 0.03154,-0.00042 0.04732,-0.00085c0,-0.22801 0,-0.45603 0,-0.68404zM263.95689,182.01048c-0.01231,-0.04695 -0.04116,-0.10618 -0.04116,-0.16329c0,0.44037 0,0.88076 0,1.32113c0,0 0.06925,-0.00043 0.09079,-0.00043c-0.01578,-0.38496 0.05193,-0.77118 -0.04963,-1.15741zM264.65513,185.6659c0.26929,-0.2792 0.30777,-0.78642 0.09695,-0.93278c0.01038,0.31262 0.10656,0.63624 -0.09695,0.93278zM264.2585,186.77636c0.06347,0.24832 0.1308,0.49537 0.18774,0.74538c0.01539,0.06726 -0.00462,0.14383 -0.0027,0.21617c0.00731,0.25255 0.01731,0.50552 0.02616,0.75807c0.03154,-0.1616 0.00231,-0.32616 0.03694,-0.47295c0.10887,-0.46365 -0.06771,-0.85495 -0.24814,-1.24667zM264.02229,181.02567c-0.0177,0.00043 -0.03578,0.00127 -0.05385,0.00169c0,0.23309 0,0.46618 0,0.69969c0.00462,-0.03003 0.0127,-0.05542 0.02731,-0.07107c0.21082,-0.22886 -0.03386,-0.4243 0.02654,-0.63032zM263.39407,175.17767c0.03924,0.05584 0.07848,0.1121 0.11811,0.16836c0.05347,-0.08503 0.18312,0.00338 0.22851,-0.13368c0.01693,-0.05119 0.12657,-0.06557 0.25083,-0.1231c-0.02539,-0.04146 -0.08502,-0.18106 -0.11041,-0.17387c-0.18428,0.05246 -0.12465,-0.0973 -0.13119,-0.17936c-0.00423,-0.04992 0.02116,-0.10237 0.03309,-0.15399c-0.02385,-0.00804 -0.04771,-0.01608 -0.07155,-0.02411c-0.03386,0.14552 -0.07925,0.28978 -0.0981,0.43784c-0.01693,0.1341 -0.0454,0.21533 -0.21929,0.18191zM263.2575,171.93175c0.01,0.14679 0.0227,0.32869 0.03539,0.5106c0.05001,-0.03934 0.05578,-0.07487 0.05539,-0.11041c-0.00038,-0.04357 -0.02231,-0.09814 -0.00577,-0.12902c0.1208,-0.22632 0.12311,-0.22463 0.06771,-0.46068c-0.04501,0.05584 -0.09195,0.11422 -0.15273,0.18952zM261.88294,179.81114c0.01539,0.15822 0.03078,0.31685 0.04039,0.41753c0.09695,-0.05119 0.18658,-0.11253 0.28429,-0.14637c0.18658,-0.06473 0.37779,-0.11295 0.56706,-0.16836c-0.00231,-0.01692 -0.005,-0.03427 -0.00731,-0.05119c-0.0377,-0.00423 -0.0781,-0.02031 -0.11311,-0.011c-0.1535,0.04019 -0.30469,0.09222 -0.45857,0.13114c-0.13388,0.03385 -0.24082,0.00338 -0.25467,-0.18614c-0.01923,0.00466 -0.03847,0.00931 -0.05809,0.01439zM261.77561,180.53241c0.02116,0.18867 0.04194,0.37692 0.0631,0.56728c0.1358,-0.1984 0.01769,-0.38496 -0.0631,-0.56728zM261.21778,187.37452c0.02308,0.00339 0.04578,0.00634 0.06848,0.00973c0.03539,-0.26736 0.0704,-0.53513 0.1058,-0.80291c-0.01578,0.00043 -0.03193,0.00127 -0.04771,0.00212c-0.04194,0.26355 -0.08425,0.52752 -0.12657,0.79107z" data-paper-data="{&quot;origPos&quot;:null}" fill="url(#color-2)"/><text transform="translate(198.15484,194.85353) scale(0.20242,0.20242)" font-size="22" xml:space="preserve" fill="#7f7f7f" fill-rule="nonzero" stroke="none" stroke-width="1" stroke-linecap="butt" stroke-linejoin="miter" stroke-miterlimit="10" stroke-dasharray="" stroke-dashoffset="0" font-family="Sans Serif" font-weight="400" text-anchor="start" style="mix-blend-mode: normal"><tspan x="0" dy="0">v2.4</tspan></text><text transform="translate(208.2977,194.85353) scale(0.20242,0.20242)" font-size="22" xml:space="preserve" fill="#7f7f7f" fill-rule="nonzero" stroke="none" stroke-width="1" stroke-linecap="butt" stroke-linejoin="miter" stroke-miterlimit="10" stroke-dasharray="" stroke-dashoffset="0" font-family="Sans Serif" font-weight="400" text-anchor="start" style="mix-blend-mode: normal"><tspan x="0" dy="0">- Thanks for playing </tspan></text></g></g></svg>