<?xml version="1.0" encoding="iso-8859-1"?>
<!-- Generator: Adobe Illustrator 19.0.0, SVG Export Plug-In . SVG Version: 6.00 Build 0)  -->
<svg version="1.1" xmlns="http://www.w3.org/2000/svg" xmlns:xlink="http://www.w3.org/1999/xlink" x="0px" y="0px"
	 viewBox="0 0 64 8" style="enable-background:new 0 0 64 8;" xml:space="preserve">
<g id="Layer_3_copy_35">
	<g id="XMLID_794_">
		<path id="XMLID_795_" d="M19.652,2.633H18.77l-0.655-2.609h1.167L19.652,2.633z M21.114,2.633h-0.873l-0.532-2.609h1.177
			L21.114,2.633z"/>
		<path id="XMLID_798_" d="M25.044,2.372l1.855-1.789h1.391v1.342l-1.855,1.789l1.855,1.79v1.342h-1.391l-1.855-1.789l-1.855,1.789
			h-1.391V5.503l1.855-1.79l-1.855-1.789V0.583h1.391L25.044,2.372z"/>
		<path id="XMLID_800_" d="M32.464,2.372l1.855-1.789h1.391v1.342l-1.854,1.789l1.854,1.79v1.342h-1.391l-1.855-1.789l-1.855,1.789
			h-1.391V5.503l1.855-1.79l-1.855-1.789V0.583h1.391L32.464,2.372z"/>
		<path id="XMLID_802_" d="M36.638,0.583h1.854v4.473h3.71v1.789h-5.564V0.583z"/>
		<path id="XMLID_804_" d="M43.112,0.023h1.177l-0.531,2.609h-0.873L43.112,0.023z M44.716,0.023h1.168l-0.655,2.609h-0.883
			L44.716,0.023z"/>
	</g>
</g>
<g id="Layer_1">
</g>
</svg>
