<?xml version="1.0" encoding="iso-8859-1"?>
<!-- Generator: Adobe Illustrator 19.0.0, SVG Export Plug-In . SVG Version: 6.00 Build 0)  -->
<svg version="1.1" xmlns="http://www.w3.org/2000/svg" xmlns:xlink="http://www.w3.org/1999/xlink" x="0px" y="0px"
	 viewBox="0 0 64 8" style="enable-background:new 0 0 64 8;" xml:space="preserve">
<g id="Layer_3_copy_7">
	<g id="XMLID_213_">
		<path id="XMLID_214_" d="M10.377,2.633H9.495L8.84,0.023h1.167L10.377,2.633z M11.839,2.633h-0.873l-0.532-2.609h1.177
			L11.839,2.633z"/>
		<path id="XMLID_217_" d="M14.378,4.608v2.237h-1.855V0.583h1.855v2.236l2.319-2.236h2.782l-3.246,3.13l3.246,3.131h-2.782
			L14.378,4.608z"/>
		<path id="XMLID_219_" d="M21.798,3.713v3.131h-1.855V0.583h1.391l3.246,3.13v-3.13h1.855v6.262h-1.391L21.798,3.713z"/>
		<path id="XMLID_221_" d="M29.218,6.845h-1.855V0.583h1.855V6.845z"/>
		<path id="XMLID_223_" d="M30.146,5.503V1.925l1.391-1.342h3.71l1.391,1.342L35.71,2.819h0.928v4.026h-5.101L30.146,5.503z
			 M32,2.819v1.789l0.464,0.448h2.319V4.608h-1.855V2.819h1.855l-0.464-0.447h-1.855L32,2.819z"/>
		<path id="XMLID_226_" d="M39.42,4.608v2.237h-1.854V0.583h1.854v2.236h2.783V0.583h1.854v6.262h-1.854V4.608H39.42z"/>
		<path id="XMLID_228_" d="M49.159,2.372v4.473h-1.855V2.372h-2.318V0.583h6.492v1.789H49.159z"/>
		<path id="XMLID_230_" d="M52.388,0.023h1.177l-0.531,2.609H52.16L52.388,0.023z M53.991,0.023h1.168l-0.655,2.609h-0.883
			L53.991,0.023z"/>
	</g>
</g>
<g id="Layer_1">
</g>
</svg>
