<?xml version="1.0" encoding="iso-8859-1"?>
<!-- Generator: Adobe Illustrator 19.0.0, SVG Export Plug-In . SVG Version: 6.00 Build 0)  -->
<svg version="1.1" xmlns="http://www.w3.org/2000/svg" xmlns:xlink="http://www.w3.org/1999/xlink" x="0px" y="0px"
	 viewBox="0 0 64 8" style="enable-background:new 0 0 64 8;" xml:space="preserve">
<g id="Layer_3_copy_32">
	<g id="XMLID_738_">
		<path id="XMLID_739_" d="M11.884,2.633h-0.883l-0.655-2.609h1.167L11.884,2.633z M13.346,2.633h-0.873l-0.532-2.609h1.177
			L13.346,2.633z"/>
		<path id="XMLID_742_" d="M15.421,0.583h3.71l1.391,1.342v4.92h-1.855V5.503h-2.782v1.342H14.03v-4.92L15.421,0.583z M18.204,2.372
			h-1.855l-0.464,0.447v0.895h2.782V2.819L18.204,2.372z"/>
		<path id="XMLID_745_" d="M21.45,1.925l1.391-1.342h5.101v1.789h-4.173l-0.232,0.224l0.232,0.223h2.782l1.391,1.342v1.342
			l-1.391,1.342H21.45V5.056h4.174l0.231-0.224l-0.231-0.224h-2.783L21.45,3.266V1.925z"/>
		<path id="XMLID_747_" d="M32.812,2.372v4.473h-1.855V2.372h-2.319V0.583h6.492v1.789H32.812z"/>
		<path id="XMLID_749_" d="M42.55,1.925v1.789l-1.391,1.342l1.854,1.789h-2.782l-1.855-1.789h-0.464v1.789h-1.854V0.583h5.102
			L42.55,1.925z M40.695,2.819l-0.464-0.447h-2.319v0.894h2.319L40.695,2.819z"/>
		<path id="XMLID_752_" d="M43.478,5.503V1.925l1.392-1.342h3.71l1.391,1.342v3.578l-1.391,1.342h-3.71L43.478,5.503z M45.332,2.819
			v1.789l0.464,0.448h1.855l0.464-0.448V2.819l-0.464-0.447h-1.855L45.332,2.819z"/>
		<path id="XMLID_755_" d="M50.88,0.023h1.177l-0.531,2.609h-0.873L50.88,0.023z M52.483,0.023h1.168l-0.655,2.609h-0.883
			L52.483,0.023z"/>
	</g>
</g>
<g id="Layer_1">
</g>
</svg>
