<svg version="1.1" xmlns="http://www.w3.org/2000/svg" xmlns:xlink="http://www.w3.org/1999/xlink" width="153.16869" height="49.52743" viewBox="0,0,153.16869,49.52743"><g transform="translate(-159.54732,-155.33757)"><g data-paper-data="{&quot;isPaintingLayer&quot;:true}" fill="#ffffff" fill-rule="nonzero" stroke="none" stroke-width="1" stroke-linecap="butt" stroke-linejoin="miter" stroke-miterlimit="10" stroke-dasharray="" stroke-dashoffset="0" style="mix-blend-mode: normal"><g><path d="M165.02949,155.33757v1.7h-3.3v0.4h3.3v1.7h-3.3v2.1h-1.7v-5.9z"/><path d="M167.52949,159.43757h3.3v1.7h-5v-5.8h5v1.7h-3.3v0.4h3.3v1.7h-3.3z"/><path d="M172.72949,155.33757h3.3l1.2,1.2v4.6h-1.7v-1.2h-2.5v1.2h-1.6v-4.6zM175.12949,156.93757h-1.7l-0.4,0.4v0.8h2.5v-0.8z"/><path d="M181.62949,156.93757v4.1h-1.7v-4.1h-2.1v-1.6h5.8v1.7h-2z"/><path d="M184.52949,159.83757v-4.5h1.7v3.7l0.4,0.4h1.7l0.4,-0.4v-3.7h1.7v4.6l-1.2,1.2h-3.3z"/><path d="M196.92949,156.53757v1.7l-1.2,1.2l1.7,1.7h-2.5l-1.7,-1.7h-0.4v1.7h-1.7v-5.8h4.6zM195.22949,157.33757l-0.4,-0.4h-2.1v0.8h2.1z"/><path d="M199.42949,159.43757h3.3v1.7h-5v-5.8h5v1.7h-3.3v0.4h3.3v1.7h-3.3z"/><path d="M203.52949,155.33757h4.6l1.2,1.2v3.3l-1.2,1.2h-4.6zM205.22949,156.93757v2.5h2.1l0.4,-0.4v-1.7l-0.4,-0.4z"/></g><text transform="translate(159.65121,171.60395) scale(0.20777,0.20777)" font-size="40" xml:space="preserve" fill="#ffffff" fill-rule="nonzero" stroke="none" stroke-width="1" stroke-linecap="butt" stroke-linejoin="miter" stroke-miterlimit="10" stroke-dasharray="" stroke-dashoffset="0" font-family="Sans Serif" font-weight="normal" text-anchor="start" style="mix-blend-mode: normal"><tspan x="0" dy="0">Update 2.4</tspan></text><text transform="translate(159.65121,183.08811) scale(0.20777,0.20777)" font-size="40" xml:space="preserve" fill="#ffffff" fill-rule="nonzero" stroke="none" stroke-width="1" stroke-linecap="butt" stroke-linejoin="miter" stroke-miterlimit="10" stroke-dasharray="" stroke-dashoffset="0" font-family="Sans Serif" font-weight="normal" text-anchor="start" style="mix-blend-mode: normal"><tspan x="0" dy="0">New content pack! 2 new demo maps. </tspan><tspan x="0" dy="46.150000000000006px">New random map button and more!</tspan><tspan x="0" dy="46.150000000000006px">Read the description for full notes.</tspan></text></g></g></svg>