<svg version="1.1" xmlns="http://www.w3.org/2000/svg" xmlns:xlink="http://www.w3.org/1999/xlink" width="24" height="32" viewBox="0,0,24,32"><defs><linearGradient x1="232.5597" y1="171.7843" x2="232.5597" y2="187.9925" gradientUnits="userSpaceOnUse" id="color-1"><stop offset="0" stop-color="#ffffff"/><stop offset="1" stop-color="#fefefe"/></linearGradient><linearGradient x1="238.4234" y1="175.8685" x2="238.4234" y2="182.1273" gradientUnits="userSpaceOnUse" id="color-2"><stop offset="0" stop-color="#ffffff"/><stop offset="1" stop-color="#fefefe"/></linearGradient></defs><g transform="translate(-228,-164)"><g data-paper-data="{&quot;isPaintingLayer&quot;:true}" fill-rule="nonzero" stroke="none" stroke-linecap="butt" stroke-linejoin="miter" stroke-miterlimit="10" stroke-dasharray="" stroke-dashoffset="0" style="mix-blend-mode: normal"><path d="M228,164h24v32h-24z" fill="none" stroke-width="1"/><path d="M247.2186,180.6631c0,4.0472 -3.2815,7.3294 -7.3295,7.3294c-4.048,0 -7.3294,-3.2815 -7.3294,-7.3294c0,-3.2497 2.1168,-6.0014 5.0454,-6.9618c-0.2154,-0.2027 -0.3522,-0.4883 -0.3522,-0.8072c0,-0.6134 0.4964,-1.1098 1.1098,-1.1098h3.0521c0.6126,0 1.1098,0.4964 1.1098,1.1098c0,0.3189 -0.1368,0.6053 -0.3521,0.8072c2.9285,0.9604 5.0453,3.7114 5.0461,6.9618zM245.5301,180.6631c0,-3.1158 -2.526,-5.6418 -5.6417,-5.6418c-3.1157,0 -5.6417,2.526 -5.6417,5.6418c0,3.1157 2.526,5.6417 5.6417,5.6417c3.1157,0 5.6417,-2.526 5.6417,-5.6417z" fill="url(#color-1)" stroke-width="0.7399"/><path d="M244.7429,180.7237c0,0.3322 -0.2694,0.6016 -0.6016,0.6016h-2.9544c-0.2427,0.4742 -0.7303,0.802 -1.2993,0.802c-0.8079,0 -1.4642,-0.6555 -1.4642,-1.4642c0,-0.5934 0.3544,-1.1018 0.8627,-1.3319v-2.8611c0,-0.3323 0.2693,-0.6016 0.6015,-0.6016c0.3323,0 0.6016,0.2693 0.6016,0.6016v2.8597c0.344,0.1561 0.6178,0.4402 0.7584,0.7931h2.8945c0.3322,0 0.6015,0.2694 0.6008,0.6008zM240.689,180.6631c0,-0.4425 -0.3574,-0.8014 -0.8006,-0.8014c-0.4425,0 -0.8006,0.3589 -0.8006,0.8014c0,0.4432 0.3581,0.8013 0.8006,0.8013c0.4432,0 0.8006,-0.3581 0.8006,-0.8013z" fill="url(#color-2)" stroke-width="0.7399"/></g></g></svg>