<svg version="1.1" xmlns="http://www.w3.org/2000/svg" xmlns:xlink="http://www.w3.org/1999/xlink" width="90.53" height="12.968"><g transform="translate(-194.7355,-173.5165)"><g data-paper-data="{&quot;isPaintingLayer&quot;:true}" fill="#ffffff" fill-rule="nonzero" stroke="none" stroke-width="1" stroke-linecap="butt" stroke-linejoin="miter" stroke-miterlimit="10" stroke-dasharray="" stroke-dashoffset="0" font-family="none" font-weight="none" font-size="none" text-anchor="none" style="mix-blend-mode: normal"><g id="XMLID_227_"><path d="M194.7355,174.8845l1.367,-1.368h5.015v1.824h-4.103l-0.228,0.228l0.228,0.228h2.735l1.367,1.367v1.368l-1.366,1.368h-5.015v-1.823h4.103l0.227,-0.229l-0.227,-0.227h-2.736l-1.367,-1.369z" id="XMLID_228_"/><path d="M203.8525,177.6205v2.279h-1.823v-6.383h1.823v2.28h2.735v-2.28h1.824v6.383h-1.824v-2.279z" id="XMLID_230_"/><path d="M209.3235,178.5325v-3.648l1.368,-1.368h3.646l1.368,1.368v3.647l-1.368,1.367h-3.646zM211.1465,175.7965v1.823l0.456,0.456h1.824l0.455,-0.456v-1.823l-0.455,-0.456h-1.824z" id="XMLID_232_"/><path d="M220.4935,175.3405v4.559h-1.824v-4.559h-2.279v-1.824h6.383v1.824z" id="XMLID_235_"/><path d="M227.7875,175.3405v4.559h-1.823v-4.559h-2.279v-1.824h6.382v1.824z" id="XMLID_237_"/><path d="M230.9785,176.7075v-3.191h1.823v2.28l0.456,0.455h1.823l0.456,-0.455v-2.28h1.823v3.191l-1.366,1.369h-0.912v1.823h-1.823v-1.823h-0.913z" id="XMLID_239_"/><path d="M240.5895,174.8845l1.367,-1.368h5.015v1.824h-4.103l-0.229,0.228l0.229,0.229h2.735l1.367,1.367v1.368l-1.367,1.367h-5.015v-1.823h4.103l0.228,-0.229l-0.228,-0.228h-2.735l-1.367,-1.368z" id="XMLID_241_"/><path d="M249.7065,176.7075v3.191h-1.823v-6.382h1.368l3.19,3.191v-3.191h1.824v6.383h-1.368z" id="XMLID_243_"/><path d="M257.0005,179.8995h-1.823v-6.383h1.823z" id="XMLID_245_"/><path d="M264.2955,174.8845v1.823l-1.369,1.369h-3.191v1.823h-1.823v-6.383h5.015zM262.4705,175.7965l-0.455,-0.456h-2.28v0.911h2.28z" id="XMLID_247_"/><path d="M267.0305,178.0765h3.647v1.823h-5.471v-6.383h5.471v1.824h-3.647v0.456h3.647v1.823h-3.647z" id="XMLID_250_"/><path d="M277.9715,174.8845v1.823l-1.368,1.369l1.823,1.823h-2.734l-1.824,-1.823h-0.456v1.823h-1.823v-6.383h5.015zM276.1475,175.7965l-0.455,-0.456h-2.28v0.911h2.28z" id="XMLID_252_"/><path d="M278.8825,174.8845l1.368,-1.368h5.015v1.824h-4.103l-0.228,0.228l0.228,0.229h2.735l1.367,1.367v1.368l-1.367,1.367h-5.015v-1.823h4.103l0.229,-0.229l-0.229,-0.227h-2.735l-1.367,-1.368v-1.368z" id="XMLID_255_"/></g><g id="XMLID_169_"><path d="M209.2765,186.3955c-0.167,-0.059 -0.296,-0.136 -0.387,-0.231l0.102,-0.199c0.088,0.089 0.207,0.16 0.354,0.215c0.147,0.056 0.298,0.083 0.455,0.083c0.219,0 0.384,-0.041 0.493,-0.121c0.11,-0.08 0.165,-0.185 0.165,-0.313c0,-0.098 -0.03,-0.176 -0.089,-0.234c-0.059,-0.059 -0.132,-0.104 -0.219,-0.135c-0.086,-0.031 -0.207,-0.065 -0.36,-0.104c-0.184,-0.046 -0.332,-0.091 -0.441,-0.135c-0.11,-0.043 -0.204,-0.108 -0.282,-0.197c-0.078,-0.089 -0.117,-0.209 -0.117,-0.36c0,-0.124 0.033,-0.236 0.098,-0.338c0.065,-0.102 0.166,-0.183 0.301,-0.243c0.135,-0.06 0.303,-0.091 0.504,-0.091c0.14,0 0.277,0.019 0.411,0.058c0.134,0.038 0.25,0.092 0.349,0.159l-0.088,0.206c-0.103,-0.067 -0.212,-0.118 -0.329,-0.152c-0.117,-0.033 -0.231,-0.051 -0.343,-0.051c-0.215,0 -0.376,0.042 -0.485,0.125c-0.108,0.083 -0.163,0.189 -0.163,0.32c0,0.098 0.03,0.177 0.089,0.236c0.059,0.059 0.134,0.104 0.224,0.136c0.089,0.032 0.21,0.066 0.362,0.104c0.18,0.044 0.325,0.088 0.436,0.131c0.111,0.044 0.205,0.109 0.282,0.196c0.077,0.088 0.115,0.206 0.115,0.355c0,0.124 -0.033,0.236 -0.1,0.338c-0.067,0.102 -0.168,0.182 -0.306,0.241c-0.138,0.059 -0.307,0.09 -0.507,0.09c-0.183,-0.001 -0.357,-0.03 -0.524,-0.089z" id="XMLID_170_"/><path d="M213.3235,184.0115v2.45h-0.213l-1.575,-1.988v1.988h-0.259v-2.45h0.213l1.579,1.988v-1.988z" id="XMLID_172_"/><path d="M214.1215,184.0115h0.259v2.45h-0.259z" id="XMLID_174_"/><path d="M216.8305,184.2365c0.178,0.149 0.266,0.354 0.266,0.615c0,0.262 -0.088,0.467 -0.266,0.614c-0.177,0.148 -0.422,0.223 -0.735,0.223h-0.658v0.773h-0.259v-2.45h0.917c0.313,0 0.558,0.075 0.735,0.225zM216.6455,185.3015c0.128,-0.106 0.192,-0.256 0.192,-0.45c0,-0.198 -0.064,-0.351 -0.192,-0.456c-0.128,-0.106 -0.314,-0.159 -0.557,-0.159h-0.651v1.225h0.651c0.243,-0.001 0.429,-0.053 0.557,-0.16z" id="XMLID_176_"/><path d="M219.3895,186.2385v0.224h-1.732v-2.45h1.68v0.225h-1.421v0.871h1.267v0.221h-1.267v0.91h1.473z" id="XMLID_179_"/><path d="M221.6715,186.4615l-0.56,-0.787c-0.063,0.007 -0.128,0.01 -0.196,0.01h-0.658v0.777h-0.259v-2.45h0.917c0.313,0 0.558,0.075 0.735,0.225c0.178,0.149 0.266,0.354 0.266,0.615c0,0.191 -0.048,0.354 -0.145,0.485c-0.097,0.132 -0.235,0.227 -0.415,0.285l0.599,0.84zM221.4645,185.3035c0.128,-0.107 0.192,-0.258 0.192,-0.452c0,-0.198 -0.064,-0.351 -0.192,-0.456c-0.128,-0.106 -0.314,-0.159 -0.557,-0.159h-0.651v1.229h0.651c0.244,-0.001 0.429,-0.054 0.557,-0.162z" id="XMLID_181_"/><path d="M222.6805,186.3955c-0.167,-0.059 -0.296,-0.136 -0.387,-0.231l0.102,-0.199c0.088,0.089 0.207,0.16 0.354,0.215c0.147,0.056 0.298,0.083 0.455,0.083c0.219,0 0.384,-0.041 0.493,-0.121c0.11,-0.08 0.165,-0.185 0.165,-0.313c0,-0.098 -0.03,-0.176 -0.089,-0.234c-0.059,-0.059 -0.132,-0.104 -0.219,-0.135c-0.086,-0.031 -0.207,-0.065 -0.36,-0.104c-0.184,-0.046 -0.332,-0.091 -0.441,-0.135c-0.11,-0.043 -0.204,-0.108 -0.282,-0.197c-0.078,-0.089 -0.117,-0.209 -0.117,-0.36c0,-0.124 0.033,-0.236 0.098,-0.338c0.065,-0.102 0.166,-0.183 0.301,-0.243c0.135,-0.06 0.303,-0.091 0.504,-0.091c0.14,0 0.277,0.019 0.411,0.058c0.134,0.038 0.25,0.092 0.349,0.159l-0.088,0.206c-0.103,-0.067 -0.212,-0.118 -0.329,-0.152c-0.117,-0.033 -0.231,-0.051 -0.343,-0.051c-0.215,0 -0.376,0.042 -0.485,0.125c-0.108,0.083 -0.163,0.189 -0.163,0.32c0,0.098 0.03,0.177 0.089,0.236c0.059,0.059 0.134,0.104 0.224,0.136c0.089,0.032 0.21,0.066 0.362,0.104c0.18,0.044 0.325,0.088 0.436,0.131c0.111,0.044 0.205,0.109 0.282,0.196c0.077,0.088 0.115,0.206 0.115,0.355c0,0.124 -0.033,0.236 -0.1,0.338c-0.067,0.102 -0.168,0.182 -0.306,0.241c-0.138,0.059 -0.307,0.09 -0.507,0.09c-0.182,-0.001 -0.357,-0.03 -0.524,-0.089z" id="XMLID_184_"/><path d="M227.1345,185.8075h-1.365l-0.294,0.654h-0.27l1.12,-2.45h0.255l1.12,2.45h-0.273zM227.0395,185.5975l-0.588,-1.316l-0.588,1.316z" id="XMLID_186_"/><path d="M230.1545,184.0115v2.45h-0.213l-1.575,-1.988v1.988h-0.259v-2.45h0.213l1.579,1.988v-1.988z" id="XMLID_189_"/><path d="M230.9525,184.0115h0.998c0.259,0 0.488,0.052 0.686,0.156c0.198,0.104 0.352,0.248 0.462,0.434c0.11,0.186 0.165,0.397 0.165,0.636c0,0.237 -0.055,0.449 -0.165,0.635c-0.11,0.186 -0.264,0.33 -0.462,0.435c-0.198,0.104 -0.427,0.155 -0.686,0.155h-0.998zM231.9365,186.2385c0.215,0 0.403,-0.043 0.563,-0.128c0.161,-0.085 0.286,-0.203 0.375,-0.354c0.089,-0.15 0.133,-0.324 0.133,-0.52c0,-0.196 -0.044,-0.37 -0.133,-0.521c-0.088,-0.15 -0.213,-0.268 -0.375,-0.354c-0.161,-0.085 -0.349,-0.127 -0.563,-0.127h-0.724v2.002h0.724z" id="XMLID_191_"/><path d="M234.9135,186.3955c-0.167,-0.059 -0.296,-0.136 -0.387,-0.231l0.102,-0.199c0.088,0.089 0.207,0.16 0.354,0.215c0.147,0.056 0.298,0.083 0.455,0.083c0.219,0 0.384,-0.041 0.493,-0.121c0.11,-0.08 0.165,-0.185 0.165,-0.313c0,-0.098 -0.03,-0.176 -0.089,-0.234c-0.059,-0.059 -0.132,-0.104 -0.219,-0.135c-0.086,-0.031 -0.207,-0.065 -0.36,-0.104c-0.184,-0.046 -0.332,-0.091 -0.441,-0.135c-0.11,-0.043 -0.204,-0.108 -0.282,-0.197c-0.078,-0.089 -0.117,-0.209 -0.117,-0.36c0,-0.124 0.033,-0.236 0.098,-0.338c0.065,-0.102 0.166,-0.183 0.301,-0.243c0.135,-0.06 0.303,-0.091 0.504,-0.091c0.14,0 0.277,0.019 0.411,0.058c0.134,0.038 0.25,0.092 0.349,0.159l-0.088,0.206c-0.103,-0.067 -0.212,-0.118 -0.329,-0.152c-0.117,-0.033 -0.231,-0.051 -0.343,-0.051c-0.215,0 -0.376,0.042 -0.485,0.125c-0.108,0.083 -0.163,0.189 -0.163,0.32c0,0.098 0.03,0.177 0.089,0.236c0.059,0.059 0.134,0.104 0.224,0.136c0.089,0.032 0.21,0.066 0.362,0.104c0.18,0.044 0.325,0.088 0.436,0.131c0.111,0.044 0.205,0.109 0.282,0.196c0.077,0.088 0.115,0.206 0.115,0.355c0,0.124 -0.033,0.236 -0.1,0.338c-0.067,0.102 -0.168,0.182 -0.306,0.241c-0.138,0.059 -0.307,0.09 -0.507,0.09c-0.183,-0.001 -0.357,-0.03 -0.524,-0.089z" id="XMLID_194_"/><path d="M238.9605,184.0115v2.45h-0.255v-1.131h-1.533v1.131h-0.259v-2.45h0.259v1.092h1.533v-1.092z" id="XMLID_196_"/><path d="M240.1695,186.3205c-0.197,-0.108 -0.351,-0.258 -0.462,-0.446c-0.111,-0.189 -0.166,-0.401 -0.166,-0.637c0,-0.236 0.055,-0.448 0.166,-0.638c0.111,-0.188 0.265,-0.338 0.462,-0.446c0.197,-0.108 0.417,-0.162 0.66,-0.162c0.243,0 0.461,0.054 0.657,0.161c0.194,0.106 0.348,0.256 0.459,0.446c0.113,0.189 0.168,0.402 0.168,0.639c0,0.235 -0.055,0.448 -0.168,0.639c-0.111,0.189 -0.265,0.339 -0.459,0.446c-0.195,0.107 -0.414,0.161 -0.657,0.161c-0.243,0 -0.463,-0.055 -0.66,-0.163zM241.3545,186.1205c0.156,-0.088 0.278,-0.209 0.367,-0.364c0.089,-0.155 0.134,-0.328 0.134,-0.52c0,-0.192 -0.045,-0.365 -0.134,-0.521c-0.089,-0.154 -0.211,-0.276 -0.367,-0.363c-0.156,-0.088 -0.331,-0.132 -0.525,-0.132c-0.194,0 -0.37,0.044 -0.527,0.132c-0.158,0.087 -0.281,0.209 -0.371,0.363c-0.09,0.155 -0.135,0.329 -0.135,0.521c0,0.192 0.045,0.364 0.135,0.52c0.09,0.156 0.213,0.276 0.371,0.364c0.157,0.087 0.333,0.131 0.527,0.131c0.194,0 0.369,-0.044 0.525,-0.131z" id="XMLID_198_"/><path d="M243.1355,184.2365h-0.861v-0.225h1.981v0.225h-0.861v2.226h-0.259z" id="XMLID_201_"/><path d="M246.3595,185.2375h0.249v0.935c-0.114,0.1 -0.25,0.177 -0.406,0.23c-0.156,0.053 -0.32,0.081 -0.493,0.081c-0.245,0 -0.466,-0.054 -0.662,-0.161c-0.195,-0.107 -0.35,-0.257 -0.462,-0.446c-0.111,-0.19 -0.168,-0.403 -0.168,-0.639c0,-0.236 0.057,-0.449 0.168,-0.639c0.112,-0.19 0.267,-0.34 0.462,-0.446c0.196,-0.107 0.418,-0.161 0.665,-0.161c0.188,0 0.358,0.029 0.515,0.089c0.157,0.06 0.288,0.147 0.396,0.265l-0.161,0.164c-0.193,-0.191 -0.439,-0.287 -0.738,-0.287c-0.198,0 -0.377,0.044 -0.537,0.132c-0.16,0.087 -0.285,0.209 -0.376,0.363c-0.091,0.155 -0.137,0.329 -0.137,0.521c0,0.192 0.046,0.363 0.137,0.518c0.091,0.155 0.216,0.275 0.374,0.364c0.159,0.089 0.338,0.133 0.536,0.133c0.252,0 0.465,-0.063 0.64,-0.189v-0.827z" id="XMLID_203_"/><path d="M247.5845,186.2095c-0.177,-0.182 -0.266,-0.447 -0.266,-0.795v-1.403h0.259v1.394c0,0.284 0.064,0.497 0.192,0.637c0.129,0.14 0.314,0.21 0.557,0.21c0.245,0 0.432,-0.07 0.561,-0.21c0.128,-0.14 0.192,-0.353 0.192,-0.637v-1.394h0.252v1.403c0,0.348 -0.088,0.613 -0.265,0.795c-0.176,0.182 -0.423,0.273 -0.74,0.273c-0.317,0 -0.565,-0.091 -0.742,-0.273z" id="XMLID_205_"/><path d="M252.1585,184.0115v2.45h-0.213l-1.575,-1.988v1.988h-0.259v-2.45h0.213l1.579,1.988v-1.988z" id="XMLID_207_"/><path d="M253.1085,186.3955c-0.166,-0.059 -0.295,-0.136 -0.387,-0.231l0.102,-0.199c0.089,0.089 0.207,0.16 0.354,0.215c0.147,0.056 0.299,0.083 0.455,0.083c0.22,0 0.384,-0.041 0.494,-0.121c0.109,-0.08 0.164,-0.185 0.164,-0.313c0,-0.098 -0.029,-0.176 -0.089,-0.234c-0.06,-0.058 -0.133,-0.104 -0.219,-0.135c-0.087,-0.031 -0.207,-0.065 -0.36,-0.104c-0.185,-0.046 -0.332,-0.091 -0.441,-0.135c-0.109,-0.043 -0.204,-0.108 -0.282,-0.197c-0.078,-0.089 -0.117,-0.209 -0.117,-0.36c0,-0.124 0.033,-0.236 0.099,-0.338c0.066,-0.102 0.165,-0.183 0.301,-0.243c0.135,-0.061 0.304,-0.091 0.504,-0.091c0.14,0 0.277,0.019 0.411,0.058c0.135,0.038 0.25,0.092 0.349,0.159l-0.088,0.206c-0.103,-0.067 -0.212,-0.118 -0.329,-0.152c-0.116,-0.033 -0.23,-0.051 -0.343,-0.051c-0.215,0 -0.376,0.042 -0.484,0.125c-0.108,0.083 -0.163,0.189 -0.163,0.32c0,0.098 0.029,0.177 0.089,0.236c0.06,0.059 0.135,0.104 0.225,0.136c0.09,0.032 0.21,0.066 0.362,0.104c0.18,0.044 0.324,0.088 0.436,0.131c0.11,0.044 0.205,0.109 0.281,0.196c0.077,0.088 0.116,0.206 0.116,0.355c0,0.124 -0.033,0.236 -0.1,0.338c-0.067,0.102 -0.169,0.182 -0.307,0.241c-0.138,0.059 -0.307,0.09 -0.508,0.09c-0.183,-0.001 -0.358,-0.03 -0.525,-0.089z" id="XMLID_209_"/><path d="M257.5625,185.8075h-1.365l-0.294,0.654h-0.27l1.12,-2.45h0.256l1.12,2.45h-0.273zM257.4675,185.5975l-0.588,-1.316l-0.588,1.316z" id="XMLID_211_"/><path d="M258.5365,184.0115h0.259v2.227h1.372v0.224h-1.631z" id="XMLID_214_"/><path d="M263.7755,184.0115l-0.826,2.45h-0.274l-0.717,-2.09l-0.722,2.09h-0.27l-0.825,-2.45h0.266l0.707,2.107l0.731,-2.107h0.241l0.722,2.118l0.717,-2.118z" id="XMLID_216_"/><path d="M265.7115,185.8075h-1.366l-0.294,0.654h-0.27l1.12,-2.45h0.256l1.12,2.45h-0.272zM265.6165,185.5975l-0.588,-1.316l-0.588,1.316z" id="XMLID_218_"/><path d="M267.3815,185.6155v0.847h-0.256v-0.847l-0.979,-1.604h0.276l0.84,1.376l0.84,-1.376h0.259z" id="XMLID_221_"/><path d="M268.8625,186.3955c-0.166,-0.059 -0.295,-0.136 -0.387,-0.231l0.102,-0.199c0.089,0.089 0.207,0.16 0.354,0.215c0.147,0.056 0.299,0.083 0.455,0.083c0.22,0 0.384,-0.041 0.494,-0.121c0.109,-0.08 0.164,-0.185 0.164,-0.313c0,-0.098 -0.029,-0.176 -0.089,-0.234c-0.06,-0.058 -0.133,-0.104 -0.219,-0.135c-0.087,-0.031 -0.207,-0.065 -0.36,-0.104c-0.185,-0.046 -0.332,-0.091 -0.441,-0.135c-0.109,-0.043 -0.204,-0.108 -0.282,-0.197c-0.078,-0.089 -0.117,-0.209 -0.117,-0.36c0,-0.124 0.033,-0.236 0.099,-0.338c0.066,-0.102 0.165,-0.183 0.301,-0.243c0.135,-0.061 0.304,-0.091 0.504,-0.091c0.14,0 0.277,0.019 0.411,0.058c0.135,0.038 0.25,0.092 0.349,0.159l-0.088,0.206c-0.103,-0.067 -0.212,-0.118 -0.329,-0.152c-0.116,-0.033 -0.23,-0.051 -0.343,-0.051c-0.215,0 -0.376,0.042 -0.484,0.125c-0.108,0.083 -0.163,0.189 -0.163,0.32c0,0.098 0.029,0.177 0.089,0.236c0.06,0.059 0.135,0.104 0.225,0.136c0.09,0.032 0.21,0.066 0.362,0.104c0.18,0.044 0.324,0.088 0.436,0.131c0.11,0.044 0.205,0.109 0.281,0.196c0.077,0.088 0.116,0.206 0.116,0.355c0,0.124 -0.033,0.236 -0.1,0.338c-0.067,0.102 -0.169,0.182 -0.307,0.241c-0.138,0.059 -0.307,0.09 -0.508,0.09c-0.183,-0.001 -0.358,-0.03 -0.525,-0.089z" id="XMLID_223_"/><path d="M270.7745,186.4235c-0.037,-0.038 -0.055,-0.083 -0.055,-0.137c0,-0.054 0.018,-0.099 0.055,-0.135c0.036,-0.036 0.079,-0.055 0.131,-0.055c0.051,0 0.096,0.019 0.133,0.055c0.037,0.036 0.056,0.081 0.056,0.135c0,0.054 -0.019,0.099 -0.056,0.137c-0.037,0.037 -0.082,0.056 -0.133,0.056c-0.052,0 -0.095,-0.019 -0.131,-0.056z" id="XMLID_225_"/></g></g></g></svg>