<?xml version="1.0" encoding="iso-8859-1"?>
<!-- Generator: Adobe Illustrator 19.0.0, SVG Export Plug-In . SVG Version: 6.00 Build 0)  -->
<svg version="1.1" xmlns="http://www.w3.org/2000/svg" xmlns:xlink="http://www.w3.org/1999/xlink" x="0px" y="0px"
	 viewBox="0 0 64 8" style="enable-background:new 0 0 64 8;" xml:space="preserve">
<g id="Layer_2">
	<g id="XMLID_69_">
		<path id="XMLID_70_" d="M8.522,2.633H7.64L6.985,0.023h1.167L8.522,2.633z M9.984,2.633H9.111L8.579,0.023h1.177L9.984,2.633z"/>
		<path id="XMLID_73_" d="M12.523,4.608v2.237h-1.855V0.583h1.855v2.236h2.782V0.583h1.855v6.262h-1.855V4.608H12.523z"/>
		<path id="XMLID_75_" d="M18.088,5.503v-4.92h1.855v4.025l0.464,0.448h1.855l0.463-0.448V0.583h1.855v4.92l-1.391,1.342h-3.71
			L18.088,5.503z"/>
		<path id="XMLID_77_" d="M27.363,3.713v3.131h-1.855V0.583h1.391l3.246,3.13v-3.13H32v6.262h-1.391L27.363,3.713z"/>
		<path id="XMLID_79_" d="M37.102,2.372v4.473h-1.855V2.372h-2.318V0.583h6.492v1.789H37.102z"/>
		<path id="XMLID_81_" d="M42.202,5.056h3.71v1.789h-5.564V0.583h5.564v1.789h-3.71v0.447h3.71v1.789h-3.71V5.056z"/>
		<path id="XMLID_83_" d="M53.332,1.925v1.789l-1.391,1.342l1.854,1.789h-2.782l-1.855-1.789h-0.464v1.789H46.84V0.583h5.102
			L53.332,1.925z M51.478,2.819l-0.464-0.447h-2.319v0.894h2.319L51.478,2.819z"/>
		<path id="XMLID_86_" d="M54.242,0.023h1.177l-0.531,2.609h-0.873L54.242,0.023z M55.846,0.023h1.168l-0.655,2.609h-0.883
			L55.846,0.023z"/>
	</g>
</g>
<g id="Layer_1">
</g>
</svg>
