<svg version="1.1" xmlns="http://www.w3.org/2000/svg" xmlns:xlink="http://www.w3.org/1999/xlink" width="38.899" height="6.822"><g transform="translate(-220.55,-176.023)"><g data-paper-data="{&quot;isPaintingLayer&quot;:true}" fill="#000000" fill-rule="nonzero" stroke="none" stroke-width="1" stroke-linecap="butt" stroke-linejoin="miter" stroke-miterlimit="10" stroke-dasharray="" stroke-dashoffset="0" font-family="none" font-weight="none" font-size="none" text-anchor="none" style="mix-blend-mode: normal"><g id="XMLID_89_"><path d="M222.087,178.633h-0.883l-0.654,-2.61h1.167zM223.549,178.633h-0.873l-0.532,-2.609h1.177z" id="XMLID_90_"/><path d="M226.088,179.713v3.131h-1.855v-6.261h1.391l3.246,3.13v-3.13h1.855v6.262h-1.391z" id="XMLID_93_"/><path d="M233.508,182.845h-1.855v-6.262h1.855z" id="XMLID_95_"/><path d="M236.291,179.713v3.131h-1.855v-6.261h1.391l3.246,3.13v-3.13h1.854v6.262h-1.391z" id="XMLID_97_"/><path d="M246.493,180.608v-4.025h1.854v4.92l-1.391,1.342h-3.71l-1.392,-1.342l1.392,-1.342l0.927,0.895h1.855z" id="XMLID_99_"/><path d="M250.667,176.583h3.71l1.391,1.342v4.92h-1.854v-1.342h-2.784v1.342h-1.854v-4.92zM253.449,178.372h-1.855l-0.464,0.447v0.895h2.783v-0.895z" id="XMLID_101_"/><path d="M256.678,176.023h1.177l-0.531,2.609h-0.874zM258.281,176.023h1.168l-0.655,2.609h-0.883z" id="XMLID_104_"/></g></g></g></svg>