<?xml version="1.0" encoding="iso-8859-1"?>
<!-- Generator: Adobe Illustrator 19.0.0, SVG Export Plug-In . SVG Version: 6.00 Build 0)  -->
<svg version="1.1" id="Layer_1" xmlns="http://www.w3.org/2000/svg" xmlns:xlink="http://www.w3.org/1999/xlink" x="0px" y="0px"
	 viewBox="0 0 69.16 12.97" style="enable-background:new 0 0 69.16 12.97;" xml:space="preserve">
<g id="XMLID_2_">
	<path id="XMLID_3_" d="M17.117,5.575c0.212-0.777,0.61-1.775,0.869-2.201l0.518-0.055c-0.204,0.545-0.444,1.498-0.546,2.164
		L17.117,5.575z M18.495,5.575c0.203-0.777,0.61-1.775,0.86-2.201l0.518-0.055c-0.203,0.545-0.444,1.498-0.545,2.164L18.495,5.575z"
		/>
	<path id="XMLID_6_" d="M22.335,6.491v3.161h-1.807V3.329h1.355l3.162,3.162V3.329h1.807v6.323h-1.355L22.335,6.491z"/>
	<path id="XMLID_8_" d="M29.11,3.329h3.613l1.355,1.355v4.968h-1.807V8.297h-2.71v1.354h-1.807V4.684L29.11,3.329z M31.82,5.136
		h-1.807l-0.452,0.452v0.903h2.71V5.587L31.82,5.136z"/>
	<path id="XMLID_11_" d="M36.788,6.491v3.161h-1.807V3.329h1.355l3.162,3.162V3.329h1.807v6.323H39.95L36.788,6.491z"/>
	<path id="XMLID_13_" d="M42.208,6.491V3.329h1.807v2.258l0.451,0.452h1.807l0.453-0.452V3.329h1.807v3.162l-1.355,1.354h-0.904
		v1.807h-1.807V7.845h-0.902L42.208,6.491z"/>
	<path id="XMLID_15_" d="M50.675,3.318c-0.213,0.777-0.61,1.766-0.86,2.191l-0.518,0.065c0.194-0.546,0.443-1.507,0.546-2.173
		L50.675,3.318z M52.043,3.318c-0.213,0.777-0.61,1.766-0.859,2.191l-0.519,0.065c0.204-0.546,0.444-1.507,0.546-2.173L52.043,3.318
		z"/>
</g>
</svg>
