<svg version="1.1" xmlns="http://www.w3.org/2000/svg" xmlns:xlink="http://www.w3.org/1999/xlink" width="46.8" height="10.9"><g transform="translate(-224.8,-174.7)"><g data-paper-data="{&quot;isPaintingLayer&quot;:true}" fill="#ffffff" fill-rule="nonzero" stroke="none" stroke-width="1" stroke-linecap="butt" stroke-linejoin="miter" stroke-miterlimit="10" stroke-dasharray="" stroke-dashoffset="0" font-family="none" font-weight="none" font-size="none" text-anchor="none" style="mix-blend-mode: normal"><g><path d="M235.7,177v3.1l-2.3,2.3h-5.5v3.1h-3.1v-10.8h8.6zM232.6,178.6l-0.8,-0.8h-3.9v1.6h3.9z" id="XMLID_3_"/><path d="M237.3,174.7h3.1v7.8h6.3v3.1h-9.4z" id="XMLID_6_"/><path d="M250.6,174.7h6.3l2.3,2.3v8.6h-3.2v-2.3h-4.7v2.3h-3.1v-8.6zM255.3,177.8h-3.1l-0.8,0.8v1.6h4.6v-1.6z" id="XMLID_8_"/><path d="M260.7,180.2v-5.5h3.1v3.9l0.8,0.8h3.1l0.8,-0.8v-3.9h3.1v5.5l-2.3,2.3h-1.6v3.1h-3.1v-3.1h-1.6z" id="XMLID_11_"/></g></g></g></svg>