<?xml version="1.0" encoding="iso-8859-1"?>
<!-- Generator: Adobe Illustrator 19.0.0, SVG Export Plug-In . SVG Version: 6.00 Build 0)  -->
<svg version="1.1" xmlns="http://www.w3.org/2000/svg" xmlns:xlink="http://www.w3.org/1999/xlink" x="0px" y="0px"
	 viewBox="0 0 64 8" style="enable-background:new 0 0 64 8;" xml:space="preserve">
<g id="Layer_3_copy_21">
	<g id="XMLID_515_">
		<path id="XMLID_516_" d="M15.479,2.633h-0.883l-0.655-2.609h1.167L15.479,2.633z M16.94,2.633h-0.873l-0.532-2.609h1.177
			L16.94,2.633z"/>
		<path id="XMLID_519_" d="M24.117,1.925v1.341l-0.463,0.447l0.463,0.447v1.342l-1.391,1.342h-5.101V0.583h5.101L24.117,1.925z
			 M21.798,2.372h-2.319v0.447h2.319l0.231-0.223L21.798,2.372z M19.479,4.608v0.448h2.319l0.231-0.224l-0.231-0.224H19.479z"/>
		<path id="XMLID_523_" d="M30.146,6.845h-1.391l-0.464-0.447l-0.464,0.447h-1.391l-1.391-1.342v-4.92h1.855v4.025l0.232,0.224
			l0.232-0.224V0.583h1.855v4.025l0.231,0.224l0.232-0.224V0.583h1.855v4.92L30.146,6.845z"/>
		<path id="XMLID_525_" d="M33.855,0.583h3.71l1.391,1.342v4.92h-1.854V5.503h-2.783v1.342h-1.854v-4.92L33.855,0.583z
			 M36.638,2.372h-1.855l-0.464,0.447v0.895h2.783V2.819L36.638,2.372z"/>
		<path id="XMLID_528_" d="M41.738,4.608v2.237h-1.854V0.583h1.854v2.236l2.319-2.236h2.782l-3.246,3.13l3.246,3.131h-2.782
			L41.738,4.608z"/>
		<path id="XMLID_530_" d="M47.286,0.023h1.177l-0.531,2.609h-0.873L47.286,0.023z M48.89,0.023h1.168l-0.655,2.609H48.52
			L48.89,0.023z"/>
	</g>
</g>
<g id="Layer_1">
</g>
</svg>
