<?xml version="1.0" encoding="iso-8859-1"?>
<!-- Generator: Adobe Illustrator 19.0.0, SVG Export Plug-In . SVG Version: 6.00 Build 0)  -->
<svg version="1.1" xmlns="http://www.w3.org/2000/svg" xmlns:xlink="http://www.w3.org/1999/xlink" x="0px" y="0px"
	 viewBox="0 0 64 8" style="enable-background:new 0 0 64 8;" xml:space="preserve">
<g id="Layer_3_copy_25">
	<g id="XMLID_594_">
		<path id="XMLID_595_" d="M8.638,2.633H7.755L7.101,0.023h1.167L8.638,2.633z M10.1,2.633H9.227L8.695,0.023h1.177L10.1,2.633z"/>
		<path id="XMLID_598_" d="M10.784,5.503v-4.92h1.855v4.025l0.464,0.448h1.855l0.463-0.448V0.583h1.855v4.92l-1.391,1.342h-3.71
			L10.784,5.503z"/>
		<path id="XMLID_600_" d="M20.059,3.713v3.131h-1.855V0.583h1.391l3.246,3.13v-3.13h1.855v6.262h-1.391L20.059,3.713z"/>
		<path id="XMLID_602_" d="M25.624,0.583h5.101l1.392,1.342v3.578l-1.392,1.342h-5.101V0.583z M27.479,2.372v2.684h2.319
			l0.463-0.448V2.819l-0.463-0.447H27.479z"/>
		<path id="XMLID_605_" d="M34.898,5.056h3.71v1.789h-5.564V0.583h5.564v1.789h-3.71v0.447h3.71v1.789h-3.71V5.056z"/>
		<path id="XMLID_607_" d="M40.695,0.583h3.71l1.391,1.342v4.92h-1.854V5.503h-2.783v1.342h-1.854v-4.92L40.695,0.583z
			 M43.478,2.372h-1.855l-0.464,0.447v0.895h2.783V2.819L43.478,2.372z"/>
		<path id="XMLID_610_" d="M46.724,0.583h5.102l1.391,1.342v3.578l-1.391,1.342h-5.102V0.583z M48.578,2.372v2.684h2.319
			l0.464-0.448V2.819l-0.464-0.447H48.578z"/>
		<path id="XMLID_613_" d="M54.126,0.023h1.177l-0.531,2.609h-0.873L54.126,0.023z M55.729,0.023h1.168l-0.655,2.609h-0.883
			L55.729,0.023z"/>
	</g>
</g>
<g id="Layer_1">
</g>
</svg>
