<?xml version="1.0" encoding="iso-8859-1"?>
<!-- Generator: Adobe Illustrator 19.0.0, SVG Export Plug-In . SVG Version: 6.00 Build 0)  -->
<svg version="1.1" xmlns="http://www.w3.org/2000/svg" xmlns:xlink="http://www.w3.org/1999/xlink" x="0px" y="0px"
	 viewBox="0 0 64 8" style="enable-background:new 0 0 64 8;" xml:space="preserve">
<g id="Layer_3_copy_23">
	<g id="XMLID_550_">
		<path id="XMLID_551_" d="M4.813,2.633H3.93L3.275,0.023h1.167L4.813,2.633z M6.274,2.633H5.401L4.869,0.023h1.177L6.274,2.633z"/>
		<path id="XMLID_554_" d="M11.132,2.372v4.473H9.277V2.372H6.958V0.583h6.492v1.789H11.132z"/>
		<path id="XMLID_556_" d="M20.871,1.925v1.789l-1.391,1.342l1.855,1.789h-2.782l-1.855-1.789h-0.464v1.789h-1.855V0.583h5.101
			L20.871,1.925z M19.016,2.819l-0.463-0.447h-2.319v0.894h2.319L19.016,2.819z"/>
		<path id="XMLID_559_" d="M21.798,5.503V1.925l1.391-1.342h3.71l1.391,1.342v3.578l-1.391,1.342h-3.71L21.798,5.503z M23.653,2.819
			v1.789l0.464,0.448h1.855l0.463-0.448V2.819l-0.463-0.447h-1.855L23.653,2.819z"/>
		<path id="XMLID_562_" d="M29.218,5.503V1.925l1.391-1.342h3.71l1.391,1.342v3.578l-1.391,1.342h-3.71L29.218,5.503z M31.073,2.819
			v1.789l0.464,0.448h1.854l0.464-0.448V2.819l-0.464-0.447h-1.854L31.073,2.819z"/>
		<path id="XMLID_565_" d="M43.13,1.925v1.789l-1.391,1.342h-3.247v1.789h-1.854V0.583h5.102L43.13,1.925z M41.275,2.819
			l-0.464-0.447h-2.319v0.894h2.319L41.275,2.819z"/>
		<path id="XMLID_568_" d="M45.912,5.056h3.71v1.789h-5.564V0.583h5.564v1.789h-3.71v0.447h3.71v1.789h-3.71V5.056z"/>
		<path id="XMLID_570_" d="M57.042,1.925v1.789l-1.391,1.342l1.854,1.789h-2.782l-1.855-1.789h-0.464v1.789H50.55V0.583h5.102
			L57.042,1.925z M55.188,2.819l-0.464-0.447h-2.319v0.894h2.319L55.188,2.819z"/>
		<path id="XMLID_573_" d="M57.952,0.023h1.177l-0.531,2.609h-0.873L57.952,0.023z M59.556,0.023h1.168l-0.655,2.609h-0.883
			L59.556,0.023z"/>
	</g>
</g>
<g id="Layer_1">
</g>
</svg>
