<svg version="1.1" xmlns="http://www.w3.org/2000/svg" xmlns:xlink="http://www.w3.org/1999/xlink" width="24.18333" height="19.75941" viewBox="0,0,24.18333,19.75941"><g transform="translate(-227.90834,-170.12029)"><g data-paper-data="{&quot;isPaintingLayer&quot;:true}" fill="#ffffff" fill-rule="nonzero" stroke="none" stroke-width="1.19565" stroke-linecap="butt" stroke-linejoin="miter" stroke-miterlimit="10" stroke-dasharray="" stroke-dashoffset="0" style="mix-blend-mode: normal"><g><path d="M236.24283,178.13098h7.41073v11.74872h-7.41073z"/><path d="M236.24283,177.15992c0,-2.07171 3.70338,-7.03963 3.70338,-7.03963c0,0 3.70302,4.96359 3.70302,7.03963"/></g><g><g><path d="M227.90834,178.13098h7.41073v11.74872h-7.41073z"/><path d="M227.90834,177.15992c0,-2.07171 3.70302,-7.03963 3.70302,-7.03963c0,0 3.70338,4.96359 3.70338,7.03963"/></g><g><path d="M244.68093,178.13098h7.41073v11.74872h-7.41073z"/><path d="M244.68093,177.15992c0,-2.07171 3.70338,-7.03963 3.70338,-7.03963c0,0 3.70302,4.96359 3.70302,7.03963"/></g></g></g></g></svg>