<?xml version="1.0" encoding="iso-8859-1"?>
<!-- Generator: Adobe Illustrator 19.0.0, SVG Export Plug-In . SVG Version: 6.00 Build 0)  -->
<svg version="1.1" xmlns="http://www.w3.org/2000/svg" xmlns:xlink="http://www.w3.org/1999/xlink" x="0px" y="0px"
	 viewBox="0 0 64 8" style="enable-background:new 0 0 64 8;" xml:space="preserve">
<g id="Layer_3_copy_36">
	<g id="XMLID_807_">
		<path id="XMLID_808_" d="M11.305,2.633h-0.883L9.767,0.023h1.167L11.305,2.633z M12.766,2.633h-0.873l-0.532-2.609h1.177
			L12.766,2.633z"/>
		<path id="XMLID_811_" d="M19.943,1.925v1.789l-1.391,1.342h-3.246v1.789h-1.855V0.583h5.101L19.943,1.925z M18.088,2.819
			l-0.463-0.447h-2.319v0.894h2.319L18.088,2.819z"/>
		<path id="XMLID_814_" d="M22.726,6.845h-1.855V0.583h1.855V6.845z"/>
		<path id="XMLID_816_" d="M28.754,0.583l1.391,1.342l-1.391,1.341l-0.927-0.894h-1.855l-0.464,0.447v1.789l0.464,0.448h1.855
			l0.927-0.895l1.391,1.342l-1.391,1.342h-3.71l-1.391-1.342V1.925l1.391-1.342H28.754z"/>
		<path id="XMLID_818_" d="M32.927,4.608v2.237h-1.854V0.583h1.854v2.236l2.319-2.236h2.782l-3.246,3.13l3.246,3.131h-2.782
			L32.927,4.608z"/>
		<path id="XMLID_820_" d="M38.492,0.583h1.854v4.473h3.71v1.789h-5.564V0.583z"/>
		<path id="XMLID_822_" d="M46.84,5.056h3.71v1.789h-5.564V0.583h5.564v1.789h-3.71v0.447h3.71v1.789h-3.71V5.056z"/>
		<path id="XMLID_824_" d="M51.46,0.023h1.177l-0.531,2.609h-0.873L51.46,0.023z M53.063,0.023h1.168l-0.655,2.609h-0.883
			L53.063,0.023z"/>
	</g>
</g>
<g id="Layer_1">
</g>
</svg>
