<?xml version="1.0" encoding="iso-8859-1"?>
<!-- Generator: Adobe Illustrator 19.0.0, SVG Export Plug-In . SVG Version: 6.00 Build 0)  -->
<svg version="1.1" xmlns="http://www.w3.org/2000/svg" xmlns:xlink="http://www.w3.org/1999/xlink" x="0px" y="0px"
	 viewBox="0 0 64 8" style="enable-background:new 0 0 64 8;" xml:space="preserve">
<g id="Layer_3_copy_10">
	<g id="XMLID_291_">
		<path id="XMLID_292_" d="M16.522,2.633h-0.883l-0.655-2.609h1.167L16.522,2.633z M17.983,2.633H17.11l-0.532-2.609h1.177
			L17.983,2.633z"/>
		<path id="XMLID_295_" d="M25.16,1.925v1.789l-1.391,1.342h-3.246v1.789h-1.855V0.583h5.101L25.16,1.925z M23.305,2.819
			l-0.463-0.447h-2.319v0.894h2.319L23.305,2.819z"/>
		<path id="XMLID_298_" d="M27.943,5.056h3.709v1.789h-5.564V0.583h5.564v1.789h-3.709v0.447h3.709v1.789h-3.709V5.056z"/>
		<path id="XMLID_300_" d="M36.521,2.372v4.473h-1.855V2.372h-2.318V0.583h6.492v1.789H36.521z"/>
		<path id="XMLID_302_" d="M41.622,5.056h3.71v1.789h-5.564V0.583h5.564v1.789h-3.71v0.447h3.71v1.789h-3.71V5.056z"/>
		<path id="XMLID_304_" d="M46.243,0.023h1.177l-0.531,2.609h-0.873L46.243,0.023z M47.847,0.023h1.168l-0.655,2.609h-0.883
			L47.847,0.023z"/>
	</g>
</g>
<g id="Layer_1">
</g>
</svg>
