<?xml version="1.0" encoding="iso-8859-1"?>
<!-- Generator: Adobe Illustrator 19.0.0, SVG Export Plug-In . SVG Version: 6.00 Build 0)  -->
<svg version="1.1" xmlns="http://www.w3.org/2000/svg" xmlns:xlink="http://www.w3.org/1999/xlink" x="0px" y="0px"
	 viewBox="0 0 64 8" style="enable-background:new 0 0 64 8;" xml:space="preserve">
<g id="Layer_3_copy_30">
	<g id="XMLID_702_">
		<path id="XMLID_703_" d="M12.232,2.633H11.35l-0.655-2.609h1.167L12.232,2.633z M13.694,2.633h-0.873l-0.532-2.609h1.177
			L13.694,2.633z"/>
		<path id="XMLID_706_" d="M14.378,1.925l1.391-1.342h5.101v1.789h-4.173l-0.232,0.224l0.232,0.223h2.782l1.391,1.342v1.342
			l-1.391,1.342h-5.101V5.056h4.174l0.231-0.224l-0.231-0.224H15.77l-1.391-1.342V1.925z"/>
		<path id="XMLID_708_" d="M21.798,5.503v-4.92h1.855v4.025l0.464,0.448h1.855l0.463-0.448V0.583h1.855v4.92l-1.391,1.342h-3.71
			L21.798,5.503z"/>
		<path id="XMLID_710_" d="M35.71,1.925v1.789l-1.391,1.342h-3.246v1.789h-1.855V0.583h5.101L35.71,1.925z M33.855,2.819
			l-0.464-0.447h-2.318v0.894h2.318L33.855,2.819z"/>
		<path id="XMLID_713_" d="M38.492,5.056h3.71v1.789h-5.564V0.583h5.564v1.789h-3.71v0.447h3.71v1.789h-3.71V5.056z"/>
		<path id="XMLID_715_" d="M49.622,1.925v1.789l-1.391,1.342l1.854,1.789h-2.782l-1.855-1.789h-0.464v1.789H43.13V0.583h5.102
			L49.622,1.925z M47.768,2.819l-0.464-0.447h-2.319v0.894h2.319L47.768,2.819z"/>
		<path id="XMLID_718_" d="M50.532,0.023h1.177l-0.531,2.609h-0.873L50.532,0.023z M52.136,0.023h1.168l-0.655,2.609h-0.883
			L52.136,0.023z"/>
	</g>
</g>
<g id="Layer_1">
</g>
</svg>
