<svg xmlns="http://www.w3.org/2000/svg" xmlns:xlink="http://www.w3.org/1999/xlink" version="1.1" width="89.39399719238281" height="15" viewBox="-0.5 -0.5 89.39399719238281 15">
  <!-- Exported by Scratch - http://scratch.mit.edu/ -->
  <g id="ID0.09708630153909326">
    <g id="ID0.7871038150042295">
      <path id="ID0.5051906812004745" fill="#7F7F7F" d="M 0.031 0 C 0.014 0 0 0.014 0 0.031 C 0 0.048 0.014 0.048 0.031 0.031 C 0.048 0.014 0.048 0 0.031 0 Z M 9 0 C 8.966 0 8.952 0.014 8.969 0.031 C 8.986 0.048 9.014 0.048 9.032 0.031 C 9.05 0.014 9.034 0 9 0 Z M 16.586 1.477 L 13.5 4.563 L 10.414 1.477 C 9.636 0.699 8.364 0.699 7.586 1.477 L 4.5 4.563 L 1.414 1.477 C 1.122 1.185 0.851 1.04 0.625 1.031 C 0.324 1.018 0.104 1.246 0.029 1.69 C 0.01 1.801 0 1.925 0 2.063 L 0 12 C 0 12.138 0.014 12.271 0.041 12.401 C 0.228 13.311 1.038 14 2 14 L 16 14 C 17.1 14 18 13.1 18 12 L 18 2.062 C 18 0.962 17.363 0.699 16.586 1.477 Z M 17.969 0 C 17.951 0 17.951 0.014 17.969 0.031 C 17.987 0.048 18 0.048 18 0.031 C 18 0.014 17.986 0 17.969 0 Z " stroke-width="1"/>
    </g>
    <g id="ID0.39059003721922636">
      <path id="ID0.9469409971497953" fill="#FFFFFF" d="M 33.012 4.259 L 32.184 5.291 C 31.573 4.631 30.698 4.224 29.846 4.224 C 28.166 4.224 26.847 5.519 26.847 7.174 C 26.847 8.829 28.166 10.136 29.846 10.136 C 30.685 10.136 31.549 9.752 32.184 9.141 L 33.024 10.077 C 32.172 10.917 30.961 11.456 29.774 11.456 C 27.315 11.456 25.409 9.598 25.409 7.186 C 25.409 4.799 27.34 2.964 29.822 2.964 C 31.009 2.964 32.196 3.456 33.012 4.259 Z " stroke-width="1"/>
      <path id="ID0.14158555399626493" fill="#FFFFFF" d="M 40.26 8.205 C 40.26 10.124 38.905 11.443 36.938 11.443 C 34.959 11.443 33.604 10.124 33.604 8.205 C 33.604 6.274 34.959 4.967 36.938 4.967 C 38.904 4.967 40.26 6.274 40.26 8.205 Z M 34.982 8.217 C 34.982 9.452 35.786 10.292 36.937 10.292 C 38.077 10.292 38.88 9.452 38.88 8.217 C 38.88 6.994 38.076 6.154 36.937 6.154 C 35.786 6.154 34.982 6.994 34.982 8.217 Z " stroke-width="1"/>
      <path id="ID0.16695451084524393" fill="#FFFFFF" d="M 47.808 7.426 L 47.808 11.396 L 46.429 11.396 L 46.429 7.81 C 46.429 6.85 45.853 6.262 44.894 6.262 C 43.838 6.275 43.178 7.006 43.082 8.001 L 43.082 11.396 L 41.703 11.396 L 41.703 5.015 L 43.082 5.015 L 43.082 6.239 C 43.538 5.351 44.353 4.968 45.433 4.968 C 46.92 4.967 47.808 5.902 47.808 7.426 Z " stroke-width="1"/>
      <path id="ID0.35608685947954655" fill="#FFFFFF" d="M 53.27 10.987 C 52.766 11.287 52.238 11.455 51.699 11.455 C 50.739 11.455 49.912 10.903 49.912 9.597 L 49.912 6.286 L 49.013 6.286 L 49.013 5.255 L 49.912 5.255 L 49.912 3.504 L 51.279 3.504 L 51.279 5.255 L 53.162 5.255 L 53.162 6.286 L 51.279 6.286 L 51.279 9.345 C 51.279 10.004 51.531 10.208 51.963 10.208 C 52.251 10.208 52.551 10.112 52.922 9.933 L 53.27 10.987 Z " stroke-width="1"/>
      <path id="ID0.6730411588214338" fill="#FFFFFF" d="M 60.085 8.733 L 55.263 8.733 C 55.48 9.716 56.235 10.328 57.242 10.328 C 57.937 10.328 58.573 10.064 59.041 9.585 L 59.772 10.364 C 59.149 11.048 58.237 11.443 57.133 11.443 C 55.166 11.443 53.871 10.135 53.871 8.216 C 53.871 6.285 55.202 4.978 57.097 4.966 C 59.341 4.967 60.252 6.43 60.085 8.733 Z M 58.885 7.726 C 58.837 6.695 58.154 6.071 57.111 6.071 C 56.103 6.071 55.396 6.707 55.24 7.726 L 58.885 7.726 Z " stroke-width="1"/>
      <path id="ID0.2921227551996708" fill="#FFFFFF" d="M 65.665 5.603 L 65.161 6.623 C 64.598 6.275 63.89 6.06 63.326 6.06 C 62.786 6.06 62.39 6.24 62.39 6.696 C 62.39 7.871 65.785 7.235 65.772 9.55 C 65.772 10.857 64.609 11.445 63.326 11.445 C 62.39 11.445 61.395 11.133 60.76 10.557 L 61.251 9.574 C 61.803 10.066 62.69 10.366 63.387 10.366 C 63.974 10.366 64.43 10.162 64.43 9.682 C 64.43 8.374 61.072 9.106 61.084 6.803 C 61.084 5.508 62.211 4.956 63.435 4.956 C 64.237 4.955 65.089 5.194 65.665 5.603 Z " stroke-width="1"/>
      <path id="ID0.4210567972622812" fill="#FFFFFF" d="M 70.777 10.987 C 70.273 11.287 69.745 11.455 69.206 11.455 C 68.246 11.455 67.419 10.903 67.419 9.597 L 67.419 6.286 L 66.52 6.286 L 66.52 5.255 L 67.419 5.255 L 67.419 3.504 L 68.786 3.504 L 68.786 5.255 L 70.669 5.255 L 70.669 6.286 L 68.786 6.286 L 68.786 9.345 C 68.786 10.004 69.038 10.208 69.47 10.208 C 69.758 10.208 70.058 10.112 70.429 9.933 L 70.777 10.987 Z " stroke-width="1"/>
      <path id="ID0.14045056188479066" fill="#FFFFFF" d="M 77.593 8.733 L 72.771 8.733 C 72.988 9.716 73.743 10.328 74.75 10.328 C 75.445 10.328 76.081 10.064 76.549 9.585 L 77.28 10.364 C 76.657 11.048 75.745 11.443 74.641 11.443 C 72.674 11.443 71.379 10.135 71.379 8.216 C 71.379 6.285 72.71 4.978 74.605 4.966 C 76.849 4.967 77.76 6.43 77.593 8.733 Z M 76.393 7.726 C 76.345 6.695 75.662 6.071 74.619 6.071 C 73.611 6.071 72.904 6.707 72.748 7.726 L 76.393 7.726 Z " stroke-width="1"/>
      <path id="ID0.45695056300610304" fill="#FFFFFF" d="M 85.115 11.396 L 83.736 11.396 L 83.736 10.304 C 83.28 11.048 82.512 11.455 81.494 11.455 C 79.659 11.455 78.435 10.124 78.435 8.181 C 78.435 6.262 79.67 4.955 81.469 4.955 C 82.5 4.955 83.268 5.375 83.736 6.118 L 83.736 2.496 L 85.115 2.496 L 85.115 11.396 Z M 83.736 8.229 C 83.736 6.994 82.932 6.129 81.781 6.129 C 80.63 6.129 79.826 7.005 79.814 8.229 C 79.826 9.44 80.618 10.303 81.781 10.303 C 82.933 10.304 83.736 9.44 83.736 8.229 Z " stroke-width="1"/>
      <path id="ID0.5740580107085407" fill="#FFFFFF" d="M 88.394 10.7 C 88.394 11.168 88.071 11.504 87.639 11.504 C 87.207 11.504 86.883 11.168 86.883 10.7 C 86.883 10.244 87.207 9.92 87.639 9.92 C 88.071 9.92 88.394 10.244 88.394 10.7 Z M 88.07 8.721 L 87.194 8.721 L 86.978 5.171 L 86.978 3.108 L 88.286 3.108 L 88.286 5.171 L 88.07 8.721 Z " stroke-width="1"/>
    </g>
  </g>
</svg>