<svg version="1.1" xmlns="http://www.w3.org/2000/svg" xmlns:xlink="http://www.w3.org/1999/xlink" width="56.819" height="7.377" viewBox="0,0,56.819,7.377"><g transform="translate(-211.215,-176.023)"><g data-paper-data="{&quot;isPaintingLayer&quot;:true}" fill="#000000" fill-rule="nonzero" stroke="none" stroke-width="1" stroke-linecap="butt" stroke-linejoin="miter" stroke-miterlimit="10" stroke-dasharray="" stroke-dashoffset="0" style="mix-blend-mode: normal"><path d="M220.8,176.9l1.4,1.4l-1.4,1.4l-0.9,-0.9h-1.8l-0.5,0.5v1.7l0.5,0.5h1.8l0.9,-0.9l1.4,1.4l-1.4,1.4h-3.6l-1.4,-1.4v-3.6l1.4,-1.4h3.6z"/><path d="M229.4,178.3v1.8l-1.4,1.3l1.8,1.8h-2.7l-1.8,-1.8h-0.5v1.8h-1.8v-6.3h5zM227.6,179.2l-0.5,-0.5h-2.3v0.9h2.3z"/><path d="M230.3,180.1v-3.2h1.8v2.3l0.5,0.5h1.8l0.5,-0.5v-2.3h1.8v3.2l-1.4,1.4h-0.9v1.8h-1.8v-1.8h-0.9z"/><path d="M237.5,178.3l1.4,-1.4h5v1.8h-4.1l-0.3,0.3l0.2,0.2h2.7l1.4,1.4v1.4l-1.4,1.4h-5v-1.8h4.1l0.2,-0.2l-0.1,-0.4h-2.7l-1.4,-1.4z"/><path d="M248.6,178.7v4.5h-1.8v-4.5h-2.3v-1.8h6.3v1.8z"/><path d="M252.9,176.9h3.6l1.4,1.4v5h-1.9v-1.4h-2.7v1.4h-1.8v-5zM255.6,178.7h-1.8l-0.5,0.5v0.9h2.7v-0.9z"/><path d="M258.7,176.9h1.8v4.5h3.6v1.8h-5.4z"/><path d="M212.752,178.633h-0.882l-0.655,-2.61h1.167zM214.214,178.633h-0.873l-0.532,-2.609h1.177z"/><path d="M265.263,176.023h1.177l-0.531,2.609h-0.874zM266.866,176.023h1.168l-0.655,2.609h-0.883z"/></g></g></svg>