<svg xmlns="http://www.w3.org/2000/svg" xmlns:xlink="http://www.w3.org/1999/xlink" version="1.1" width="49.5" height="16.5" viewBox="0.25 0.25 49.5 16.5">
  <!-- Exported by Scratch - http://scratch.mit.edu/ -->
  <g id="ID0.06813566666096449">
    <path id="ID0.7615923690609634" fill="#FFFFFF" d="M 16.504 5.194 C 17.664 5.194 18.383 5.721 18.383 6.592 C 18.383 7.224 18.007 7.696 17.399 7.84 C 18.151 7.968 18.599 8.503 18.599 9.255 C 18.599 10.214 17.823 10.79 16.56 10.79 L 14.073 10.79 L 14.073 5.194 L 16.504 5.194 Z M 15.017 7.513 L 16.456 7.513 C 17.056 7.513 17.415 7.233 17.415 6.761 C 17.415 6.289 17.055 6.033 16.456 6.033 L 15.017 6.033 L 15.017 7.513 Z M 15.017 9.951 L 16.456 9.951 C 17.192 9.951 17.631 9.663 17.631 9.136 C 17.631 8.64 17.192 8.344 16.456 8.344 L 15.017 8.344 L 15.017 9.951 Z " stroke-width="1"/>
    <path id="ID0.2501414278522134" fill="#FFFFFF" d="M 20.513 9.527 L 19.977 10.791 L 18.993 10.791 L 21.464 5.194 L 22.432 5.194 L 24.878 10.791 L 23.871 10.791 L 23.335 9.527 L 20.513 9.527 Z M 21.92 6.201 L 20.864 8.687 L 22.975 8.687 L 21.92 6.201 Z " stroke-width="1"/>
    <path id="ID0.6313294991850853" fill="#FFFFFF" d="M 30.087 6.033 L 29.535 6.721 C 29.128 6.282 28.544 6.01 27.976 6.01 C 26.856 6.01 25.977 6.873 25.977 7.977 C 25.977 9.081 26.856 9.952 27.976 9.952 C 28.536 9.952 29.111 9.696 29.535 9.289 L 30.095 9.912 C 29.528 10.472 28.72 10.831 27.929 10.831 C 26.289 10.831 25.018 9.593 25.018 7.985 C 25.018 6.394 26.306 5.171 27.96 5.171 C 28.752 5.17 29.543 5.498 30.087 6.033 Z " stroke-width="1"/>
    <path id="ID0.6566976592876017" fill="#FFFFFF" d="M 32.953 8.32 L 32.001 9.367 L 32.001 10.791 L 31.058 10.791 L 31.058 5.194 L 32.001 5.194 L 32.001 8.088 L 34.672 5.194 L 35.783 5.194 L 33.616 7.585 L 35.927 10.791 L 34.792 10.791 L 32.953 8.32 Z " stroke-width="1"/>
  </g>
  <path id="ID0.09028597921133041" fill="#FFFFFF" d="M 0.75 0.75 L 0.75 16.25 L 49.25 16.25 L 49.25 0.75 L 0.75 0.75 Z M 48.75 15.75 L 1.25 15.75 L 1.25 1.25 L 48.75 1.25 L 48.75 15.75 Z " stroke-width="1"/>
</svg>