<?xml version="1.0" encoding="iso-8859-1"?>
<!-- Generator: Adobe Illustrator 19.0.0, SVG Export Plug-In . SVG Version: 6.00 Build 0)  -->
<svg version="1.1" xmlns="http://www.w3.org/2000/svg" xmlns:xlink="http://www.w3.org/1999/xlink" x="0px" y="0px"
	 viewBox="0 0 64 8" style="enable-background:new 0 0 64 8;" xml:space="preserve">
<g id="Layer_3_copy_27">
	<g id="XMLID_633_">
		<path id="XMLID_634_" d="M11.769,2.633h-0.883l-0.655-2.609h1.167L11.769,2.633z M13.23,2.633h-0.873l-0.532-2.609h1.177
			L13.23,2.633z"/>
		<path id="XMLID_637_" d="M13.915,1.925l1.391-1.342h5.101v1.789h-4.173l-0.232,0.224l0.232,0.223h2.782l1.391,1.342v1.342
			l-1.391,1.342h-5.101V5.056h4.174l0.231-0.224l-0.231-0.224h-2.783l-1.391-1.342V1.925z"/>
		<path id="XMLID_639_" d="M23.189,4.608v2.237h-1.855V0.583h1.855v2.236h2.782V0.583h1.855v6.262h-1.855V4.608H23.189z"/>
		<path id="XMLID_641_" d="M30.146,0.583h3.71l1.391,1.342v4.92h-1.854V5.503h-2.782v1.342h-1.855v-4.92L30.146,0.583z
			 M32.928,2.372h-1.855l-0.464,0.447v0.895h2.782V2.819L32.928,2.372z"/>
		<path id="XMLID_644_" d="M42.666,1.925v1.789l-1.391,1.342l1.854,1.789h-2.782l-1.855-1.789h-0.464v1.789h-1.854V0.583h5.102
			L42.666,1.925z M40.812,2.819l-0.464-0.447h-2.319v0.894h2.319L40.812,2.819z"/>
		<path id="XMLID_647_" d="M45.448,4.608v2.237h-1.854V0.583h1.854v2.236l2.319-2.236h2.782l-3.246,3.13l3.246,3.131h-2.782
			L45.448,4.608z"/>
		<path id="XMLID_649_" d="M50.996,0.023h1.177l-0.531,2.609h-0.873L50.996,0.023z M52.6,0.023h1.168l-0.655,2.609h-0.883
			L52.6,0.023z"/>
	</g>
</g>
<g id="Layer_1">
</g>
</svg>
