<?xml version="1.0" encoding="iso-8859-1"?>
<!-- Generator: Adobe Illustrator 19.0.0, SVG Export Plug-In . SVG Version: 6.00 Build 0)  -->
<svg version="1.1" xmlns="http://www.w3.org/2000/svg" xmlns:xlink="http://www.w3.org/1999/xlink" x="0px" y="0px"
	 viewBox="0 0 64 8" style="enable-background:new 0 0 64 8;" xml:space="preserve">
<g id="Layer_3_copy_41">
	<g id="XMLID_907_">
		<path id="XMLID_908_" d="M18.261,2.633h-0.883l-0.655-2.609h1.167L18.261,2.633z M19.723,2.633H18.85l-0.532-2.609h1.177
			L19.723,2.633z"/>
		<path id="XMLID_911_" d="M20.407,5.503V1.925l1.391-1.342h3.71l1.391,1.342l-0.927,0.894h0.927v4.026h-5.101L20.407,5.503z
			 M22.262,2.819v1.789l0.464,0.448h2.318V4.608h-1.855V2.819h1.855l-0.463-0.447h-1.855L22.262,2.819z"/>
		<path id="XMLID_914_" d="M29.682,6.845h-1.855V0.583h1.855V6.845z"/>
		<path id="XMLID_916_" d="M36.173,0.583v1.789h-3.708v0.447h3.708v1.789h-3.708v2.237h-1.855V0.583H36.173z"/>
		<path id="XMLID_918_" d="M41.275,2.372v4.473H39.42V2.372h-2.318V0.583h6.492v1.789H41.275z"/>
		<path id="XMLID_920_" d="M44.504,0.023h1.177l-0.531,2.609h-0.873L44.504,0.023z M46.107,0.023h1.168L46.62,2.633h-0.883
			L46.107,0.023z"/>
	</g>
</g>
<g id="Layer_1">
</g>
</svg>
