<svg version="1.1" xmlns="http://www.w3.org/2000/svg" xmlns:xlink="http://www.w3.org/1999/xlink" width="24" height="32" viewBox="0,0,24,32"><defs><linearGradient x1="231.648" y1="172.832" x2="231.648" y2="187.168" gradientUnits="userSpaceOnUse" id="color-1"><stop offset="0" stop-color="#ffffff"/><stop offset="1" stop-color="#fefefe"/></linearGradient><linearGradient x1="232.651" y1="188.782" x2="232.651" y2="191.069" gradientUnits="userSpaceOnUse" id="color-2"><stop offset="0" stop-color="#ffffff"/><stop offset="1" stop-color="#fefefe"/></linearGradient><linearGradient x1="236.554" y1="190.067" x2="236.554" y2="191.92" gradientUnits="userSpaceOnUse" id="color-3"><stop offset="0" stop-color="#ffffff"/><stop offset="1" stop-color="#fefefe"/></linearGradient><linearGradient x1="243.666" y1="169.882" x2="243.666" y2="171.354" gradientUnits="userSpaceOnUse" id="color-4"><stop offset="0" stop-color="#ffffff"/><stop offset="1" stop-color="#fefefe"/></linearGradient><linearGradient x1="240.861" y1="169.206" x2="240.861" y2="170.422" gradientUnits="userSpaceOnUse" id="color-5"><stop offset="0" stop-color="#ffffff"/><stop offset="1" stop-color="#fefefe"/></linearGradient><linearGradient x1="233.695" y1="169.078" x2="233.695" y2="173.366" gradientUnits="userSpaceOnUse" id="color-6"><stop offset="0" stop-color="#ffffff"/><stop offset="1" stop-color="#fefefe"/></linearGradient></defs><g transform="translate(-228,-164)"><g data-paper-data="{&quot;isPaintingLayer&quot;:true}" fill-rule="nonzero" stroke="none" stroke-width="1" stroke-linecap="butt" stroke-linejoin="miter" stroke-miterlimit="10" stroke-dasharray="" stroke-dashoffset="0" style="mix-blend-mode: normal"><path d="M250.22,185.029l-1.902,7.098l-2.123,-2.123c-1.64,1.287 -3.513,1.816 -5.333,1.92v-1.481c1.463,-0.096 2.954,-0.506 4.276,-1.495l-2.017,-2.017z" fill="#ffffff"/><path d="M228,164h24l-3.5,17.35l3.5,14.65h-24z" fill="none"/><path d="M243.12,186.93zM248.352,179.795c0,2.956 -1.479,4.174 -3.719,4.672v1.023l-1.771,0.475l-1.673,0.448l0.755,0.755h-6.576v-2.701c-2.242,-0.498 -3.72,-1.717 -3.72,-4.672c0,-4.706 3.74,-6.963 8.353,-6.963c4.612,0 8.351,2.257 8.351,6.963zM238.913,180.642c0,-1.168 -0.975,-2.114 -2.176,-2.114c-1.203,0 -2.177,0.946 -2.177,2.114c0,1.167 0.974,2.114 2.177,2.114c1.201,0 2.176,-0.947 2.176,-2.114zM240.913,183.012c0,-1.617 -0.912,-2.93 -0.912,-2.93c0,0 -0.912,1.313 -0.912,2.93zM245.44,180.642c0,-1.168 -0.975,-2.114 -2.176,-2.114c-1.203,0 -2.176,0.946 -2.176,2.114c0,1.167 0.973,2.114 2.176,2.114c1.201,0 2.175,-0.947 2.176,-2.114z" fill="url(#color-1)"/><path d="M233.527,188.782c0.024,0.014 0.844,0.448 2.097,0.873l-0.486,1.414c-1.389,-0.467 -2.337,-0.972 -2.487,-1.115l0.507,-0.534z" fill="url(#color-2)"/><path d="M237.04,190.067c0.724,0.178 1.519,0.32 2.349,0.378v1.475c-1.006,-0.058 -1.967,-0.227 -2.835,-0.441z" fill="url(#color-3)"/><path d="M244.906,171.354c-0.015,-0.009 -0.494,-0.262 -1.24,-0.528l0.325,-0.944c0.9,0.327 1.483,0.649 1.499,0.663l-0.334,0.374z" fill="url(#color-4)"/><path d="M242.248,170.422c-0.437,-0.096 -0.902,-0.172 -1.387,-0.203v-1.013c0.604,0.035 1.184,0.131 1.717,0.255z" fill="url(#color-5)"/><path d="M236.296,170.53c0.967,-0.765 2.036,-1.139 3.092,-1.274v1.025c-0.822,0.121 -1.642,0.405 -2.382,0.959l0.722,0.721c-1.56,0.213 -2.916,0.696 -4.033,1.405l1.149,-4.288z" fill="url(#color-6)"/></g></g></svg>