<?xml version="1.0" encoding="iso-8859-1"?>
<!-- Generator: Adobe Illustrator 19.0.0, SVG Export Plug-In . SVG Version: 6.00 Build 0)  -->
<svg version="1.1" xmlns="http://www.w3.org/2000/svg" xmlns:xlink="http://www.w3.org/1999/xlink" x="0px" y="0px"
	 viewBox="0 0 64 8" style="enable-background:new 0 0 64 8;" xml:space="preserve">
<g id="Layer_3_copy_24">
	<g id="XMLID_576_">
		<path id="XMLID_577_" d="M12.232,2.633H11.35l-0.655-2.609h1.167L12.232,2.633z M13.694,2.633h-0.873l-0.532-2.609h1.177
			L13.694,2.633z"/>
		<path id="XMLID_580_" d="M19.479,0.583l1.391,1.342l-1.391,1.341l-0.927-0.894h-1.855l-0.464,0.447v1.789l0.464,0.448h1.855
			l0.927-0.895l1.391,1.342l-1.391,1.342h-3.71l-1.391-1.342V1.925l1.391-1.342H19.479z"/>
		<path id="XMLID_582_" d="M21.798,0.583h1.855v4.473h3.71v1.789h-5.565V0.583z"/>
		<path id="XMLID_584_" d="M29.682,0.583h3.71l1.391,1.342v4.92h-1.854V5.503h-2.783v1.342h-1.855v-4.92L29.682,0.583z
			 M32.464,2.372h-1.855l-0.464,0.447v0.895h2.783V2.819L32.464,2.372z"/>
		<path id="XMLID_587_" d="M35.71,5.503v-4.92h1.854v4.025l0.464,0.448h1.855l0.464-0.448V0.583h1.854v4.92l-1.391,1.342h-3.71
			L35.71,5.503z"/>
		<path id="XMLID_589_" d="M43.13,1.925l1.392-1.342h5.101v1.789h-4.174l-0.231,0.224l0.231,0.223h2.783l1.391,1.342v1.342
			l-1.391,1.342H43.13V5.056h4.174l0.231-0.224l-0.231-0.224h-2.782L43.13,3.266V1.925z"/>
		<path id="XMLID_591_" d="M50.532,0.023h1.177l-0.531,2.609h-0.873L50.532,0.023z M52.136,0.023h1.168l-0.655,2.609h-0.883
			L52.136,0.023z"/>
	</g>
</g>
<g id="Layer_1">
</g>
</svg>
