<?xml version="1.0" encoding="iso-8859-1"?>
<!-- Generator: Adobe Illustrator 19.0.0, SVG Export Plug-In . SVG Version: 6.00 Build 0)  -->
<svg version="1.1" xmlns="http://www.w3.org/2000/svg" xmlns:xlink="http://www.w3.org/1999/xlink" x="0px" y="0px"
	 viewBox="0 0 64 8" style="enable-background:new 0 0 64 8;" xml:space="preserve">
<g id="Layer_3_copy_15">
	<g id="XMLID_387_">
		<path id="XMLID_388_" d="M16.058,2.633h-0.883l-0.655-2.609h1.167L16.058,2.633z M17.52,2.633h-0.873l-0.532-2.609h1.177
			L17.52,2.633z"/>
		<path id="XMLID_391_" d="M24.696,1.925v1.341l-0.463,0.447l0.463,0.447v1.342l-1.391,1.342h-5.101V0.583h5.101L24.696,1.925z
			 M22.378,2.372h-2.319v0.447h2.319l0.231-0.223L22.378,2.372z M20.059,4.608v0.448h2.319l0.231-0.224l-0.231-0.224H20.059z"/>
		<path id="XMLID_395_" d="M27.479,5.056h3.71v1.789h-5.565V0.583h5.565v1.789h-3.71v0.447h3.71v1.789h-3.71V5.056z"/>
		<path id="XMLID_397_" d="M33.276,0.583h3.709l1.391,1.342v4.92h-1.854V5.503h-2.783v1.342h-1.855v-4.92L33.276,0.583z
			 M36.058,2.372h-1.855l-0.463,0.447v0.895h2.783V2.819L36.058,2.372z"/>
		<path id="XMLID_400_" d="M45.796,1.925v1.789l-1.391,1.342l1.854,1.789h-2.782l-1.855-1.789h-0.464v1.789h-1.854V0.583h5.102
			L45.796,1.925z M43.941,2.819l-0.464-0.447h-2.319v0.894h2.319L43.941,2.819z"/>
		<path id="XMLID_403_" d="M46.706,0.023h1.177l-0.531,2.609h-0.873L46.706,0.023z M48.31,0.023h1.168l-0.655,2.609h-0.883
			L48.31,0.023z"/>
	</g>
</g>
<g id="Layer_1">
</g>
</svg>
