<?xml version="1.0" encoding="iso-8859-1"?>
<!-- Generator: Adobe Illustrator 19.0.0, SVG Export Plug-In . SVG Version: 6.00 Build 0)  -->
<svg version="1.1" xmlns="http://www.w3.org/2000/svg" xmlns:xlink="http://www.w3.org/1999/xlink" x="0px" y="0px"
	 viewBox="0 0 64 8" style="enable-background:new 0 0 64 8;" xml:space="preserve">
<g id="Layer_3_copy_43">
	<g id="XMLID_943_">
		<path id="XMLID_944_" d="M6.667,2.633H5.785L5.13,0.023h1.167L6.667,2.633z M8.129,2.633H7.256L6.724,0.023h1.177L8.129,2.633z"/>
		<path id="XMLID_947_" d="M8.813,5.503v-4.92h1.855v4.025l0.464,0.448h1.855l0.463-0.448V0.583h1.855v4.92l-1.391,1.342h-3.71
			L8.813,5.503z"/>
		<path id="XMLID_949_" d="M18.088,3.713v3.131h-1.855V0.583h1.391l3.246,3.13v-3.13h1.855v6.262h-1.391L18.088,3.713z"/>
		<path id="XMLID_951_" d="M25.508,6.845h-1.855V0.583h1.855V6.845z"/>
		<path id="XMLID_953_" d="M31.537,0.583l1.391,1.342l-1.391,1.341L30.61,2.372h-1.855l-0.464,0.447v1.789l0.464,0.448h1.855
			l0.927-0.895l1.391,1.342l-1.391,1.342h-3.71l-1.391-1.342V1.925l1.391-1.342H31.537z"/>
		<path id="XMLID_955_" d="M33.855,5.503V1.925l1.392-1.342h3.71l1.391,1.342v3.578l-1.391,1.342h-3.71L33.855,5.503z M35.71,2.819
			v1.789l0.464,0.448h1.855l0.464-0.448V2.819l-0.464-0.447h-1.855L35.71,2.819z"/>
		<path id="XMLID_958_" d="M47.768,1.925v1.789l-1.391,1.342l1.854,1.789h-2.782l-1.855-1.789H43.13v1.789h-1.854V0.583h5.102
			L47.768,1.925z M45.913,2.819l-0.464-0.447H43.13v0.894h2.319L45.913,2.819z"/>
		<path id="XMLID_961_" d="M50.55,3.713v3.131h-1.854V0.583h1.392l3.246,3.13v-3.13h1.854v6.262h-1.391L50.55,3.713z"/>
		<path id="XMLID_963_" d="M56.098,0.023h1.177l-0.531,2.609H55.87L56.098,0.023z M57.701,0.023h1.168l-0.655,2.609h-0.883
			L57.701,0.023z"/>
	</g>
</g>
<g id="Layer_1">
</g>
</svg>
