<?xml version="1.0" encoding="iso-8859-1"?>
<!-- Generator: Adobe Illustrator 19.0.0, SVG Export Plug-In . SVG Version: 6.00 Build 0)  -->
<svg version="1.1" xmlns="http://www.w3.org/2000/svg" xmlns:xlink="http://www.w3.org/1999/xlink" x="0px" y="0px"
	 viewBox="0 0 64 8" style="enable-background:new 0 0 64 8;" xml:space="preserve">
<g id="Layer_3_copy_17">
	<g id="XMLID_429_">
		<path id="XMLID_430_" d="M6.667,2.633H5.785L5.13,0.023h1.167L6.667,2.633z M8.129,2.633H7.256L6.724,0.023h1.177L8.129,2.633z"/>
		<path id="XMLID_433_" d="M15.306,1.925v1.789l-1.391,1.342h-3.246v1.789H8.813V0.583h5.101L15.306,1.925z M13.451,2.819
			l-0.463-0.447h-2.319v0.894h2.319L13.451,2.819z"/>
		<path id="XMLID_436_" d="M16.233,5.503v-4.92h1.855v4.025l0.464,0.448h1.855l0.463-0.448V0.583h1.855v4.92l-1.391,1.342h-3.71
			L16.233,5.503z"/>
		<path id="XMLID_438_" d="M25.508,3.266v3.579h-1.855V0.583h1.855l1.391,1.342l1.391-1.342h1.855v6.262h-1.855V3.266l-1.391,1.342
			L25.508,3.266z"/>
		<path id="XMLID_440_" d="M37.565,1.925v1.789l-1.391,1.342h-3.248v1.789h-1.854V0.583h5.102L37.565,1.925z M35.71,2.819
			l-0.463-0.447h-2.32v0.894h2.32L35.71,2.819z"/>
		<path id="XMLID_443_" d="M40.348,4.608v2.237h-1.854V0.583h1.854v2.236l2.319-2.236h2.782l-3.246,3.13l3.246,3.131h-2.782
			L40.348,4.608z"/>
		<path id="XMLID_445_" d="M47.768,6.845h-1.854V0.583h1.854V6.845z"/>
		<path id="XMLID_447_" d="M50.55,3.713v3.131h-1.854V0.583h1.392l3.246,3.13v-3.13h1.854v6.262h-1.391L50.55,3.713z"/>
		<path id="XMLID_449_" d="M56.098,0.023h1.177l-0.531,2.609H55.87L56.098,0.023z M57.701,0.023h1.168l-0.655,2.609h-0.883
			L57.701,0.023z"/>
	</g>
</g>
<g id="Layer_1">
</g>
</svg>
