<svg xmlns="http://www.w3.org/2000/svg" xmlns:xlink="http://www.w3.org/1999/xlink" version="1.1" width="49" height="15" viewBox="0.5 0.5 49 15">
  <!-- Exported by Scratch - http://scratch.mit.edu/ -->
  <g id="ID0.35717040207237005">
    <path id="ID0.1170293977484107" fill="#FFFFFF" stroke="#FFFFFF" d="M 1 1 L 49 1 L 49 15 L 1 15 L 1 1 Z " stroke-width="1"/>
    <g id="ID0.8022587690502405">
      <path id="ID0.358695677947253" fill="#7F7F7F" d="M 16.011 5.722 L 15.618 6.553 C 15.011 6.185 14.403 6.033 13.979 6.033 C 13.427 6.033 13.068 6.241 13.068 6.617 C 13.068 7.84 16.089 7.184 16.082 9.199 C 16.082 10.199 15.203 10.814 13.972 10.814 C 13.092 10.814 12.261 10.455 11.685 9.927 L 12.093 9.111 C 12.668 9.638 13.388 9.927 13.988 9.927 C 14.643 9.927 15.036 9.679 15.036 9.246 C 15.036 7.999 12.014 8.694 12.014 6.704 C 12.014 5.744 12.837 5.144 14.053 5.144 C 14.779 5.146 15.49 5.377 16.011 5.722 Z " stroke-width="1"/>
      <path id="ID0.8884351388551295" fill="#7F7F7F" d="M 19.235 6.033 L 19.235 10.783 L 18.292 10.783 L 18.292 6.033 L 16.524 6.033 L 16.524 5.186 L 21.01 5.186 L 21.01 6.034 L 19.235 6.034 Z " stroke-width="1"/>
      <path id="ID0.049143978860229254" fill="#7F7F7F" d="M 22.061 9.52 L 21.525 10.784 L 20.542 10.784 L 23.013 5.186 L 23.981 5.186 L 26.428 10.784 L 25.419 10.784 L 24.883 9.52 L 22.061 9.52 Z M 23.468 6.193 L 22.412 8.68 L 24.522 8.68 L 23.468 6.193 Z " stroke-width="1"/>
      <path id="ID0.5749343652278185" fill="#7F7F7F" d="M 29.7 9.087 C 29.62 9.096 29.532 9.096 29.444 9.096 L 28.116 9.096 L 28.116 10.784 L 27.173 10.784 L 27.173 5.186 L 29.444 5.186 C 30.874 5.186 31.698 5.881 31.698 7.097 C 31.698 7.993 31.282 8.624 30.538 8.911 L 31.794 10.783 L 30.724 10.783 L 29.7 9.087 Z M 29.444 8.248 C 30.307 8.248 30.801 7.88 30.801 7.12 C 30.801 6.385 30.307 6.033 29.444 6.033 L 28.116 6.033 L 28.116 8.248 L 29.444 8.248 Z " stroke-width="1"/>
      <path id="ID0.915381234139204" fill="#7F7F7F" d="M 35.003 6.033 L 35.003 10.783 L 34.06 10.783 L 34.06 6.033 L 32.294 6.033 L 32.294 5.186 L 36.778 5.186 L 36.778 6.034 L 35.003 6.034 Z " stroke-width="1"/>
      <path id="ID0.9065321083180606" fill="#7F7F7F" d="M 38.315 10.318 C 38.315 10.631 38.1 10.854 37.813 10.854 C 37.524 10.854 37.309 10.63 37.309 10.318 C 37.309 10.015 37.524 9.798 37.813 9.798 C 38.101 9.799 38.315 10.016 38.315 10.318 Z M 38.101 8.999 L 37.517 8.999 L 37.372 6.633 L 37.372 5.258 L 38.245 5.258 L 38.245 6.633 L 38.101 8.999 Z " stroke-width="1"/>
    </g>
  </g>
</svg>