<?xml version="1.0" encoding="iso-8859-1"?>
<!-- Generator: Adobe Illustrator 19.0.0, SVG Export Plug-In . SVG Version: 6.00 Build 0)  -->
<svg version="1.1" xmlns="http://www.w3.org/2000/svg" xmlns:xlink="http://www.w3.org/1999/xlink" x="0px" y="0px"
	 viewBox="0 0 64 8" style="enable-background:new 0 0 64 8;" xml:space="preserve">
<g id="Layer_3_copy_16">
	<g id="XMLID_406_">
		<path id="XMLID_407_" d="M9.102,2.633H8.219L7.564,0.023h1.167L9.102,2.633z M10.563,2.633H9.69L9.159,0.023h1.177L10.563,2.633z"
			/>
		<path id="XMLID_410_" d="M17.74,1.925v1.789l-1.391,1.342l1.855,1.789h-2.782l-1.855-1.789h-0.464v1.789h-1.855V0.583h5.101
			L17.74,1.925z M15.885,2.819l-0.463-0.447h-2.319v0.894h2.319L15.885,2.819z"/>
		<path id="XMLID_413_" d="M20.523,5.056h3.71v1.789h-5.565V0.583h5.565v1.789h-3.71v0.447h3.71v1.789h-3.71V5.056z"/>
		<path id="XMLID_415_" d="M26.32,0.583h3.71l1.391,1.342v4.92h-1.855V5.503h-2.782v1.342h-1.855v-4.92L26.32,0.583z M29.103,2.372
			h-1.855l-0.464,0.447v0.895h2.782V2.819L29.103,2.372z"/>
		<path id="XMLID_418_" d="M38.84,1.925v1.789l-1.391,1.342h-3.247v1.789h-1.854V0.583h5.101L38.84,1.925z M36.985,2.819
			l-0.464-0.447h-2.319v0.894h2.319L36.985,2.819z"/>
		<path id="XMLID_421_" d="M41.622,5.056h3.71v1.789h-5.564V0.583h5.564v1.789h-3.71v0.447h3.71v1.789h-3.71V5.056z"/>
		<path id="XMLID_423_" d="M52.753,1.925v1.789l-1.391,1.342l1.854,1.789h-2.782l-1.855-1.789h-0.464v1.789h-1.854V0.583h5.102
			L52.753,1.925z M50.898,2.819l-0.464-0.447h-2.319v0.894h2.319L50.898,2.819z"/>
		<path id="XMLID_426_" d="M53.663,0.023h1.177l-0.531,2.609h-0.873L53.663,0.023z M55.267,0.023h1.168l-0.655,2.609h-0.883
			L55.267,0.023z"/>
	</g>
</g>
<g id="Layer_1">
</g>
</svg>
