<?xml version="1.0" encoding="iso-8859-1"?>
<!-- Generator: Adobe Illustrator 19.0.0, SVG Export Plug-In . SVG Version: 6.00 Build 0)  -->
<svg version="1.1" xmlns="http://www.w3.org/2000/svg" xmlns:xlink="http://www.w3.org/1999/xlink" x="0px" y="0px"
	 viewBox="0 0 64 8" style="enable-background:new 0 0 64 8;" xml:space="preserve">
<g id="Layer_3_copy_9">
	<g id="XMLID_271_">
		<path id="XMLID_272_" d="M12.232,2.633H11.35l-0.655-2.609h1.167L12.232,2.633z M13.694,2.633h-0.873l-0.532-2.609h1.177
			L13.694,2.633z"/>
		<path id="XMLID_275_" d="M20.871,1.925v1.789l-1.391,1.342l1.855,1.789h-2.782l-1.855-1.789h-0.464v1.789h-1.855V0.583h5.101
			L20.871,1.925z M19.016,2.819l-0.463-0.447h-2.319v0.894h2.319L19.016,2.819z"/>
		<path id="XMLID_278_" d="M21.798,5.503V1.925l1.391-1.342h3.71l1.391,1.342v3.578l-1.391,1.342h-3.71L21.798,5.503z M23.653,2.819
			v1.789l0.464,0.448h1.855l0.463-0.448V2.819l-0.463-0.447h-1.855L23.653,2.819z"/>
		<path id="XMLID_281_" d="M29.218,5.503V1.925l1.391-1.342h3.71l1.391,1.342l-0.928,0.894h0.928v4.026h-5.101L29.218,5.503z
			 M31.073,2.819v1.789l0.464,0.448h2.318V4.608H32V2.819h1.855l-0.464-0.447h-1.854L31.073,2.819z"/>
		<path id="XMLID_284_" d="M36.638,5.503v-4.92h1.854v4.025l0.464,0.448h1.855l0.464-0.448V0.583h1.854v4.92l-1.391,1.342h-3.71
			L36.638,5.503z"/>
		<path id="XMLID_286_" d="M45.912,5.056h3.71v1.789h-5.564V0.583h5.564v1.789h-3.71v0.447h3.71v1.789h-3.71V5.056z"/>
		<path id="XMLID_288_" d="M50.532,0.023h1.177l-0.531,2.609h-0.873L50.532,0.023z M52.136,0.023h1.168l-0.655,2.609h-0.883
			L52.136,0.023z"/>
	</g>
</g>
<g id="Layer_1">
</g>
</svg>
