<svg version="1.1" xmlns="http://www.w3.org/2000/svg" xmlns:xlink="http://www.w3.org/1999/xlink" width="98.4" height="11"><g transform="translate(-224.8,-174.7)"><g data-paper-data="{&quot;isPaintingLayer&quot;:true}" fill="#ffffff" fill-rule="nonzero" stroke="none" stroke-width="1" stroke-linecap="butt" stroke-linejoin="miter" stroke-miterlimit="10" stroke-dasharray="" stroke-dashoffset="0" font-family="none" font-weight="none" font-size="none" text-anchor="none" style="mix-blend-mode: normal"><g><path d="M235.7,177v2.3l-0.8,0.8l0.8,0.8v2.3l-2.3,2.3h-8.6v-10.8h8.6zM231.8,177.8h-3.9v0.8h3.9l0.4,-0.4zM227.9,181.7v0.8h3.9l0.4,-0.4l-0.4,-0.4z" id="XMLID_3_"/><path d="M239.6,174.7h6.3l2.3,2.3v8.6h-3.1v-2.3h-4.7v2.3h-3.1v-8.6zM244.3,177.8h-3.1l-0.8,0.8v1.6h4.7v-1.6z" id="XMLID_7_"/><path d="M260.7,177v3.1l-2.3,2.3l3.1,3.1h-4.7l-3.1,-3.1h-0.8v3.1h-3.1v-10.8h8.6zM257.6,178.6l-0.8,-0.8h-3.9v1.6h3.9z" id="XMLID_10_"/><path d="M273.2,177v3.1l-2.3,2.3l3.1,3.1h-4.7l-3.1,-3.1h-0.8v3.1h-3.1v-10.8h8.6zM270.1,178.6l-0.8,-0.8h-3.9v1.6h3.9z" id="XMLID_13_"/><path d="M277.1,174.7h6.3l2.3,2.3v8.6h-3.1v-2.3h-4.7v2.3h-3.1v-8.6zM281.8,177.8h-3.1l-0.8,0.8v1.6h4.7v-1.6z" id="XMLID_16_"/><path d="M295.9,174.7l2.3,2.3l-2.3,2.3l-1.6,-1.6h-3.1l-0.8,0.8v3.1l0.8,0.8h3.1l1.6,-1.6l2.3,2.3l-2.3,2.3h-6.3l-2.3,-2.3v-6.1l2.3,-2.3z" id="XMLID_19_"/><path d="M302.9,181.7v3.9h-3.1v-10.9h3.1v3.9l3.9,-3.9h4.7l-5.5,5.5l5.5,5.5h-4.7z" id="XMLID_21_"/><path d="M312.3,177l2.3,-2.3h8.6v3.1h-7l-0.4,0.4l0.4,0.4h4.7l2.3,2.3v2.3l-2.3,2.3h-8.6v-3.1h7l0.4,-0.4l-0.4,-0.4h-4.7l-2.3,-2.3z" id="XMLID_23_"/></g></g></g></svg>