<?xml version="1.0" encoding="iso-8859-1"?>
<!-- Generator: Adobe Illustrator 19.0.0, SVG Export Plug-In . SVG Version: 6.00 Build 0)  -->
<svg version="1.1" xmlns="http://www.w3.org/2000/svg" xmlns:xlink="http://www.w3.org/1999/xlink" x="0px" y="0px"
	 viewBox="0 0 64 8" style="enable-background:new 0 0 64 8;" xml:space="preserve">
<g id="Layer_3_copy_45">
	<g id="XMLID_986_">
		<path id="XMLID_987_" d="M15.942,2.633H15.06l-0.655-2.609h1.167L15.942,2.633z M17.404,2.633h-0.873l-0.532-2.609h1.177
			L17.404,2.633z"/>
		<path id="XMLID_990_" d="M19.943,4.608v2.237h-1.855V0.583h1.855v2.236h2.782V0.583h1.855v6.262h-1.855V4.608H19.943z"/>
		<path id="XMLID_992_" d="M27.363,5.056h3.71v1.789h-5.565V0.583h5.565v1.789h-3.71v0.447h3.71v1.789h-3.71V5.056z"/>
		<path id="XMLID_994_" d="M38.492,1.925v1.789l-1.391,1.342l1.854,1.789h-2.782l-1.855-1.789h-0.464v1.789H32V0.583h5.101
			L38.492,1.925z M36.638,2.819l-0.464-0.447h-2.319v0.894h2.319L36.638,2.819z"/>
		<path id="XMLID_997_" d="M39.42,5.503V1.925l1.392-1.342h3.71l1.391,1.342v3.578l-1.391,1.342h-3.71L39.42,5.503z M41.274,2.819
			v1.789l0.464,0.448h1.855l0.464-0.448V2.819l-0.464-0.447h-1.855L41.274,2.819z"/>
		<path id="XMLID_1000_" d="M46.822,0.023h1.177l-0.531,2.609h-0.873L46.822,0.023z M48.426,0.023h1.168l-0.655,2.609h-0.883
			L48.426,0.023z"/>
	</g>
</g>
<g id="Layer_1">
</g>
</svg>
