<svg version="1.1" xmlns="http://www.w3.org/2000/svg" xmlns:xlink="http://www.w3.org/1999/xlink" width="34.57143" height="46.09524" viewBox="0,0,34.57143,46.09524"><defs><linearGradient x1="227.96914" y1="169.67467" x2="227.96914" y2="190.32533" gradientUnits="userSpaceOnUse" id="color-1"><stop offset="0" stop-color="#ffffff"/><stop offset="1" stop-color="#fefefe"/></linearGradient><linearGradient x1="224.36507" y1="165.79114" x2="224.36507" y2="172.99496" gradientUnits="userSpaceOnUse" id="color-2"><stop offset="0" stop-color="#ffffff"/><stop offset="1" stop-color="#fefefe"/></linearGradient><linearGradient x1="247.39396" y1="184.43667" x2="247.39396" y2="191.66786" gradientUnits="userSpaceOnUse" id="color-3"><stop offset="0" stop-color="#ffffff"/><stop offset="1" stop-color="#fefefe"/></linearGradient></defs><g transform="translate(-222.71429,-156.95238)"><g data-paper-data="{&quot;isPaintingLayer&quot;:true}" fill-rule="nonzero" stroke="none" stroke-width="1" stroke-linecap="butt" stroke-linejoin="miter" stroke-miterlimit="10" stroke-dasharray="" stroke-dashoffset="0" style="mix-blend-mode: normal"><path d="M222.71429,156.95238h34.57143v46.09524h-34.57143z" fill="none"/><g><path d="M246.67373,186.43461v3.89073h-13.34601v-3.89073c-3.22955,-0.71736 -5.35857,-2.4733 -5.35857,-6.7299c0,-6.77888 5.38738,-10.03004 12.0323,-10.03004c6.64492,0 12.02942,3.25115 12.02942,10.03004c0,4.25805 -2.13046,6.01255 -5.35713,6.7299zM238.4342,180.92479c0,-1.68248 -1.40446,-3.04517 -3.13448,-3.04517c-1.73289,0 -3.13592,1.36269 -3.13592,3.04517c0,1.6796 1.40302,3.04517 3.13592,3.04517c1.73001,0 3.13448,-1.36557 3.13448,-3.04517zM241.31515,184.33871c0,-2.32925 -1.31371,-4.2206 -1.31371,-4.2206c0,0 -1.31371,1.89135 -1.31371,4.2206zM244.70171,183.96995c1.73001,0 3.13448,-1.36557 3.13448,-3.04517c0,-1.68248 -1.40446,-3.04517 -3.13448,-3.04517c-1.73289,0 -3.13448,1.36269 -3.13448,3.04517c0,1.6796 1.40158,3.04517 3.13448,3.04517z" fill="url(#color-1)"/><path d="M224.36507,171.24623l4.54614,-0.32987l-1.80348,-3.59255l4.24364,2.06276l1.77611,-3.59543l-0.21751,4.62681c-1.34829,0.65686 -2.47762,1.52258 -3.36639,2.57701z" fill="url(#color-2)"/><path d="M254.90893,191.66786l-6.59162,-3.65017l-0.92335,2.47618v-3.49604c1.84093,-0.4984 3.18489,-1.34108 4.0679,-2.56117l2.09877,0.66982l-2.23994,1.25321z" fill="url(#color-3)"/></g></g></g></svg>