<?xml version="1.0" encoding="utf-8"?>
<!-- Generator: Adobe Illustrator 25.2.1, SVG Export Plug-In . SVG Version: 6.00 Build 0)  -->
<svg version="1.1" xmlns="http://www.w3.org/2000/svg" xmlns:xlink="http://www.w3.org/1999/xlink" x="0px" y="0px"
	 viewBox="0 0 217.6 219.9" style="enable-background:new 0 0 217.6 219.9;" xml:space="preserve">
<g id="Layer_1">
</g>
<g id="Layer_2">
	<g>
		<path d="M90.8,110.1h-1.8v-3.2h1.8V110.1z M93,110.1h-1.8v-3.2H93V110.1z"/>
		<path d="M100.2,108.3v1.8l-1.4,1.4h-3.2v1.8h-1.8v-6.3h5L100.2,108.3z M98.4,109.2l-0.5-0.5h-2.3v0.9H98L98.4,109.2z"/>
		<path d="M102.9,111.4h3.6v1.8h-5.4v-6.3h5.4v1.8h-3.6v0.5h3.6v1.8h-3.6V111.4z"/>
		<path d="M109.3,110.1v3.2h-1.8v-6.3h1.4l3.2,3.2v-3.2h1.8v6.3h-1.4L109.3,110.1z"/>
		<path d="M114.7,111.9v-3.6l1.4-1.4h3.6l1.4,1.4l-0.9,0.9h0.9v4.1h-5L114.7,111.9z M116.5,109.2v1.8l0.5,0.5h2.3V111h-1.8v-1.8h1.8
			l-0.5-0.5h-1.8L116.5,109.2z"/>
		<path d="M123.7,113.2h-1.8v-6.3h1.8V113.2z"/>
		<path d="M126.4,110.1h-1.8v-3.2h1.8V110.1z M128.7,110.1h-1.8v-3.2h1.8V110.1z"/>
	</g>
</g>
</svg>
