<svg xmlns="http://www.w3.org/2000/svg" xmlns:xlink="http://www.w3.org/1999/xlink" version="1.1" width="59.178001403808594" height="57.10399627685547" viewBox="0.41100001335144043 0.44800007343292236 59.178001403808594 57.10399627685547">
  <!-- Exported by Scratch - http://scratch.mit.edu/ -->
  <g id="RSS">
    <g id="Volume_High">
      <g id="Mute">
        <path id="ID0.9447615151293576" fill="#FF6146" d="M 0.911 18.815 L 0.911 38.292 L 14.295 38.292 L 14.511 38.462 L 30.994 21.976 L 30.994 5.769 L 14.295 18.815 L 0.911 18.815 Z M 51.808 15.296 L 46.454 20.648 C 47.486 22.988 48.098 25.689 48.098 28.552 C 48.098 33.82 46.08 38.566 43.068 41.427 L 46.854 47.55 C 51.977 43.499 55.364 36.503 55.364 28.552 C 55.362 23.599 54.037 19.024 51.808 15.296 Z M 30.994 51.339 L 30.994 36.109 L 22.442 44.66 L 30.994 51.339 Z " stroke-width="1"/>
        <path id="ID0.9794244770891964" fill="#FF6146" d="M 56.924 0.948 L 59.089 3.114 L 5.15 57.052 L 2.979 54.886 L 56.924 0.948 " stroke-width="1"/>
      </g>
    </g>
  </g>
</svg>