<?xml version="1.0" encoding="iso-8859-1"?>
<!-- Generator: Adobe Illustrator 19.0.0, SVG Export Plug-In . SVG Version: 6.00 Build 0)  -->
<svg version="1.1" xmlns="http://www.w3.org/2000/svg" xmlns:xlink="http://www.w3.org/1999/xlink" x="0px" y="0px"
	 viewBox="0 0 64 8" style="enable-background:new 0 0 64 8;" xml:space="preserve">
<g id="Layer_3_copy_34">
	<g id="XMLID_778_">
		<path id="XMLID_779_" d="M19.188,2.633h-0.883l-0.655-2.609h1.167L19.188,2.633z M20.65,2.633h-0.873l-0.532-2.609h1.177
			L20.65,2.633z"/>
		<path id="XMLID_782_" d="M27.827,1.925v1.789l-1.391,1.342h-3.246v1.789h-1.855V0.583h5.101L27.827,1.925z M25.972,2.819
			l-0.463-0.447h-2.319v0.894h2.319L25.972,2.819z"/>
		<path id="XMLID_785_" d="M35.246,1.925v1.789l-1.391,1.342l1.854,1.789h-2.782l-1.855-1.789h-0.464v1.789h-1.855V0.583h5.101
			L35.246,1.925z M33.392,2.819l-0.463-0.447h-2.319v0.894h2.319L33.392,2.819z"/>
		<path id="XMLID_788_" d="M36.174,5.503V1.925l1.392-1.342h3.71l1.391,1.342v3.578l-1.391,1.342h-3.71L36.174,5.503z M38.028,2.819
			v1.789l0.464,0.448h1.855l0.464-0.448V2.819l-0.464-0.447h-1.855L38.028,2.819z"/>
		<path id="XMLID_791_" d="M43.576,0.023h1.177l-0.531,2.609h-0.873L43.576,0.023z M45.18,0.023h1.168l-0.655,2.609H44.81
			L45.18,0.023z"/>
	</g>
</g>
<g id="Layer_1">
</g>
</svg>
