<?xml version="1.0" encoding="iso-8859-1"?>
<!-- Generator: Adobe Illustrator 19.0.0, SVG Export Plug-In . SVG Version: 6.00 Build 0)  -->
<svg version="1.1" id="Layer_1" xmlns="http://www.w3.org/2000/svg" xmlns:xlink="http://www.w3.org/1999/xlink" x="0px" y="0px"
	 viewBox="0 0 69.16 12.97" style="enable-background:new 0 0 69.16 12.97;" xml:space="preserve">
<g id="XMLID_2_">
	<path id="XMLID_3_" d="M17.083,5.196V4.541c0-0.343,0.042-0.625,0.124-0.845c0.083-0.22,0.225-0.406,0.425-0.56
		c0.2-0.153,0.425-0.256,0.675-0.307v0.524c-0.178,0.103-0.279,0.24-0.303,0.411h0.303v1.432H17.083z M18.719,5.196V4.541
		c0-0.343,0.041-0.625,0.124-0.845c0.083-0.22,0.224-0.406,0.422-0.56c0.199-0.153,0.424-0.256,0.677-0.307v0.524
		c-0.178,0.103-0.278,0.24-0.303,0.411h0.303v1.432H18.719z"/>
	<path id="XMLID_6_" d="M26.884,5.173v1.355L26.433,6.98l0.452,0.452v1.355l-1.355,1.354h-4.968V3.818h4.968L26.884,5.173z
		 M24.626,5.625h-2.258v0.452h2.258l0.226-0.226L24.626,5.625z M22.368,7.883v0.451h2.258l0.226-0.226l-0.226-0.226H22.368z"/>
	<path id="XMLID_10_" d="M27.788,8.787V3.818h1.807v4.065l0.452,0.451h1.807l0.452-0.451V3.818h1.807v4.968l-1.355,1.354h-3.613
		L27.788,8.787z"/>
	<path id="XMLID_12_" d="M36.821,6.98v3.161h-1.807V3.818h1.355l3.161,3.162V3.818h1.807v6.323h-1.354L36.821,6.98z"/>
	<path id="XMLID_14_" d="M42.242,5.173l1.354-1.355h4.969v1.807h-4.065L44.274,5.85l0.226,0.226h2.71l1.355,1.355v1.355
		l-1.355,1.354h-4.968V8.334h4.064l0.226-0.226l-0.226-0.226h-2.71l-1.354-1.355V5.173z"/>
	<path id="XMLID_16_" d="M50.708,3.808c-0.213,0.777-0.61,1.766-0.86,2.191L49.33,6.064c0.194-0.546,0.443-1.507,0.546-2.173
		L50.708,3.808z M52.077,3.808c-0.213,0.777-0.61,1.766-0.859,2.191l-0.519,0.065c0.204-0.546,0.444-1.507,0.546-2.173L52.077,3.808
		z"/>
</g>
</svg>
