<?xml version="1.0" encoding="iso-8859-1"?>
<!-- Generator: Adobe Illustrator 19.0.0, SVG Export Plug-In . SVG Version: 6.00 Build 0)  -->
<svg version="1.1" xmlns="http://www.w3.org/2000/svg" xmlns:xlink="http://www.w3.org/1999/xlink" x="0px" y="0px"
	 viewBox="0 0 64 8" style="enable-background:new 0 0 64 8;" xml:space="preserve">
<g id="Layer_3_copy_37">
	<g id="XMLID_827_">
		<path id="XMLID_828_" d="M10.493,2.633H9.61L8.956,0.023h1.167L10.493,2.633z M11.955,2.633h-0.873L10.55,0.023h1.177
			L11.955,2.633z"/>
		<path id="XMLID_831_" d="M14.03,0.583h3.71l1.391,1.342v4.92h-1.855V5.503h-2.782v1.342h-1.855v-4.92L14.03,0.583z M16.813,2.372
			h-1.855l-0.464,0.447v0.895h2.782V2.819L16.813,2.372z"/>
		<path id="XMLID_834_" d="M26.551,1.925v1.789L25.16,5.056l1.855,1.789h-2.782l-1.855-1.789h-0.464v1.789h-1.855V0.583h5.101
			L26.551,1.925z M24.696,2.819l-0.463-0.447h-2.319v0.894h2.319L24.696,2.819z"/>
		<path id="XMLID_837_" d="M32.581,0.583l1.39,1.342l-1.39,1.341l-0.928-0.894h-1.855l-0.464,0.447v1.789l0.464,0.448h1.855
			l0.928-0.895l1.39,1.342l-1.39,1.342h-3.71l-1.391-1.342V1.925l1.391-1.342H32.581z"/>
		<path id="XMLID_839_" d="M38.841,2.372v4.473h-1.855V2.372h-2.318V0.583h6.492v1.789H38.841z"/>
		<path id="XMLID_841_" d="M43.941,6.845h-1.854V0.583h1.854V6.845z"/>
		<path id="XMLID_843_" d="M49.971,0.583l1.391,1.342l-1.391,1.341l-0.928-0.894h-1.855l-0.464,0.447v1.789l0.464,0.448h1.855
			l0.928-0.895l1.391,1.342l-1.391,1.342h-3.71l-1.392-1.342V1.925l1.392-1.342H49.971z"/>
		<path id="XMLID_845_" d="M52.271,0.023h1.177l-0.531,2.609h-0.873L52.271,0.023z M53.875,0.023h1.168l-0.655,2.609h-0.883
			L53.875,0.023z"/>
	</g>
</g>
<g id="Layer_1">
</g>
</svg>
