<?xml version="1.0" encoding="iso-8859-1"?>
<!-- Generator: Adobe Illustrator 19.0.0, SVG Export Plug-In . SVG Version: 6.00 Build 0)  -->
<svg version="1.1" xmlns="http://www.w3.org/2000/svg" xmlns:xlink="http://www.w3.org/1999/xlink" x="0px" y="0px"
	 viewBox="0 0 64 8" style="enable-background:new 0 0 64 8;" xml:space="preserve">
<g id="Layer_3_copy_31">
	<g id="XMLID_721_">
		<path id="XMLID_722_" d="M17.797,2.633h-0.883L16.26,0.023h1.167L17.797,2.633z M19.259,2.633h-0.873l-0.532-2.609h1.177
			L19.259,2.633z"/>
		<path id="XMLID_725_" d="M19.943,0.583h5.101l1.391,1.342v3.578l-1.391,1.342h-5.101V0.583z M21.798,2.372v2.684h2.319
			l0.463-0.448V2.819l-0.463-0.447H21.798z"/>
		<path id="XMLID_728_" d="M29.218,6.845h-1.855V0.583h1.855V6.845z"/>
		<path id="XMLID_730_" d="M32,3.713v3.131h-1.854V0.583h1.391l3.246,3.13v-3.13h1.855v6.262h-1.391L32,3.713z"/>
		<path id="XMLID_732_" d="M37.565,5.503V1.925l1.392-1.342h3.71l1.391,1.342v3.578l-1.391,1.342h-3.71L37.565,5.503z M39.42,2.819
			v1.789l0.464,0.448h1.855l0.464-0.448V2.819l-0.464-0.447h-1.855L39.42,2.819z"/>
		<path id="XMLID_735_" d="M44.968,0.023h1.177l-0.531,2.609H44.74L44.968,0.023z M46.571,0.023h1.168l-0.655,2.609h-0.883
			L46.571,0.023z"/>
	</g>
</g>
<g id="Layer_1">
</g>
</svg>
