<svg version="1.1" xmlns="http://www.w3.org/2000/svg" xmlns:xlink="http://www.w3.org/1999/xlink" width="48.9" height="6.3" viewBox="0,0,48.9,6.3"><g transform="translate(-215.55,-176.85)"><g data-paper-data="{&quot;isPaintingLayer&quot;:true}" fill="#ffffff" fill-rule="nonzero" stroke="none" stroke-width="1" stroke-linecap="butt" stroke-linejoin="miter" stroke-miterlimit="10" stroke-dasharray="" stroke-dashoffset="0" style="mix-blend-mode: normal"><path d="M221.25,176.85v6.3h-1.2l-3.1,-3.8v3.8h-1.4v-6.3h1.2l3.1,3.8v-3.8z"/><path d="M227.35,181.05h-3.6c0.1,0.3 0.2,0.5 0.5,0.7c0.2,0.2 0.5,0.3 0.9,0.3c0.3,0 0.5,0 0.7,-0.1c0.2,-0.1 0.4,-0.2 0.5,-0.4l0.7,0.8c-0.5,0.5 -1.1,0.8 -2,0.8c-0.5,0 -1,-0.1 -1.4,-0.3c-0.4,-0.2 -0.7,-0.5 -1,-0.9c-0.2,-0.4 -0.3,-0.8 -0.3,-1.3c0,-0.5 0.1,-0.9 0.3,-1.3c0.2,-0.4 0.5,-0.7 0.9,-0.9c0.4,-0.2 0.8,-0.3 1.3,-0.3c0.5,0 0.9,0.1 1.3,0.3c0.4,0.2 0.7,0.5 0.9,0.9c0.2,0.4 0.3,0.8 0.3,1.3c0,0.1 0,0.2 0,0.4zM224.05,179.55c-0.2,0.2 -0.3,0.4 -0.4,0.7h2.4c0,-0.3 -0.2,-0.5 -0.4,-0.7c-0.2,-0.2 -0.5,-0.3 -0.8,-0.3c-0.3,0 -0.6,0.1 -0.8,0.3z"/><path d="M235.95,178.25l-1.7,4.8h-1.3l-1.1,-3l-1.1,3h-1.3l-1.7,-4.8h1.3l1.1,3.3l1.2,-3.3h1.2l1.1,3.3l1.2,-3.3z"/><path d="M248.75,176.85l-2.1,6.3h-1.6l-1.3,-4.3l-1.4,4.3h-1.6l-2.1,-6.3h1.5l1.4,4.4l1.5,-4.4h1.3l1.4,4.4l1.5,-4.4z"/><path d="M252.75,178.75c0.4,0.4 0.6,0.9 0.6,1.6v2.8h-1.3v-0.6c-0.3,0.4 -0.8,0.6 -1.5,0.6c-0.4,0 -0.7,-0.1 -1,-0.2c-0.3,-0.1 -0.5,-0.3 -0.6,-0.5c-0.1,-0.2 -0.2,-0.5 -0.2,-0.8c0,-0.4 0.2,-0.8 0.5,-1.1c0.3,-0.3 0.9,-0.4 1.6,-0.4h1.1c0,-0.3 -0.1,-0.5 -0.3,-0.7c-0.2,-0.2 -0.5,-0.2 -0.8,-0.2c-0.3,0 -0.5,0 -0.8,0.1c-0.2,0.1 -0.5,0.2 -0.6,0.3l-0.5,-1c0.3,-0.2 0.6,-0.3 0.9,-0.4c0.4,-0.1 0.7,-0.2 1.1,-0.2c0.8,0.1 1.4,0.3 1.8,0.7zM251.55,182.05c0.2,-0.1 0.3,-0.3 0.4,-0.5v-0.5h-1c-0.6,0 -0.9,0.2 -0.9,0.6c0,0.2 0.1,0.3 0.2,0.4c0.1,0.1 0.3,0.2 0.6,0.2c0.3,0 0.5,-0.1 0.7,-0.2z"/><path d="M259.35,178.25l-2,4.8h-1.4l-2,-4.8h1.4l1.3,3.3l1.4,-3.3z"/><path d="M264.45,181.05h-3.7c0.1,0.3 0.2,0.5 0.5,0.7c0.2,0.2 0.5,0.3 0.9,0.3c0.3,0 0.5,0 0.7,-0.1c0.2,-0.1 0.4,-0.2 0.5,-0.4l0.7,0.8c-0.5,0.5 -1.1,0.8 -2,0.8c-0.5,0 -1,-0.1 -1.4,-0.3c-0.4,-0.2 -0.7,-0.5 -1,-0.9c-0.2,-0.4 -0.3,-0.8 -0.3,-1.3c0,-0.5 0.1,-0.9 0.3,-1.3c0.2,-0.4 0.5,-0.7 0.9,-0.9c0.4,-0.2 0.8,-0.3 1.3,-0.3c0.5,0 0.9,0.1 1.3,0.3c0.4,0.2 0.7,0.5 0.9,0.9c0.2,0.4 0.3,0.8 0.3,1.3c0.1,0.1 0.1,0.2 0.1,0.4zM261.15,179.55c-0.2,0.2 -0.3,0.4 -0.4,0.7h2.4c0,-0.3 -0.2,-0.5 -0.4,-0.7c-0.2,-0.2 -0.5,-0.3 -0.8,-0.3c-0.3,0 -0.6,0.1 -0.8,0.3z"/></g></g></svg>