<?xml version="1.0" encoding="iso-8859-1"?>
<!-- Generator: Adobe Illustrator 19.0.0, SVG Export Plug-In . SVG Version: 6.00 Build 0)  -->
<svg version="1.1" xmlns="http://www.w3.org/2000/svg" xmlns:xlink="http://www.w3.org/1999/xlink" x="0px" y="0px"
	 viewBox="0 0 64 8" style="enable-background:new 0 0 64 8;" xml:space="preserve">
<g id="Layer_3_copy_46">
	<g id="XMLID_1003_">
		<path id="XMLID_1004_" d="M3.073,2.633H2.19L1.536,0.023h1.167L3.073,2.633z M4.535,2.633H3.662L3.13,0.023h1.177L4.535,2.633z"/>
		<path id="XMLID_1007_" d="M6.61,0.583h3.71l1.391,1.342v4.92H9.856V5.503H7.074v1.342H5.219v-4.92L6.61,0.583z M9.393,2.372H7.538
			L7.074,2.819v0.895h2.782V2.819L9.393,2.372z"/>
		<path id="XMLID_1010_" d="M12.639,1.925l1.391-1.342h5.101v1.789h-4.173l-0.232,0.224l0.232,0.223h2.782l1.391,1.342v1.342
			L17.74,6.845h-5.101V5.056h4.174l0.231-0.224l-0.231-0.224H14.03l-1.391-1.342V1.925z"/>
		<path id="XMLID_1012_" d="M20.059,1.925l1.391-1.342h5.101v1.789h-4.173l-0.232,0.224l0.232,0.223h2.782l1.391,1.342v1.342
			L25.16,6.845h-5.101V5.056h4.174l0.231-0.224l-0.231-0.224H21.45l-1.391-1.342V1.925z"/>
		<path id="XMLID_1014_" d="M28.638,0.583h3.711l1.39,1.342v4.92h-1.855V5.503h-2.782v1.342h-1.855v-4.92L28.638,0.583z
			 M31.421,2.372h-1.855l-0.464,0.447v0.895h2.782V2.819L31.421,2.372z"/>
		<path id="XMLID_1017_" d="M34.667,1.925l1.392-1.342h5.101v1.789h-4.174l-0.231,0.224l0.231,0.223h2.783l1.391,1.342v1.342
			l-1.391,1.342h-5.102V5.056h4.174l0.231-0.224l-0.231-0.224h-2.782l-1.392-1.342V1.925z"/>
		<path id="XMLID_1019_" d="M42.087,1.925l1.392-1.342h5.101v1.789h-4.174l-0.231,0.224l0.231,0.223h2.783l1.391,1.342v1.342
			l-1.391,1.342h-5.102V5.056h4.174l0.231-0.224l-0.231-0.224h-2.782l-1.392-1.342V1.925z"/>
		<path id="XMLID_1021_" d="M51.361,6.845h-1.854V0.583h1.854V6.845z"/>
		<path id="XMLID_1023_" d="M54.144,3.713v3.131h-1.854V0.583h1.392l3.246,3.13v-3.13h1.854v6.262h-1.391L54.144,3.713z"/>
		<path id="XMLID_1025_" d="M59.691,0.023h1.177l-0.531,2.609h-0.873L59.691,0.023z M61.295,0.023h1.168l-0.655,2.609h-0.883
			L61.295,0.023z"/>
	</g>
</g>
<g id="Layer_1">
</g>
</svg>
