<?xml version="1.0" encoding="iso-8859-1"?>
<!-- Generator: Adobe Illustrator 19.0.0, SVG Export Plug-In . SVG Version: 6.00 Build 0)  -->
<svg version="1.1" xmlns="http://www.w3.org/2000/svg" xmlns:xlink="http://www.w3.org/1999/xlink" x="0px" y="0px"
	 viewBox="0 0 64 8" style="enable-background:new 0 0 64 8;" xml:space="preserve">
<g id="Layer_3_copy_38">
	<g id="XMLID_848_">
		<path id="XMLID_849_" d="M12.348,2.633h-0.883l-0.655-2.609h1.167L12.348,2.633z M13.81,2.633h-0.873l-0.532-2.609h1.177
			L13.81,2.633z"/>
		<path id="XMLID_852_" d="M19.595,0.583l1.391,1.342l-1.391,1.341l-0.927-0.894h-1.855l-0.464,0.447v1.789l0.464,0.448h1.855
			l0.927-0.895l1.391,1.342l-1.391,1.342h-3.71l-1.391-1.342V1.925l1.391-1.342H19.595z"/>
		<path id="XMLID_854_" d="M21.914,0.583h1.855v4.473h3.71v1.789h-5.565V0.583z"/>
		<path id="XMLID_856_" d="M28.175,5.503V1.925l1.391-1.342h3.71l1.391,1.342v3.578l-1.391,1.342h-3.71L28.175,5.503z M30.03,2.819
			v1.789l0.464,0.448h1.855l0.463-0.448V2.819l-0.463-0.447h-1.855L30.03,2.819z"/>
		<path id="XMLID_859_" d="M40.695,6.845h-1.392L38.84,6.397l-0.464,0.447h-1.391l-1.392-1.342v-4.92h1.854v4.025l0.232,0.224
			l0.231-0.224V0.583h1.855v4.025l0.231,0.224l0.232-0.224V0.583h1.854v4.92L40.695,6.845z"/>
		<path id="XMLID_861_" d="M44.868,3.713v3.131h-1.854V0.583h1.392l3.246,3.13v-3.13h1.854v6.262h-1.391L44.868,3.713z"/>
		<path id="XMLID_863_" d="M50.416,0.023h1.177l-0.531,2.609h-0.873L50.416,0.023z M52.02,0.023h1.168l-0.655,2.609h-0.883
			L52.02,0.023z"/>
	</g>
</g>
<g id="Layer_1">
</g>
</svg>
